<?xml version="1.0" encoding="UTF-8" standalone="no"?>
<svg xmlns:dc="http://purl.org/dc/elements/1.1/" xmlns:cc="http://creativecommons.org/ns#" xmlns:rdf="http://www.w3.org/1999/02/22-rdf-syntax-ns#" xmlns:svg="http://www.w3.org/2000/svg" xmlns="http://www.w3.org/2000/svg" xmlns:sodipodi="http://sodipodi.sourceforge.net/DTD/sodipodi-0.dtd" xmlns:inkscape="http://www.inkscape.org/namespaces/inkscape" width="512" inkscape:dummy1="dummy" height="1024" sodipodi:dummy2="dummy" id="svg2" version="1.1" inkscape:version="0.48.2 r9819" sodipodi:docname="athletic.template.svg">
  <defs id="defs1228" />
  <metadata id="metadata4">
  Created by
  <rdf:RDF>
  <cc:Work rdf:about="">
    <dc:format>image/svg+xml</dc:format>
    <dc:type rdf:resource="http://purl.org/dc/dcmitype/StillImage" />
    <dc:title />
  </cc:Work>
</rdf:RDF>
</metadata>
  <sodipodi:namedview id="namedview6" showgrid="false" inkscape:zoom="0.4751" inkscape:cx="29.99" inkscape:cy="345.4" inkscape:window-width="1920" inkscape:window-height="1058" inkscape:window-x="0" inkscape:window-y="0" inkscape:window-maximized="0" inkscape:current-layer="Y">
    <sodipodi:guide orientation="0,1" position="-254.5,793.3" id="ascent" />
    <sodipodi:guide orientation="0,1" position="337.9,-77.4" id="descent" />
    <sodipodi:guide orientation="0,1" position="-256,512" id="x-height" />
    <sodipodi:guide orientation="0,1" position="-254.5,793.3" id="cap-height" />
    <sodipodi:guide orientation="0,1" position="-256,0" id="baseline" />
    <sodipodi:guide orientation="1,0" position="511,-71" id="horiz-adv-x" />
  </sodipodi:namedview>
  <g display="none" inkscape:groupmode="layer" transform="matrix(1,0,0,-1,0,1024)" inkscape:label="-" id="g992" style="display:inline">
    <rect class="charwidth" y="-250.1" style="fill:#ffc0ff" width="96" height="1280" x="283.7" id="rect994" />
    <path class="base" style="fill:#ef2929;display:inline" d="m -1.031,453.1 0,-130.7 285.631,0 0,130.7 -285.631,0 z" id="path9009" inkscape:connector-curvature="0" />
    <path class="plateau" style="fill:#ad7fa8;display:inline" d="m 46.67,405.3 190.23,0 0,-35.1 -190.23,0 z" id="rect9013" inkscape:connector-curvature="0" />
    <path class="layer1" style="fill:#fcaf3e;display:inline" d="m 236.9,405.3 47.7,47.8 0,-130.7 -47.7,47.8 z" id="polygon9017" inkscape:connector-curvature="0" />
    <path class="layer3" style="fill:#2e3436;display:inline" d="m 236.9,370.2 47.7,-47.8 -285.646,0 47.716,47.8 z" id="polygon9021" inkscape:connector-curvature="0" />
    <path class="layer4" style="fill:#8ae234;display:inline" d="m 46.67,370.2 -47.716,-47.8 0,130.7 47.716,-47.8 z" id="polygon9025" inkscape:connector-curvature="0" />
    <path class="layer2" style="fill:#fce94f;display:inline" d="m 46.67,405.3 -47.716,47.8 285.646,0 -47.7,-47.8 z" id="polygon9029" inkscape:connector-curvature="0" />
  </g>
  <g display="none" inkscape:groupmode="layer" transform="matrix(1,0,0,-1,0,1024)" inkscape:label="." id="." style="display:inline">
    <rect class="charwidth" y="-256.5" style="fill:#ffc0ff" width="96" height="1280" x="143.5" id="rect1018" />
    <path class="base" style="fill:#ef2929;display:inline" d="m 0.5937,158 0,-158 142.9063,0 0,158 -142.9063,0 z m 47.7163,-47.7 0,0 0,-62.4 0,0 0,62.4 z" id="path8985" inkscape:connector-curvature="0" />
    <path class="plateau" style="fill:#ad7fa8;display:inline" d="m 48.33,110.3 47.41,0 0,-62.4 -47.41,0 z" id="rect8989" inkscape:connector-curvature="0" />
    <path class="layer1" style="fill:#fcaf3e;display:inline" d="M 95.74,110.3 143.5,158 143.5,0.1 95.74,47.9 z" id="polygon8993" inkscape:connector-curvature="0" />
    <path class="layer3" style="fill:#2e3436;display:inline" d="M 95.74,47.9 143.5,0.1 0.6094,0.1 48.33,47.9 z" id="polygon8997" inkscape:connector-curvature="0" />
    <path class="layer4" style="fill:#8ae234;display:inline" d="M 48.33,47.9 0.6094,0.1 0.6094,158 48.33,110.3 z" id="polygon9001" inkscape:connector-curvature="0" />
    <path class="layer2" style="fill:#fce94f;display:inline" d="M 48.33,110.3 0.6094,158 143.5,158 95.74,110.3 z" id="polygon9005" inkscape:connector-curvature="0" />
  </g>
  <g display="none" inkscape:groupmode="layer" transform="matrix(1,0,0,-1,0,1024)" inkscape:label="Z" id="Z" style="display:inline">
    <rect class="charwidth" y="-256" style="fill:#ffc0ff" width="96" height="1280" x="512" id="rect1043" />
    <path class="base" style="fill:#ef2929;display:inline" d="m 0.38,758.3 0,-232.1 137.22,0 0,95.9 128.7,0 L 0.37,132.5 -0.5,0 l 441.6,0 0,245.3 -143.8,0 0,-112.8 -109,0 252.8,489.7 0,136.1 -440.73,0 z" id="path8873" inkscape:connector-curvature="0" />
    <path class="layer2" style="fill:#fce94f;display:inline" d="m 0.38,758.3 47.71,-47.7 345.31,0 47.7,47.7 -440.73,0 z m 296.92,-513 47.8,-47.8 48.3,0 47.7,47.8 -143.8,0 z M 188.3,132.5 110,84.8 l 235.1,0 -47.8,47.7 -109,0 z" id="polygon8885" inkscape:connector-curvature="0" />
    <path class="layer4" style="fill:#8ae234;display:inline" d="m 0.38,758.3 0,-232.1 47.71,47.7 0,136.7 -47.71,47.7 z M 346.5,669.8 266.3,622.1 0.38,132.5 -0.5,0 l 48,47.7 0.5,72.5 298.5,549.6 z m -49.2,-424.5 0,-112.8 47.8,-47.7 0,112.7 -47.8,47.8 z" id="polygon8889" inkscape:connector-curvature="0" />
    <path class="layer1" style="fill:#fcaf3e;display:inline" d="m 441.1,758.3 -47.7,-47.7 0,-76.8 -283.4,-549 78.3,47.7 252.8,489.7 0,136.1 z m 0,-513 -47.7,-47.8 0,-149.8 47.7,-47.7 0,245.3 z" id="polygon8897" inkscape:connector-curvature="0" />
    <path class="layer3" style="fill:#2e3436;display:inline" d="m 89.84,669.8 47.76,-47.7 128.7,0 80.2,47.7 -256.66,0 z M 48.09,573.9 0.38,526.2 l 137.22,0 -47.76,47.7 -41.75,0 z M 47.5,47.7 -0.5,0 441.1,0 393.4,47.7 47.5,47.7 z" id="polygon8901" inkscape:connector-curvature="0" />
    <path class="plateau" style="fill:#ad7fa8;display:inline" d="m 48.1,573.9 0,136.7 345.3,0 0,-76.8 -283.4,-549 235.1,0 0,112.7 48.3,0 0,-149.8 -345.89,0 0.5,72.5 298.49,549.6 -256.64,0 0,-95.9 z" id="polygon8909" inkscape:connector-curvature="0" />
  </g>
  <g display="none" inkscape:groupmode="layer" transform="matrix(1,0,0,-1,0,1024)" inkscape:label="Y" id="Y" style="display:inline">
    <rect class="charwidth" y="-256" style="fill:#ffc0ff" width="96" height="1280" x="448.4" id="rect1046" />
    <path class="base" style="fill:#ef2929;display:inline" d="m 1.375,758.3 0,-136.2 31.965,0 119.36,-294.5 0,-195.1 -46,0 0,-132.5 246.1,0 0,132.5 -47.9,0 0,196 102.4,293.6 41.4,0 0,136.2 -207.7,0 0,-136.2 33.8,0 -46,-117.5 -47.9,117.5 32.9,0 0,136.2 -212.425,0 z" id="path8773" inkscape:connector-curvature="0" />
    <path class="layer1" style="fill:#fcaf3e;display:inline" d="m 213.8,758.3 -47.7,-47.7 0,-40.8 47.7,-47.7 0,136.2 z m 234.9,0 -47.7,-47.7 0,-40.8 47.7,-47.7 0,136.2 z m -338.8,-88.5 119.8,-293.6 -0.9,128.4 -47.9,117.5 -71,47.7 z m 263.5,0 -114.2,-325.4 -2,-259.6 47.7,47.7 0,196 102.4,293.6 -33.9,47.7 z m -20.6,-537.3 -47.7,-47.7 0,-37.1 47.7,-47.7 0,132.5 z" id="polygon8785" inkscape:connector-curvature="0" />
    <path class="layer2" style="fill:#fce94f;display:inline" d="m 1.375,758.3 47.715,-47.7 117.01,0 47.7,47.7 -212.425,0 z m 239.625,0 47.7,-47.7 112.3,0 47.7,47.7 -207.7,0 z m -134.3,-625.8 47.6,-47.7 46.1,0 -47.7,47.7 -46,0 z m 198.2,0 -47.7,-47.7 47.9,0 47.7,47.7 -47.9,0 z" id="polygon8793" inkscape:connector-curvature="0" />
    <path class="layer3" style="fill:#2e3436;display:inline" d="m 49.09,669.8 -47.715,-47.7 31.965,0 32.13,47.7 -16.38,0 z m 60.81,0 71,-47.7 32.9,0 -47.7,47.7 -56.2,0 z m 178.8,0 -47.7,-47.7 33.8,0 70,47.7 -56.1,0 z m 84.7,0 33.9,-47.7 41.4,0 -47.7,47.7 -27.6,0 z M 154.3,47.7 106.7,0 l 246.1,0 -47.7,47.7 -150.8,0 z" id="polygon8801" inkscape:connector-curvature="0" />
    <path class="layer4" style="fill:#8ae234;display:inline" d="m 1.375,758.3 0,-136.2 47.715,47.7 0,40.8 -47.715,47.7 z m 239.625,0 0,-136.2 47.7,47.7 0,40.8 -47.7,47.7 z M 65.47,669.8 33.34,622.1 152.7,327.6 l 0,-195.1 47.7,-47.7 0.9,242.8 -135.83,342.2 z m 279.33,0 -70,-47.7 -46,-117.5 0.9,-128.4 115.1,293.6 z M 106.7,132.5 106.7,0 l 47.6,47.7 0,37.1 -47.6,47.7 z" id="polygon8805" inkscape:connector-curvature="0" />
    <path class="plateau" style="fill:#ad7fa8;display:inline" d="m 288.7,669.8 0,40.8 112.3,0 0,-40.8 -27.6,0 -114.2,-325.4 -2,-259.6 47.9,0 0,-37.1 -150.7,0 0,37.1 46,0 0.9,242.8 -135.82,342.2 -16.37,0 0,40.8 116.99,0 0,-40.8 -56.2,0 119.8,-293.6 115.1,293.6 z" id="polygon8821" inkscape:connector-curvature="0" />
  </g>
  <g display="none" inkscape:groupmode="layer" transform="matrix(1,0,0,-1,0,1024)" inkscape:label="X" id="X" style="display:inline">
    <rect class="charwidth" y="-256" style="fill:#ffc0ff" width="96" height="1280" x="512" id="rect1049" />
    <path class="base" style="fill:#ef2929;display:inline" d="m 16.91,758.3 0,-136.2 31.93,0 L 163.5,381 40.41,131.6 l -41.3475,0 0,-131.6 220.8375,0 0,134.3 -32.9,0 58.3,123.2 60.1,-123.2 -35.7,0 0,-134.3 217.1,0 0,134.3 -41.4,0 -130.6,249.5 108,238.3 41.4,0 0,136.2 -207.7,0 0,-136.2 32.9,0 -45.1,-107.1 -47.9,107.1 31.9,0 0,136.2 -211.39,0 z" id="path8629" inkscape:connector-curvature="0" />
    <path class="layer3" style="fill:#2e3436;display:inline" d="m 64.62,669.8 -47.71,-47.7 31.93,0 30.16,47.7 -14.38,0 z m 58.08,0 73.7,-47.7 31.9,0 -47.7,47.7 -57.9,0 z m 181.5,0 -47.7,-47.7 32.9,0 71.9,47.7 -57.1,0 z m 87.9,0 30.7,-47.7 41.4,0 -47.7,47.7 -24.4,0 z M 46.78,47.7 -0.94,0 219.9,0 172.2,47.7 46.78,47.7 z M 317.4,47.7 269.7,0 486.8,0 439,47.7 l -121.6,0 z" id="polygon8657" inkscape:connector-curvature="0" />
    <path class="layer4" style="fill:#8ae234;display:inline" d="m 16.91,758.3 0,-136.2 47.71,47.7 0,40.8 -47.71,47.7 z m 239.59,0 0,-136.2 47.7,47.7 0,40.8 -47.7,47.7 z M 79,669.8 48.84,622.1 163.5,381 40.41,131.6 70.06,83.8 216.5,380.7 79,669.8 z m 282.3,0 -71.9,-47.7 -45.1,-107.1 1.4,-119.8 115.6,274.6 z m -116.7,-302.2 0.7,-110.1 60.1,-123.2 76.4,-47.7 -137.2,281 z m 25.1,-233.3 0,-134.3 47.7,47.7 0,38.9 -47.7,47.7 z m -270.64,-2.7 0,-131.6 47.72,47.7 0,36.1 -47.72,47.8 z" id="polygon8661" inkscape:connector-curvature="0" />
    <path class="layer2" style="fill:#fce94f;display:inline" d="m 16.91,758.3 47.71,-47.7 115.98,0 47.7,47.7 -211.39,0 z m 239.59,0 47.7,-47.7 112.3,0 47.7,47.7 -207.7,0 z m 13.2,-623.9 47.7,-47.8 64.4,0 -76.4,47.8 -35.7,0 z m 175.7,0 -28.9,-47.8 22.5,0 47.7,47.8 -41.3,0 z M 187,134.3 111.7,86.6 l 60.5,0 47.7,47.7 -32.9,0 z M -0.9375,131.6 46.78,83.8 l 23.28,0 -29.65,47.8 -41.3475,0 z" id="polygon8665" inkscape:connector-curvature="0" />
    <path class="layer1" style="fill:#fcaf3e;display:inline" d="m 228.3,758.3 -47.7,-47.7 0,-40.8 47.7,-47.7 0,136.2 z m 235.9,0 -47.7,-47.7 0,-40.8 47.7,-47.7 0,136.2 z m -341.5,-88.5 123,-274.6 -1.4,119.8 -47.9,107.1 -73.7,47.7 z m 269.4,0 -130.4,-287.5 154.8,-295.7 28.9,47.7 -130.6,249.5 108,238.3 -30.7,47.7 z M 244.6,367.6 111.7,86.6 l 75.3,47.7 58.3,123.2 -0.7,110.1 z m -24.7,-233.3 -47.7,-47.7 0,-38.9 47.7,-47.7 0,134.3 z m 266.9,0 L 439,86.6 439,47.7 486.8,0 l 0,134.3 z" id="polygon8673" inkscape:connector-curvature="0" />
    <path class="plateau" style="fill:#ad7fa8;display:inline" d="m 172.2,86.6 0,-38.9 -125.41,0 0,36.1 23.27,0 L 216.5,380.6 79,669.8 l -14.38,0 0,40.8 115.98,0 0,-40.8 -57.9,0 123,-274.6 115.6,274.6 -57.1,0 0,40.8 112.3,0 0,-40.8 -24.4,0 -130.4,-287.5 154.8,-295.7 22.5,0 0,-38.9 -121.6,0 0,38.9 64.4,0 -137.2,281 -133,-281 z" id="polygon8701" inkscape:connector-curvature="0" />
  </g>
  <g display="none" inkscape:groupmode="layer" transform="matrix(1,0,0,-1,0,1024)" inkscape:label="W" id="W" style="display:inline">
    <path class="base" style="fill:#ef2929;display:inline" d="m 0.4687,758.3 0,-136.2 46.0613,0 L 138.6,0 273,0 354.7,342.1 436.5,0 l 134.4,0 89.2,622.1 44.2,0 0,136.2 -224.6,0 0,-136.2 48.9,0 -40.1,-350.6 -83.6,293.3 -98.3,0 L 230.3,266 195,622.1 l 37.6,0 0,136.2 -232.1313,0 z" id="path8533-4" inkscape:connector-curvature="0" />
    <rect class="charwidth" y="-260.2" style="fill:#ffc0ff" width="96" height="1280" x="704.7" id="rect1052" />
    <path class="layer3" style="fill:#2e3436;display:inline" d="m 48.19,669.8 -47.7213,-47.7 46.0613,0 41.19,47.7 -39.53,0 z m 94.11,0 52.7,-47.7 37.6,0 -47.7,47.7 -42.6,0 z m 385.1,0 -47.7,-47.7 48.9,0 53.5,47.7 -54.7,0 z m 91.4,0 41.3,-47.7 44.2,0 -47.7,47.7 -37.8,0 z M 179.8,47.7 138.6,0 273,0 l -37.7,47.7 -55.5,0 z m 294.3,0 -37.6,-47.7 134.4,0 -41.4,47.7 -55.4,0 z" id="polygon8541" inkscape:connector-curvature="0" />
    <path class="layer1" style="fill:#fcaf3e;display:inline" d="m 232.6,758.3 -47.7,-47.7 0,-40.8 47.7,-47.7 0,136.2 z m 471.7,0 -47.7,-47.7 0,-40.8 47.7,-47.7 0,136.2 z m -562,-88.5 67.3,-598 20.7,194.2 -35.3,356.1 -52.7,47.7 z m 476.5,0 L 529.5,47.7 570.9,0 660.1,622.1 618.8,669.8 z M 404.9,564.8 368.8,527.1 508.6,77.1 488.5,271.5 404.9,564.8 z M 354.7,547.3 235.3,47.7 273,0 l 81.7,342.1 0,205.2 z" id="polygon8545" inkscape:connector-curvature="0" />
    <path class="layer4" style="fill:#8ae234;display:inline" d="m 0.4687,758.3 0,-136.2 47.7213,47.7 0,40.8 -47.7213,47.7 z m 479.2313,0 0,-136.2 47.7,47.7 0,40.8 -47.7,47.7 z M 87.72,669.8 46.53,622.1 138.6,0 179.8,47.7 87.72,669.8 z m 494.38,0 -53.5,-47.7 -40.1,-350.6 20.1,-194.4 73.5,592.7 z M 306.6,564.8 230.3,266 209.6,71.8 l 134,455.3 -37,37.7 z m 48.1,-17.5 0,-205.2 L 436.5,0 474.1,47.7 354.7,547.3 z" id="polygon8553" inkscape:connector-curvature="0" />
    <path class="layer2" style="fill:#fce94f;display:inline" d="m 0.4687,758.3 47.7213,-47.7 136.71,0 47.7,47.7 -232.1313,0 z m 479.2313,0 47.7,-47.7 129.2,0 47.7,47.7 -224.6,0 z m -173.1,-193.5 37,-37.7 25.2,0 36.1,37.7 -98.3,0 z" id="polygon8585" inkscape:connector-curvature="0" />
    <path class="plateau" style="fill:#ad7fa8;display:inline" d="m 527.4,669.8 0,40.8 129.2,0 0,-40.8 -37.8,0 -89.3,-622.1 -55.4,0 -119.4,479.6 -119.4,-479.6 -55.5,0 -92.09,622.1 -39.51,0 0,40.8 136.7,0 0,-40.8 -42.6,0 67.3,-598 134,455.3 25.3,0 139.6,-450 73.6,592.7 z" id="polygon8601" inkscape:connector-curvature="0" sodipodi:nodetypes="cccccccccccccccccccccc" />
  </g>
  <g display="none" inkscape:groupmode="layer" transform="matrix(1,0,0,-1,0,1024)" inkscape:label="V" id="V" style="display:inline">
    <rect class="charwidth" y="-256" style="fill:#ffc0ff" width="96" height="1280" x="512" id="rect1055" />
    <path class="base" style="fill:#ef2929;display:inline" d="m -0.8438,758.3 0,-134.4 33.8138,0 L 163.6,0 l 136.2,0 130.7,623.9 43.2,0 0,134.4 -217.1,0 0,-134.4 37.6,0 -58.3,-377.7 -55.4,377.7 35.7,0 0,134.4 -217.0438,0 z" id="path8465" inkscape:connector-curvature="0" />
    <path class="layer1" style="fill:#fcaf3e;display:inline" d="m 216.2,758.3 -47.7,-47.7 0,-38.9 47.7,-47.8 0,134.4 z m 257.5,0 -47.8,-47.7 0,-38.9 47.8,-47.8 0,134.4 z M 125.2,671.7 234.8,65.6 l 1.1,180.6 -55.4,377.7 -55.3,47.8 z m 266.5,0 L 261.1,47.7 299.8,0 430.5,623.9 391.7,671.7 z" id="polygon8469" inkscape:connector-curvature="0" />
    <path class="layer3" style="fill:#2e3436;display:inline" d="m 46.88,671.7 -47.7238,-47.8 33.8138,0 38.78,47.8 -24.87,0 z m 78.32,0 55.3,-47.8 35.7,0 -47.7,47.8 -43.3,0 z m 179.1,0 -47.7,-47.8 37.6,0 55.6,47.8 -45.5,0 z m 87.4,0 38.8,-47.8 43.2,0 -47.8,47.8 -34.2,0 z M 202.3,47.7 163.6,0 l 136.2,0 -38.7,47.7 -58.8,0 z" id="polygon8473" inkscape:connector-curvature="0" />
    <path class="layer4" style="fill:#8ae234;display:inline" d="m -0.8438,758.3 0,-134.4 47.7238,47.8 0,38.9 -47.7238,47.7 z m 257.4438,0 0,-134.4 47.7,47.8 0,38.9 -47.7,47.7 z M 71.75,671.7 32.97,623.9 163.6,0 202.3,47.7 71.75,671.7 z m 278.05,0 -55.6,-47.8 -58.3,-377.7 -1.1,-180.6 115,606.1 z" id="polygon8485" inkscape:connector-curvature="0" />
    <path class="plateau" style="fill:#ad7fa8;display:inline" d="m 125.2,671.7 109.6,-606.1 115,606.1 -45.5,0 0,38.9 121.6,0 0,-38.9 -34.2,0 -130.6,-624 -58.8,0 -130.56,624 -24.88,0 0,38.9 121.64,0 0,-38.9 z" id="polygon8505" inkscape:connector-curvature="0" sodipodi:nodetypes="cccccccccccccccc" />
    <path class="layer2" style="fill:#fce94f;display:inline" d="m -0.8438,758.3 47.7238,-47.7 121.62,0 47.7,47.7 -217.0438,0 z m 257.4438,0 47.7,-47.7 121.6,0 47.8,47.7 -217.1,0 z" id="polygon8525" inkscape:connector-curvature="0" />
  </g>
  <g display="none" inkscape:groupmode="layer" transform="matrix(1,0,0,-1,0,1024)" inkscape:label="U" id="U" style="display:inline">
    <rect class="charwidth" y="-256" style="fill:#ffc0ff" width="96" height="1280" x="466.8" id="rect1058" />
    <path class="base" style="fill:#ef2929;display:inline" d="m 0.25,758.3 0,-130.6 41.31,0 0,-545 80.84,-82.7 222.7,0 81.7,82.9 0,544.8 39.5,0 0,130.6 -203.9,0 0,-130.6 36.7,0 0,-491.4 -129.7,0 0,491.4 34.8,0 0,130.6 -203.95,0 z" id="path8385-9" inkscape:connector-curvature="0" />
    <path class="layer1" style="fill:#fcaf3e;display:inline" d="m 204.2,758.3 -47.8,-47.7 0,-35.2 47.8,-47.7 0,130.6 z m 262.1,0 -47.7,-47.7 0,-35.2 47.7,-47.7 0,130.6 z m -344.6,-82.9 0,-586.9 47.7,47.8 0,491.4 -47.7,47.7 z m 257.4,0 0,-572.9 47.7,-19.6 0,544.8 -47.7,47.7 z" id="polygon8389-0" inkscape:connector-curvature="0" />
    <path class="layer3" style="fill:#2e3436;display:inline" d="m 47.97,675.4 -47.72,-47.7 41.31,0 47.72,47.7 -41.31,0 z m 73.73,0 47.7,-47.7 34.8,0 -47.8,47.7 -34.7,0 z m 188.4,0 -47.7,-47.7 36.7,0 47.7,47.7 -36.7,0 z m 69,0 47.7,-47.7 39.5,0 -47.7,47.7 -39.5,0 z m 0,-572.9 -54,-54.8 -182.6,0 -20.1,-47.7 222.7,0 81.7,82.9 -47.7,19.6 z" id="polygon8393-2" inkscape:connector-curvature="0" />
    <path class="layer4" style="fill:#8ae234;display:inline" d="m 0.25,758.3 0,-130.6 47.72,47.7 0,35.2 -47.72,47.7 z m 262.15,0 0,-130.6 47.7,47.7 0,35.2 -47.7,47.7 z M 89.28,675.4 41.56,627.7 l 0,-545 80.84,-82.7 20.1,47.7 -53.22,54.4 0,573.3 z m 257.52,0 -47.7,-47.7 0,-491.4 47.7,-47.8 0,586.9 z" id="polygon8409-0" inkscape:connector-curvature="0" />
    <path class="plateau" style="fill:#ad7fa8;display:inline" d="m 325.1,47.7 -182.6,0 -53.21,54.4 0,573.3 -41.32,0 0,35.2 108.43,0 0,-35.2 -34.7,0 0,-586.9 225.1,0 0,586.9 -36.7,0 0,35.2 108.5,0 0,-35.2 -39.5,0 0,-572.9 z" id="polygon8425-9" inkscape:connector-curvature="0" />
    <path class="layer2" style="fill:#fce94f;display:inline" d="m 0.25,758.3 47.72,-47.7 108.43,0 47.8,47.7 -203.95,0 z m 262.15,0 47.7,-47.7 108.5,0 47.7,47.7 -203.9,0 z m -93,-622 -47.7,-47.8 225.1,0 -47.7,47.8 -129.7,0 z" id="polygon8441-2" inkscape:connector-curvature="0" />
  </g>
  <g display="none" inkscape:groupmode="layer" transform="matrix(1,0,0,-1,0,1024)" inkscape:label="T" id="T" style="display:inline">
    <rect class="charwidth" y="-256" style="fill:#ffc0ff" width="96" height="1280" x="512" id="rect1061" />
    <path class="base" style="fill:#ef2929;display:inline" d="m -0.5312,755.5 0,-222.7 122.2312,0 0,91.1 47.9,0 0,-491.4 -49.8,0 0,-132.5 252.8,0 0,132.5 -52.7,0 0,491.4 48,0 0,-91.1 122.1,0 0,222.7 -490.5312,0 z" id="path8309" inkscape:connector-curvature="0" />
    <path class="layer3" style="fill:#2e3436;display:inline" d="m 73.94,671.7 47.76,-47.8 47.9,0 47.7,47.8 -143.36,0 z m 198.26,0 47.7,-47.8 48,0 47.7,47.8 -143.4,0 z M 47.19,580.5 -0.5312,532.8 l 122.2312,0 -47.76,47.7 -26.75,0 z m 368.41,0 -47.7,-47.7 122.1,0 -47.7,47.7 -26.7,0 z M 167.5,47.7 119.8,0 l 252.8,0 -47.8,47.7 -157.3,0 z" id="polygon8317" inkscape:connector-curvature="0" />
    <path class="layer4" style="fill:#8ae234;display:inline" d="m -0.5312,755.5 0,-222.7 47.7212,47.7 0,127.3 -47.7212,47.7 z M 217.3,671.7 l -47.7,-47.8 0,-491.4 47.7,-47.7 0,586.9 z m 198.3,0 -47.7,-47.8 0,-91.1 47.7,47.7 0,91.2 z M 119.8,132.5 119.8,0 l 47.7,47.7 0,37.1 -47.7,47.7 z" id="polygon8321" inkscape:connector-curvature="0" />
    <path class="layer1" style="fill:#fcaf3e;display:inline" d="m 490,755.5 -47.7,-47.7 0,-127.3 47.7,-47.7 0,222.7 z m -416.06,-83.8 0,-91.2 47.76,-47.7 0,91.1 -47.76,47.8 z m 198.26,0 0,-586.9 47.7,47.7 0,491.4 -47.7,47.8 z m 100.4,-539.2 -47.8,-47.7 0,-37.1 47.8,-47.7 0,132.5 z" id="polygon8329" inkscape:connector-curvature="0" />
    <path class="layer2" style="fill:#fce94f;display:inline" d="m -0.5312,755.5 47.7212,-47.7 395.11,0 47.7,47.7 -490.5312,0 z m 120.3312,-623 47.7,-47.7 49.8,0 -47.7,47.7 -49.8,0 z m 200.1,0 -47.7,-47.7 52.6,0 47.8,47.7 -52.7,0 z" id="polygon8333" inkscape:connector-curvature="0" />
    <path class="plateau" style="fill:#ad7fa8;display:inline" d="m 167.5,47.7 0,37.1 49.8,0 0,586.9 -143.37,0 0,-91.2 -26.73,0 0,127.3 395.1,0 0,-127.3 -26.7,0 0,91.2 -143.4,0 0,-586.9 52.6,0 0,-37.1 z" id="polygon8345" inkscape:connector-curvature="0" />
  </g>
  <g display="none" inkscape:groupmode="layer" transform="matrix(1,0,0,-1,0,1024)" inkscape:label="S" id="S" style="display:inline">
    <rect class="charwidth" y="-256" style="fill:#ffc0ff" width="96" height="1280" x="472" id="rect1064" />
    <path class="base" style="fill:#ef2929;display:inline" d="m 69.5,758.3 -69.5312,-66.8 0,-307 71.2212,-69.7 248.21,0 0,-183.2 -171,0 0,92.1 -148.4312,0 0,-142.9 L 81.72,0 395.6,0 l 72.3,71.4 0,310.1 -69.5,69.5 -250,0 0,171.1 171,0 0,-87.4 151.4,0 0,146.2 -78,77.4 -323.3,0 z" id="path8201" inkscape:connector-curvature="0" />
    <path class="layer4" style="fill:#8ae234;display:inline" d="m -0.0312,691.5 0,-307 71.2212,-69.7 19.47,47.7 -42.97,42 0,266.7 -47.7212,20.3 z M 367.2,669.8 l -47.8,-47.7 0,-87.4 47.8,47.7 0,87.4 z m 0,-307.3 -47.8,-47.7 0,-183.2 47.8,-47.8 0,278.7 z M -0.0312,223.7 -0.0312,80.8 81.72,0 l 19.58,47.7 -53.61,53.1 0,75.1 -47.7212,47.8 z" id="polygon8217" inkscape:connector-curvature="0" />
    <path class="layer3" style="fill:#2e3436;display:inline" d="m 100.7,669.8 47.7,-47.7 171,0 47.8,47.7 -266.5,0 z m 266.5,-87.4 -47.8,-47.7 151.4,0 -47.8,47.7 -55.8,0 z M 90.66,362.5 71.19,314.8 l 248.21,0 47.8,47.7 -276.54,0 z M 420.2,91.4 376,47.7 101.3,47.7 81.72,0 395.6,0 l 72.3,71.4 -47.7,20 z" id="polygon8221" inkscape:connector-curvature="0" />
    <path class="layer1" style="fill:#fcaf3e;display:inline" d="m 392.8,758.3 -19.7,-47.7 49.9,-49.5 0,-78.7 47.8,-47.7 0,146.2 -78,77.4 z m -292.1,-88.5 0,-266.5 47.7,47.7 0,171.1 -47.7,47.7 z M 398.4,451 l -19.8,-47.7 41.6,-41.6 0,-270.3 47.7,-20 0,310.1 -69.5,69.5 z" id="polygon8225" inkscape:connector-curvature="0" />
    <path class="layer2" style="fill:#fce94f;display:inline" d="M 69.5,758.3 -0.0312,691.5 47.69,671.2 l 41.03,39.4 284.38,0 19.7,47.7 -323.3,0 z m 78.9,-307.3 -47.7,-47.7 277.9,0 19.8,47.7 -250,0 z M -0.0312,223.7 47.69,175.9 l 53.01,0 47.7,47.8 -148.4312,0 z M 148.4,131.6 100.7,83.8 l 266.5,0 -47.8,47.8 -171,0 z" id="polygon8229" inkscape:connector-curvature="0" />
    <path class="plateau" style="fill:#ad7fa8;display:inline" d="m 90.65,362.5 -42.96,42 0,266.6 41.04,39.5 284.37,0 49.9,-49.5 0,-78.7 -55.8,0 0,87.4 -266.5,0 0,-266.5 277.9,0 41.6,-41.6 0,-270.3 -44.2,-43.7 -274.7,0 -53.61,53 0,75.2 53.01,0 0,-92.1 266.5,0 0,278.7 z" id="polygon8253" inkscape:connector-curvature="0" />
  </g>
  <g display="none" inkscape:groupmode="layer" transform="matrix(1,0,0,-1,0,1024)" inkscape:label="R" id="R" style="display:inline">
    <rect class="charwidth" y="-256" style="fill:#ffc0ff" width="96" height="1280" x="512" id="rect1067" />
    <path class="base" style="fill:#ef2929;display:inline" d="m -0.2812,758.3 0,-136.2 53.5612,0 0,-489.6 -53.5612,0 0,-132.5 256.5812,0 0,132.5 -48,0 0,176.7 6.6,0 94,-176.7 -31.1,0 0,-132.5 212.5,0 0,132.5 -28.2,0 -102.5,182.3 47,0 79.9,77 0,281.9 -71.6,84.6 -415.1812,0 z M 208.3,622.1 l 121.3,0 0,-171.1 -121.3,0 0,171.1 z" id="path8069" inkscape:connector-curvature="0" />
    <path class="layer4" style="fill:#8ae234;display:inline" d="m -0.2812,758.3 0,-136.2 47.7212,47.7 0,40.8 -47.7212,47.7 z M 101,669.8 53.28,622.1 l 0,-489.6 47.72,-47.7 0,585 z m 276.3,0 -47.7,-47.7 0,-171.1 47.7,-47.7 0,266.5 z M 243.6,356.9 214.9,309.2 308.9,132.5 388.3,84.8 243.6,356.9 z M -0.2812,132.5 -0.2812,0 47.44,47.7 l 0,37.1 -47.7212,47.7 z m 278.0812,0 0,-132.5 47.8,47.7 0,37.1 -47.8,47.7 z" id="polygon8093" inkscape:connector-curvature="0" />
    <path class="layer3" style="fill:#2e3436;display:inline" d="m 47.44,669.8 -47.7212,-47.7 53.5612,0 47.72,47.7 -53.56,0 z m 113.16,0 47.7,-47.7 121.3,0 47.7,47.7 -216.7,0 z m 278.2,-257.7 -51.5,-49.6 -109.2,0 81.5,-47.7 47,0 79.9,77 -47.7,20.3 z m -278.2,-55.2 47.7,-47.7 6.6,0 28.7,47.7 -83,0 z M 47.44,47.7 -0.2812,0 256.3,0 208.5,47.7 47.44,47.7 z m 278.16,0 -47.8,-47.7 212.5,0 -47.8,47.7 -116.9,0 z" id="polygon8097" inkscape:connector-curvature="0" />
    <path class="layer1" style="fill:#fcaf3e;display:inline" d="m 414.9,758.3 -22.1,-47.7 46,-54.3 0,-244.2 47.7,-20.3 0,281.9 -71.6,84.6 z m -254.3,-88.5 0,-266.5 47.7,47.7 0,171.1 -47.7,47.7 z M 278.1,362.5 434.2,84.8 l 27.9,47.7 -102.5,182.3 -81.5,47.7 z m -117.5,-5.6 0,-272.1 47.7,47.7 0,176.7 -47.7,47.7 z m 95.7,-224.4 -47.8,-47.7 0,-37.1 47.8,-47.7 0,132.5 z m 234,0 -47.8,-47.7 0,-37.1 47.8,-47.7 0,132.5 z" id="polygon8101" inkscape:connector-curvature="0" />
    <path class="layer2" style="fill:#fce94f;display:inline" d="m -0.2812,758.3 47.7212,-47.7 345.36,0 22.1,47.7 -415.1812,0 z M 208.3,451 l -47.7,-47.7 216.7,0 -47.7,47.7 -121.3,0 z M -0.2812,132.5 47.44,84.8 l 53.56,0 -47.72,47.7 -53.5612,0 z m 208.5812,0 -47.7,-47.7 47.9,0 47.8,47.7 -48,0 z m 69.5,0 47.8,-47.7 62.7,0 -79.4,47.7 -31.1,0 z m 184.3,0 -27.9,-47.7 8.3,0 47.8,47.7 -28.2,0 z" id="polygon8105" inkscape:connector-curvature="0" />
    <path id="path8149" d="m 434.1,84.8 h 8.4 V 47.7 H 325.6 v 37.1 h 62.7 L 243.6,356.9 h -83 V 84.8 h 47.9 V 47.7 H 47.45 V 84.8 H 101 v 585 H 47.45 v 40.8 H 392.8 l 46,-54.3 V 412.1 L 387.3,362.5 H 278.1 L 434.1,84.8 z M 377.3,403.3 V 669.8 H 160.6 V 403.3 h 216.7" class="plateau" style="fill:#ad7fa8;display:inline" inkscape:connector-curvature="0" />
  </g>
  <g display="none" inkscape:groupmode="layer" transform="matrix(1,0,0,-1,0,1024)" inkscape:label="Q" id="Q" style="display:inline">
    <rect class="charwidth" y="-256" style="fill:#ffc0ff" width="96" height="1280" x="462" id="rect1070" />
    <path class="layer1" style="fill:#fcaf3e;display:inline" d="m 396.3,758.3 -19.6,-47.7 42.4,-41.7 0,-594 47.7,-19.5 0,633.4 -70.5,69.5 z m -295.8,-88.5 0,-585 47.7,47.7 0,489.6 -47.7,47.7 z M 354.6,9.4 373.5,-29.34 449.9,-77.06 412.3,0 354.6,9.4 z" id="polygon7993" inkscape:connector-curvature="0" />
    <path class="layer3" style="fill:#2e3436;display:inline" d="m 100.5,669.8 47.7,-47.7 176.7,0 47.7,47.7 -272.1,0 z M 419.1,74.9 354.6,9.4 412.3,0 466.8,55.4 419.1,74.9 z M 91.69,47.7 72.12,0 276,0 l 29.8,47.7 -214.11,0 z m 251.71,-77.04 -29.8,-47.72 136.3,0 -76.4,47.72 -30.1,0 z" id="polygon7997" inkscape:connector-curvature="0" />
    <path class="layer4" style="fill:#8ae234;display:inline" d="m -0.2187,685.1 0,-613.8 L 72.12,0 91.69,47.7 47.5,91.3 l 0,574.2 -47.7187,19.6 z M 372.6,669.8 l -47.7,-47.7 1,-466.8 46.7,-67.3 0,581.8 z M 305.8,47.7 276,0 l 37.6,-77.06 29.8,47.72 -37.6,77.04 z" id="polygon8001" inkscape:connector-curvature="0" />
    <path class="layer2" style="fill:#fce94f;display:inline" d="M 72.12,758.3 -0.2187,685.1 47.5,665.5 l 44.56,45.1 284.64,0 19.6,47.7 -324.18,0 z M 297.8,239.6 189.6,187 l 58.3,-24.7 21.6,10.5 28.3,66.8 z m 28.3,-84.7 6.1,-66.9 40.7,-0.3 -46.8,67.2 z m -177.9,-22.4 -47.7,-47.7 172.8,0 -65.9,47.7 -59.2,0 z" id="polygon8017" inkscape:connector-curvature="0" />
    <path id="path8057" d="m 419.1,668.9 0,-594 -64.5,-65.5 18.9,-38.75 -30.1,0 -37.6,77.05 -214.11,0 -44.2,43.6 0,574.2 44.56,45.1 284.65,0 z M 372.6,88 l 0,581.8 -272.1,0 0,-585 172.8,0 -25.4,77.5 21.6,10.5 63.1,-84.8" class="plateau" style="fill:#ad7fa8;display:inline" inkscape:connector-curvature="0" sodipodi:nodetypes="cccccccccccccccccccc" />
  </g>
  <g display="none" inkscape:groupmode="layer" transform="matrix(1,0,0,-1,0,1024)" inkscape:label="P" id="P" style="display:inline">
    <rect class="charwidth" y="-256" style="fill:#ffc0ff" width="96" height="1280" x="462" id="rect1073" />
    <path class="base" style="fill:#ef2929;display:inline" d="m 0.5625,758.3 0,-136.2 52.5975,0 0,-488.7 -52.5975,0 0,-133.4 261.2375,0 0.9,133.4 -54.5,0 -0.9,187 179.5,0 77,78.8 0,285 -73,74.1 -390.2375,0 z M 205.4,622.1 l 99.6,0 0,-165.4 -99.6,0 0,165.4 z" id="path7893" inkscape:connector-curvature="0" />
    <path class="layer3" style="fill:#2e3436;display:inline" d="m 48.28,669.8 -47.7175,-47.7 52.5975,0 47.74,47.7 -52.62,0 z m 109.42,0 47.7,-47.7 99.6,0 47.8,47.7 -195.1,0 z m 258.4,-251.2 -49.4,-50.5 -207.4,0 48,-47.7 179.5,0 77,78.8 -47.7,19.4 z M 48.28,47.7 0.5625,0 261.8,0 214.4,47.7 48.28,47.7 z" id="polygon7905" inkscape:connector-curvature="0" />
    <path class="layer1" style="fill:#fcaf3e;display:inline" d="m 390.8,758.3 -20,-47.7 45.3,-45.9 0,-246.1 47.7,-19.4 0,285 -73,74.1 z m -233.1,-88.5 0,-260.8 47.7,47.7 0,165.4 -47.7,47.7 z m 1.6,-301.7 1.5,-282.4 47.4,47.7 -0.9,187 -48,47.7 z m 103.4,-234.7 -48,-47.7 -0.3,-38 47.4,-47.7 0.9,133.4 z" id="polygon7913" inkscape:connector-curvature="0" />
    <path class="layer2" style="fill:#fce94f;display:inline" d="m 0.5625,758.3 47.7175,-47.7 322.52,0 20,47.7 -390.2375,0 z M 205.4,456.7 157.7,409 l 195.1,0 -47.8,47.7 -99.6,0 z M 0.5625,133.4 48.28,85.7 l 52.62,0 -47.74,47.7 -52.5975,0 z m 207.6375,0 -47.4,-47.7 53.9,0 48,47.7 -54.5,0 z" id="polygon7917" inkscape:connector-curvature="0" />
    <path class="layer4" style="fill:#8ae234;display:inline" d="m 0.5625,758.3 0,-136.2 47.7175,47.7 0,40.8 -47.7175,47.7 z M 100.9,669.8 53.16,622.1 l 0,-488.7 47.74,-47.7 0,584.1 z m 251.9,0 -47.8,-47.7 0,-165.4 47.8,-47.7 0,260.8 z M 0.5625,133.4 0.5625,0 48.28,47.7 l 0,38 -47.7175,47.7 z" id="polygon7929" inkscape:connector-curvature="0" />
    <path id="path7953" d="m 370.8,710.6 45.3,-45.9 V 418.6 L 366.7,368.1 H 159.3 l 1.4,-282.4 h 54 l -0.3,-38 H 48.28 v 38 H 100.9 V 669.8 H 48.28 v 40.8 H 370.8 z M 352.7,409 v 260.8 h -195 V 409 h 195" class="plateau" style="fill:#ad7fa8;display:inline" inkscape:connector-curvature="0" />
  </g>
  <g display="none" inkscape:groupmode="layer" transform="matrix(1,0,0,-1,0,1024)" inkscape:label="O" id="O" style="display:inline">
    <rect class="charwidth" y="-256" style="fill:#ffc0ff" width="96" height="1280" x="454.8" id="rect1076" />
    <path inkscape:connector-curvature="0" class="base" style="fill:#ef2929;display:inline" d="M 71.91,758.3 -0.4375,685.1 -0.4375,61 60.66,0 385.8,0 l 69.5,70.4 0,617.5 -71.4,70.4 -311.99,0 z M 148,622.1 l 158.8,0 0,-490.5 -158.8,0 0,490.5 z" id="path7837-0" />
    <path inkscape:connector-curvature="0" class="layer1" style="fill:#fcaf3e;display:inline" d="m 383.9,758.3 -19.6,-47.7 43.3,-42.6 0,-578 47.7,-19.6 0,617.5 -71.4,70.4 z m -283.6,-88.5 0,-586 47.7,47.8 0,490.5 -47.7,47.7 z" id="polygon7841-0" />
    <path inkscape:connector-curvature="0" class="layer3" style="fill:#2e3436;display:inline" d="m 100.3,669.8 47.7,-47.7 158.8,0 47.7,47.7 -254.2,0 z M 407.6,90 365.8,47.7 80.41,47.7 60.66,0 385.8,0 455.3,70.4 407.6,90 z" id="polygon7849-9" />
    <path class="layer4" style="fill:#8ae234;display:inline" d="M -0.4375,685.1 -0.4375,61 60.66,0 80.41,47.7 47.28,80.8 l 0,584.7 -47.7175,19.6 z M 354.5,669.8 l -47.7,-47.7 0,-490.5 47.7,-47.8 0,586 z" id="polygon7857-3" inkscape:connector-curvature="0" />
    <path inkscape:connector-curvature="0" class="layer2" style="fill:#fce94f;display:inline" d="M 71.91,758.3 -0.4375,685.1 47.28,665.5 l 44.56,45.1 272.46,0 19.6,47.7 -311.99,0 z M 148,131.6 100.3,83.8 l 254.2,0 -47.7,47.8 -158.8,0 z" id="polygon7877-9" />
    <path id="path7881-1" d="M 364.3,710.6 407.6,668 V 90 L 365.8,47.7 H 80.39 L 47.28,80.8 v 584.7 l 44.56,45.1 H 364.3 z M 354.5,83.8 v 586 H 100.3 v -586 h 254.2" class="plateau" style="fill:#ad7fa8;display:inline" inkscape:connector-curvature="0" />
  </g>
  <g display="none" inkscape:groupmode="layer" transform="matrix(1,0,0,-1,0,1024)" inkscape:label="N" id="N" style="display:inline">
    <rect class="charwidth" y="-256" style="fill:#ffc0ff" width="96" height="1280" x="532" id="rect1079" />
    <path class="base" style="fill:#ef2929;display:inline" d="m 0.875,758.3 0,-132.5 56.405,0 0,-489.5 -56.405,0 0,-136.3 249.025,0 0,136.3 -46.1,0 0,251.8 126,-388.1 204.8,0 0,136.3 -53.5,0 0,489.5 53.5,0 0,132.5 -259.3,0 0,-129.7 53.5,0 0,-194.5 -109.3,324.2 -218.625,0 z" id="path7733" inkscape:connector-curvature="0" />
    <path class="layer1" style="fill:#fcaf3e;display:inline" d="M 219.5,758.3 185.3,710.6 376.5,143.2 328.8,434.1 219.5,758.3 z m 315.1,0 -47.7,-47.7 0,-37.1 47.7,-47.7 0,132.5 z m -378.5,-68.6 0,-601.2 47.7,47.8 0,251.8 -47.7,301.6 z m 277.2,-16.2 0,-585 47.8,47.8 0,489.5 -47.8,47.7 z M 249.9,136.3 202.2,88.5 l 0,-40.8 47.7,-47.7 0,136.3 z m 284.7,0 -47.7,-47.8 0,-40.8 47.7,-47.7 0,136.3 z" id="polygon7745" inkscape:connector-curvature="0" />
    <path class="layer2" style="fill:#fce94f;display:inline" d="m 0.875,758.3 47.715,-47.7 136.71,0 34.2,47.7 -218.625,0 z m 274.425,0 47.7,-47.7 163.9,0 47.7,47.7 -259.3,0 z M 0.875,136.3 48.59,88.5 l 56.41,0 -47.72,47.8 -56.405,0 z m 202.925,0 -47.7,-47.8 46.1,0 47.7,47.8 -46.1,0 z m 277.3,0 -47.8,-47.8 53.6,0 47.7,47.8 -53.5,0 z" id="polygon7749" inkscape:connector-curvature="0" />
    <path class="layer3" style="fill:#2e3436;display:inline" d="m 323,676.3 -47.7,-47.7 53.5,0 47.7,47.7 -53.5,0 z M 48.59,673.5 0.875,625.8 l 56.405,0 47.72,47.7 -56.41,0 z m 384.71,0 47.8,-47.7 53.5,0 -47.7,47.7 -53.6,0 z M 48.59,47.7 0.875,0 249.9,0 202.2,47.7 48.59,47.7 z m 315.91,0 -34.7,-47.7 204.8,0 -47.7,47.7 -122.4,0 z" id="polygon7757" inkscape:connector-curvature="0" />
    <path class="layer4" style="fill:#8ae234;display:inline" d="m 0.875,758.3 0,-132.5 47.715,47.7 0,37.1 -47.715,47.7 z m 274.425,0 0,-129.7 47.7,47.7 0,34.3 -47.7,47.7 z M 156.1,689.7 203.8,388.1 329.8,0 l 34.7,47.7 -208.4,642 z m 220.4,-13.4 -47.7,-47.7 0,-194.5 47.7,-290.9 0,533.1 z M 105,673.5 57.28,625.8 l 0,-489.5 47.72,-47.8 0,585 z M 0.875,136.3 0.875,0 48.59,47.7 l 0,40.8 -47.715,47.8 z" id="polygon7761" inkscape:connector-curvature="0" />
    <path class="plateau" style="fill:#ad7fa8;display:inline" d="m 376.5,143.2 0,533.1 -53.5,0 0,34.3 163.9,0 0,-37.1 -53.6,0 0,-585 53.6,0 0,-40.8 -122.4,0 -208.4,642 0,-601.2 46.1,0 0,-40.8 -153.6,0 0,40.8 56.4,0 0,585 -56.4,0 0,37.1 136.7,0 z" id="polygon7785" inkscape:connector-curvature="0" />
  </g>
  <g display="none" inkscape:groupmode="layer" transform="matrix(1,0,0,-1,0,1024)" inkscape:label="M" id="M" style="display:inline">
    <rect class="charwidth" y="-256" style="fill:#ffc0ff" width="96" height="1280" x="742" id="rect1082" />
    <path class="base" style="fill:#ef2929;display:inline" d="m 160.8,759.7 0,-1.4 -161.8,0 0,-136.2 54.5,0 0,-488.7 -54.5,0 0,-133.4 257.5,0 0,133.4 -48,0 0,279.1 L 324.1,0 l 58.1,0 0.2,-1 0.2,1 41.1,0 117.5,412.5 0,-279.1 -39.5,0 0,-133.4 238.7,0 0,133.4 -45.1,0 0,488.7 45.1,0 0,136.2 -263.4,0 -96.6,-512.1 -104.9,512.1 -114.3,0 -0.4,1.4 z" id="path7609" inkscape:connector-curvature="0" />
    <path class="layer1" style="fill:#fcaf3e;display:inline" d="M 275.5,758.3 236.6,710.6 382.4,59 l -2,187.2 -104.9,512.1 z m 464.9,0 -47.7,-47.7 0,-40.8 47.7,-47.7 0,136.2 z m -579.6,-48.6 0,-624 47.7,47.7 0,279.1 -47.7,297.2 z m 486.8,-39.9 0,-584.1 47.7,47.7 0,488.7 -47.7,47.7 z M 256.5,133.4 208.8,85.7 l 0,-38 47.7,-47.7 0,133.4 z m 483.9,0 -47.7,-47.7 0,-38 47.7,-47.7 0,133.4 z" id="path7302" inkscape:connector-curvature="0" />
    <path class="layer3" style="fill:#2e3436;display:inline" d="M 588.9,694.4 387.7,47.7 423.7,0 541.2,412.5 588.9,694.4 z" id="path7296" inkscape:connector-curvature="0" />
    <path class="layer3" style="fill:#2e3436;display:inline" d="M 46.72,669.8 -1,622.1 l 54.5,0 47.7,47.7 -54.48,0 z m 600.88,0 47.7,-47.7 45.1,0 -47.7,47.7 -45.1,0 z M 46.72,47.7 -1,0 256.5,0 208.8,47.7 46.72,47.7 z m 313.58,0 -36.2,-47.7 99.6,0 -36,47.7 -27.4,0 z m 189.1,0 -47.7,-47.7 238.7,0 -47.7,47.7 -143.3,0 z" id="polygon7633" inkscape:connector-curvature="0" />
    <path class="layer4" style="fill:#8ae234;display:inline" d="m -1,758.3 0,-136.2 47.72,47.7 0,40.8 L -1,758.3 z M 160.8,709.7 208.5,412.5 324.1,0 l 36.2,47.7 -199.5,662 z m 428.1,-15.3 -47.7,-281.9 0,-279.1 47.7,-47.7 0,608.7 z m -487.7,-24.6 -47.7,-47.7 0,-488.7 47.7,-47.7 0,584.1 z M -1,133.4 -1,0 l 47.72,47.7 0,38 L -1,133.4 z m 502.7,0 0,-133.4 47.7,47.7 0,38 -47.7,47.7 z" id="path7288" inkscape:connector-curvature="0" />
    <path class="layer2" style="fill:#fce94f;display:inline" d="m -1,758.3 47.72,-47.7 189.88,0 38.9,47.7 -276.5,0 z m 478,0 -96.6,-512.1 2,-187.2 134.2,651.6 176.1,0 47.7,47.7 -263.4,0 z M -1,133.4 46.72,85.7 l 54.48,0 -47.7,47.7 -54.5,0 z m 209.5,0 -47.7,-47.7 48,0 47.7,47.7 -48,0 z m 293.2,0 47.7,-47.7 39.5,0 -47.7,47.7 -39.5,0 z m 193.6,0 -47.7,-47.7 45.1,0 47.7,47.7 -45.1,0 z" id="path7286" inkscape:connector-curvature="0" />
    <path class="plateau" style="fill:#ad7fa8;display:inline" d="m 208.7,47.7 -161.99,0 0,38 54.49,0 0,584.1 -54.49,0 0,40.8 189.89,0 145.8,-651.6 134.2,651.6 176.1,0 0,-40.8 -45.1,0 0,-584.1 45.1,0 0,-38 -143.3,0 0,38 39.5,0 0,605.6 -201.2,-643.6 -27.4,0 -199.5,662 0,-624 47.9,0 z" id="polygon7685" inkscape:connector-curvature="0" sodipodi:nodetypes="cccccccccccccccccccccccccc" />
  </g>
  <g display="none" inkscape:groupmode="layer" transform="matrix(1,0,0,-1,0,1024)" inkscape:label="L" id="L" style="display:inline">
    <rect class="charwidth" y="-256" style="fill:#ffc0ff" width="96" height="1280" x="492" id="rect1085" />
    <path class="base" style="fill:#ef2929;display:inline" d="m -0.9375,758.3 0,-134.4 55.4375,0 0,-491.4 -55.4375,0 0,-132.5 489.5375,0 0,233 -143.8,0 0,-100.5 -141.9,0 0,491.4 52.7,0 0,134.4 -256.5375,0 z" id="path7537" inkscape:connector-curvature="0" />
    <path class="layer1" style="fill:#fcaf3e;display:inline" d="m 255.6,758.3 -47.8,-47.7 0,-38.9 47.8,-47.8 0,134.4 z m -100.3,-86.6 0,-586.9 47.6,47.7 0,491.4 -47.6,47.8 z M 488.6,233 440.9,185.3 440.9,47.7 488.6,0 l 0,233 z" id="polygon7549" inkscape:connector-curvature="0" />
    <path class="layer2" style="fill:#fce94f;display:inline" d="m -0.9375,758.3 47.7175,-47.7 161.02,0 47.8,47.7 -256.5375,0 z M 344.8,233 l 47.8,-47.7 48.3,0 47.7,47.7 -143.8,0 z M -0.9375,132.5 46.78,84.8 l 55.42,0 -47.7,47.7 -55.4375,0 z m 203.8375,0 -47.6,-47.7 237.3,0 -47.8,47.7 -141.9,0 z" id="polygon7553" inkscape:connector-curvature="0" />
    <path class="layer4" style="fill:#8ae234;display:inline" d="m -0.9375,758.3 0,-134.4 47.7175,47.8 0,38.9 -47.7175,47.7 z M 102.2,671.7 54.5,623.9 l 0,-491.4 47.7,-47.7 0,586.9 z M 344.8,233 l 0,-100.5 47.8,-47.7 0,100.5 -47.8,47.7 z M -0.9375,132.5 -0.9375,0 46.78,47.7 l 0,37.1 -47.7175,47.7 z" id="polygon7557" inkscape:connector-curvature="0" />
    <path class="layer3" style="fill:#2e3436;display:inline" d="m 46.78,671.7 -47.7175,-47.8 55.4375,0 47.7,47.8 -55.42,0 z m 108.52,0 47.6,-47.8 52.7,0 -47.8,47.8 -52.5,0 z M 46.78,47.7 -0.9375,0 488.6,0 440.9,47.7 46.78,47.7 z" id="polygon7569" inkscape:connector-curvature="0" />
    <path class="plateau" style="fill:#ad7fa8;display:inline" d="m 46.78,671.7 0,38.9 161.12,0 0,-38.9 -52.7,0 0,-586.9 237.4,0 0,100.5 48.3,0 0,-137.6 -394.12,0 0,37.1 55.42,0 0,586.9 z" id="polygon7573" inkscape:connector-curvature="0" />
  </g>
  <g display="none" inkscape:groupmode="layer" transform="matrix(1,0,0,-1,0,1024)" inkscape:label="K" id="K" style="display:inline">
    <rect class="charwidth" y="-256" style="fill:#ffc0ff" width="96" height="1280" x="521.7" id="rect1088" />
    <path class="base" style="fill:#ef2929;display:inline" d="m -2.625,758.3 0,-134.4 54.535,0 0,-491.4 -54.535,0 L -1.687,0 253.9,0 l 0,132.5 -53.6,0 0,109 36.7,51.7 82.7,-160.7 -41.4,0 0,-132.5 243.4,0 0,132.5 -43.2,0 -158.8,275.8 162.6,215.6 39.4,0 0,134.4 -243.4,0 0,-134.4 39.5,0 -117.5,-152.2 0,152.2 53.6,0 0,134.4 -256.525,0 z" id="path7397" inkscape:connector-curvature="0" />
    <path class="layer1" style="fill:#fcaf3e;display:inline" d="m 253.9,758.3 -47.7,-47.7 0,-38.9 47.7,-47.8 0,134.4 z m 267.8,0 -47.7,-47.7 0,-38.9 47.7,-47.8 0,134.4 z m -369.1,-86.6 0,-339.9 47.7,139.9 0,152.2 -47.7,47.8 z m 305.9,0 -195.9,-259.8 188.3,-327.1 27.6,47.7 -158.8,275.8 162.6,215.6 -23.8,47.8 z m -215,-286.8 -90.9,-128.2 0,-171.9 47.7,47.7 0,109 36.7,51.7 6.5,91.7 z m 10.4,-252.4 -47.7,-47.7 0,-37.1 47.7,-47.7 0,132.5 z m 267.8,0 L 474,84.8 474,47.7 521.7,0 l 0,132.5 z" id="polygon7421" inkscape:connector-curvature="0" />
    <path class="layer3" style="fill:#2e3436;display:inline" d="m 45.09,671.7 -47.715,-47.8 54.535,0 47.71,47.8 -54.53,0 z m 107.51,0 47.7,-47.8 53.6,0 -47.7,47.8 -53.6,0 z m 173.5,0 -47.8,-47.8 39.5,0 97.1,47.8 -88.8,0 z m 132.4,0 23.8,-47.8 39.4,0 -47.7,47.8 -15.5,0 z M 45.69,47.7 -1.687,0 253.9,0 206.2,47.7 45.69,47.7 z M 326.1,47.7 278.3,0 521.7,0 474,47.7 l -147.9,0 z" id="polygon7425" inkscape:connector-curvature="0" />
    <path class="layer4" style="fill:#8ae234;display:inline" d="m -2.625,758.3 0,-134.4 47.715,47.8 0,38.9 -47.715,47.7 z m 280.925,0 0,-134.4 47.8,47.8 0,38.9 -47.8,47.7 z M 99.62,671.7 51.91,623.9 l 0,-491.4 47.71,-47.7 0,586.9 z m 315.28,0 L 317.8,623.9 200.3,471.7 152.6,331.8 414.9,671.7 z M -2.625,132.5 -1.687,0 45.69,47.7 45.44,84.8 -2.625,132.5 z m 280.925,0 0,-132.5 47.8,47.7 0,37.1 -47.8,47.7 z" id="polygon7429" inkscape:connector-curvature="0" />
    <path class="layer2" style="fill:#fce94f;display:inline" d="m -2.625,758.3 47.715,-47.7 161.11,0 47.7,47.7 -256.525,0 z m 280.925,0 47.8,-47.7 147.9,0 47.7,47.7 -243.4,0 z M -2.625,132.5 45.44,84.8 l 54.18,0 -47.71,47.7 -54.535,0 z m 202.925,0 -47.7,-47.7 53.6,0 47.7,47.7 -53.6,0 z m 78,0 47.8,-47.7 71.8,0 -78.2,47.7 -41.4,0 z m 200.2,0 -27.6,-47.7 23.1,0 47.7,47.7 -43.2,0 z" id="polygon7433" inkscape:connector-curvature="0" />
    <path class="plateau" style="fill:#ad7fa8;display:inline" d="m 152.6,84.8 53.6,0 0,-37.1 -160.51,0 -0.25,37.1 54.17,0 0,586.9 -54.51,0 0,38.9 161.1,0 0,-38.9 -53.6,0 0,-339.9 262.3,339.9 -88.8,0 0,38.9 147.9,0 0,-38.9 -15.5,0 -195.9,-259.8 188.3,-327.1 23.1,0 0,-37.1 -147.9,0 0,37.1 71.8,0 -154.4,300.1 -90.9,-128.2 z" id="polygon7465" inkscape:connector-curvature="0" />
  </g>
  <g display="none" inkscape:groupmode="layer" transform="matrix(1,0,0,-1,0,1024)" inkscape:label="J" id="J" style="display:inline">
    <rect class="charwidth" y="-256" style="fill:#ffc0ff" width="96" height="1280" x="512" id="rect1091" />
    <path class="base" style="fill:#ef2929;display:inline" d="m 204.4,758.3 0,-136.2 55.4,0 0,-490.5 -111.8,0 0,117.4 -148.4375,0 0,-172 L 75.69,0 329.4,0 l 77.1,76.9 0,545.2 53.5,0 0,136.2 -255.6,0 z" id="path7329" inkscape:connector-curvature="0" />
    <path class="layer3" style="fill:#2e3436;display:inline" d="m 252.2,669.8 -47.8,-47.7 55.4,0 47.8,47.7 -55.4,0 z m 106.6,0 47.7,-47.7 53.5,0 -47.7,47.7 -53.5,0 z m 0,-573.1 -49.1,-49 -214.08,0 L 75.69,0 329.4,0 406.5,76.9 358.8,96.7 z" id="polygon7337" inkscape:connector-curvature="0" />
    <path class="layer1" style="fill:#fcaf3e;display:inline" d="m 460,758.3 -47.7,-47.7 0,-40.8 47.7,-47.7 0,136.2 z m -101.2,-88.5 0,-573.1 47.7,-19.8 0,545.2 -47.7,47.7 z M 148,249 l -47.7,-47.7 0,-117.5 47.7,47.8 0,117.4 z" id="polygon7341" inkscape:connector-curvature="0" />
    <path class="layer4" style="fill:#8ae234;display:inline" d="m 204.4,758.3 0,-136.2 47.8,47.7 0,40.8 -47.8,47.7 z m 103.2,-88.5 -47.8,-47.7 0,-490.5 47.8,-47.8 0,586 z M -0.4375,249 -0.4375,77 75.69,0 95.62,47.7 47.28,96.6 l 0,104.7 -47.7175,47.7 z" id="polygon7353" inkscape:connector-curvature="0" />
    <path class="plateau" style="fill:#ad7fa8;display:inline" d="m 252.1,669.8 0,40.8 160.2,0 0,-40.8 -53.5,0 0,-573.1 -49.1,-49 -214.08,0 -48.33,48.9 0,104.7 53.01,0 0,-117.5 207.3,0 0,586 z" id="polygon7361" inkscape:connector-curvature="0" />
    <path class="layer2" style="fill:#fce94f;display:inline" d="m 204.4,758.3 47.8,-47.7 160.1,0 47.7,47.7 -255.6,0 z M -0.4375,249 47.28,201.3 100.3,201.3 148,249 -0.4375,249 z M 148,131.6 100.3,83.8 l 207.3,0 -47.8,47.8 -111.8,0 z" id="polygon7369" inkscape:connector-curvature="0" />
  </g>
  <g display="none" inkscape:groupmode="layer" transform="matrix(1,0,0,-1,0,1024)" inkscape:label="I" id="I" style="display:inline">
    <rect class="charwidth" y="-256" style="fill:#ffc0ff" width="96" height="1280" x="262" id="rect1094" />
    <path class="base" style="fill:#ef2929;display:inline" d="m 1.125,758.3 0,-134.4 54.465,0 0,-491.4 -54.465,0 0,-132.5 256.475,0 0,132.5 -53.5,0 0,182.6 0,308.8 53.5,0 0,134.4 -256.475,0 z" id="path7265" inkscape:connector-curvature="0" />
    <path class="layer3" style="fill:#2e3436;display:inline" d="m 48.84,671.7 -47.715,-47.8 54.465,0 47.71,47.8 -54.46,0 z m 107.56,0 47.7,-47.8 53.5,0 -47.7,47.8 -53.5,0 z M 48.84,47.7 1.125,0 257.6,0 209.9,47.7 48.84,47.7 z" id="polygon7273" inkscape:connector-curvature="0" />
    <path class="layer1" style="fill:#fcaf3e;display:inline" d="m 257.6,758.3 -47.7,-47.7 0,-38.9 47.7,-47.8 0,134.4 z m -101.2,-86.6 0,-356.6 0,-230.3 47.7,47.7 0,182.6 0,308.8 -47.7,47.8 z m 101.2,-539.2 -47.7,-47.7 0,-37.1 47.7,-47.7 0,132.5 z" id="polygon7277" inkscape:connector-curvature="0" />
    <path class="layer2" style="fill:#fce94f;display:inline" d="m 1.125,758.3 47.715,-47.7 161.06,0 47.7,47.7 -256.475,0 z m 0,-625.8 47.715,-47.7 54.46,0 -47.71,47.7 -54.465,0 z m 202.975,0 -47.7,-47.7 53.5,0 47.7,47.7 -53.5,0 z" id="polygon7285" inkscape:connector-curvature="0" />
    <path class="plateau" style="fill:#ad7fa8;display:inline" d="m 209.9,671.7 -53.5,0 0,-356.6 0,-230.3 53.5,0 0,-37.1 -161.06,0 0,37.1 54.46,0 0,586.9 -54.46,0 0,38.9 161.06,0 z" id="polygon7297" inkscape:connector-curvature="0" />
    <path class="layer4" style="fill:#8ae234;display:inline" d="m 1.125,758.3 0,-134.4 47.715,47.8 0,38.9 -47.715,47.7 z M 103.3,671.7 55.59,623.9 l 0,-491.4 47.71,-47.7 0,586.9 z M 1.125,132.5 1.125,0 48.84,47.7 l 0,37.1 -47.715,47.7 z" id="polygon7305" inkscape:connector-curvature="0" />
  </g>
  <g display="none" inkscape:groupmode="layer" transform="matrix(1,0,0,-1,0,1024)" inkscape:label="H" id="H" style="display:inline">
    <rect class="charwidth" y="-256" style="fill:#ffc0ff" width="96" height="1280" x="542" id="rect1097" />
    <path class="base" style="fill:#ef2929;display:inline" d="m 2.031,758.3 0,-134.4 53.599,0 0,-491.4 -53.599,0 L 0.1562,0 257.6,0 l 0,132.5 -53.5,0 0,181.3 134.3,0 0,-181.3 -55.4,0 0,-132.5 256.6,0 0,132.5 -52.7,0 0,182.6 0,308.8 52.7,0 0,134.4 -256.6,0 0,-134.4 55.4,0 0,-171 -134.3,0 0,171 53.5,0 0,134.4 -255.569,0 z" id="path7125" inkscape:connector-curvature="0" />
    <path class="layer2" style="fill:#fce94f;display:inline" d="m 2.031,758.3 47.719,-47.7 160.15,0 47.7,47.7 -255.569,0 z m 280.969,0 47.7,-47.7 161.1,0 47.8,47.7 -256.6,0 z m -78.9,-305.4 -47.7,-47.7 229.8,0 -47.8,47.7 -134.3,0 z M 2.031,132.5 49.09,84.8 l 54.21,0 -47.67,47.7 -53.599,0 z m 202.069,0 -47.7,-47.7 53.5,0 47.7,47.7 -53.5,0 z m 78.9,0 47.7,-47.7 55.5,0 -47.8,47.7 -55.4,0 z m 203.9,0 -47.7,-47.7 52.6,0 47.8,47.7 -52.7,0 z" id="polygon7145" inkscape:connector-curvature="0" />
    <path class="layer1" style="fill:#fcaf3e;display:inline" d="m 257.6,758.3 -47.7,-47.7 0,-38.9 47.7,-47.8 0,134.4 z m 282,0 -47.8,-47.7 0,-38.9 47.8,-47.8 0,134.4 z m -383.2,-86.6 0,-266.5 47.7,47.7 0,171 -47.7,47.8 z m 282.8,0 0,-356.6 47.7,0 0,308.8 -47.7,47.8 z m -282.8,-310.1 0,-276.8 47.7,47.7 0,181.3 -47.7,47.8 z m 101.2,-229.1 -47.7,-47.7 0,-37.1 47.7,-47.7 0,132.5 z m 282,0 -47.8,-47.7 0,-37.1 47.8,-47.7 0,132.5 z" id="polygon7149" inkscape:connector-curvature="0" />
    <path class="layer3" style="fill:#2e3436;display:inline" d="m 49.75,671.7 -47.719,-47.8 53.599,0 47.67,47.8 -53.55,0 z m 106.65,0 47.7,-47.8 53.5,0 -47.7,47.8 -53.5,0 z m 282.8,0 47.7,-47.8 52.7,0 -47.8,47.8 -52.6,0 z m -282.8,-310.1 47.7,-47.8 134.3,0 47.8,47.8 -229.8,0 z M 48.56,47.7 0.1562,0 257.6,0 209.9,47.7 48.56,47.7 z M 330.7,47.7 283,0 l 256.6,0 -47.8,47.7 -161.1,0 z" id="polygon7153" inkscape:connector-curvature="0" />
    <path class="layer4" style="fill:#8ae234;display:inline" d="m 2.031,758.3 0,-134.4 47.719,47.8 0,38.9 -47.719,47.7 z m 280.969,0 0,-134.4 47.7,47.8 0,38.9 -47.7,47.7 z m -179.7,-86.6 -47.67,-47.8 0,-491.4 47.67,-47.7 0,586.9 z m 282.9,0 -47.8,-47.8 0,-171 47.8,-47.7 0,266.5 z m 0,-310.1 -47.8,-47.8 0,-181.3 47.8,-47.7 0,276.8 z M 2.031,132.5 0.1562,0 48.56,47.7 49.09,84.8 2.031,132.5 z M 283,132.5 283,0 l 47.7,47.7 0,37.1 -47.7,47.7 z" id="polygon7157" inkscape:connector-curvature="0" />
    <path class="plateau" style="fill:#ad7fa8;display:inline" d="m 156.4,361.6 0,-276.8 53.5,0 0,-37.1 -161.34,0 0.52,37.1 54.22,0 0,586.9 -53.54,0 0,38.9 160.14,0 0,-38.9 -53.5,0 0,-266.5 229.8,0 0,266.5 -55.5,0 0,38.9 161.1,0 0,-38.9 -52.6,0 0,-356.6 0,-230.3 52.6,0 0,-37.1 -161.1,0 0,37.1 55.5,0 0,276.8 z" id="polygon7193" inkscape:connector-curvature="0" />
  </g>
  <g display="none" inkscape:groupmode="layer" transform="matrix(1,0,0,-1,0,1024)" inkscape:label="G" id="G" style="display:inline">
    <rect class="charwidth" y="-256" style="fill:#ffc0ff" width="96" height="1280" x="512" id="rect1100" />
    <path class="base" style="fill:#ef2929;display:inline" d="M 63.44,758.3 0.5,697.3 0.5,71.3 71.91,0 419.6,0 l 68.6,68.6 0,258.4 -71.4,72.4 -200.2,0 0,-136.3 123.1,0 0,-130.6 -192.6,0 0,489.6 192.6,0 0,-77.1 148.5,0 0,146 -68.6,67.3 -356.16,0 z" id="path7033" inkscape:connector-curvature="0" />
    <path class="layer3" style="fill:#2e3436;display:inline" d="m 99.37,669.8 47.73,-47.7 192.6,0 47.7,47.7 -288.03,0 z M 387.4,592.7 339.7,545 l 148.5,0 -47.7,47.7 -53.1,0 z m -123.1,-281.9 -47.7,-47.7 123.1,0 47.7,47.7 -123.1,0 z M 91.66,47.7 71.91,0 419.6,0 399.8,47.7 91.66,47.7 z" id="polygon7045" inkscape:connector-curvature="0" />
    <path class="layer4" style="fill:#8ae234;display:inline" d="M 0.5,697.3 0.5,71.3 71.91,0 91.66,47.7 48.22,91.1 l 0,586 -47.72,20.2 z m 386.9,-27.5 -47.7,-47.7 0,-77.1 47.7,47.7 0,77.1 z m -170.8,-270.4 0,-136.3 47.7,47.7 0,40.9 -47.7,47.7 z m 170.8,-88.6 -47.7,-47.7 0,-130.6 47.7,-47.7 0,226 z" id="polygon7049" inkscape:connector-curvature="0" />
    <path class="layer1" style="fill:#fcaf3e;display:inline" d="m 419.6,758.3 -19.5,-47.7 40.4,-39.7 0,-78.2 47.7,-47.7 0,146 -68.6,67.3 z m -320.23,-88.5 0,-585 47.73,47.7 0,489.6 -47.73,47.7 z M 488.2,327 l -47.7,-19.6 0,-219.1 47.7,-19.7 0,258.4 z" id="polygon7057" inkscape:connector-curvature="0" />
    <path class="layer2" style="fill:#fce94f;display:inline" d="m 63.44,758.3 -62.94,-61 47.72,-20.2 34.56,33.5 317.32,0 19.5,47.7 -356.16,0 z m 153.16,-358.9 47.7,-47.7 132.5,0 20,47.7 -200.2,0 z M 147.1,132.5 99.37,84.8 l 288.03,0 -47.7,47.7 -192.6,0 z" id="polygon7061" inkscape:connector-curvature="0" />
    <path class="plateau" style="fill:#ad7fa8;display:inline" d="m 440.5,592.7 -53.1,0 0,77.1 -288.04,0 0,-585 288.04,0 0,226 -123.1,0 0,40.8 132.5,0 43.7,-44.2 0,-219 -40.7,-40.7 -308.15,0 -43.43,43.4 0,586 34.55,33.5 317.33,0 40.4,-39.6 z" id="polygon7077" inkscape:connector-curvature="0" />
  </g>
  <g display="none" inkscape:groupmode="layer" transform="matrix(1,0,0,-1,0,1024)" inkscape:label="F" id="F" style="display:inline">
    <rect class="charwidth" y="-250.9" style="fill:#ffc0ff" width="96" height="1280" x="495.4" id="rect1103" />
    <path class="base" style="fill:#ef2929;display:inline" d="m -0.5,758.3 0,-136.2 53.53,0 0,-489.6 -53.53,0 0,-132.5 257.5,0 0,132.5 -55.5,0 0,182.3 116.6,0 0,133.4 -116.6,0 0,173.9 150.4,0 0,-82.7 144.7,0 0,218.9 -497.1,0 z" id="path6945" inkscape:connector-curvature="0" />
    <path class="layer4" style="fill:#8ae234;display:inline" d="m -0.5,758.3 0,-136.2 47.72,47.7 0,40.8 -47.72,47.7 z m 101.2,-88.5 -47.67,-47.7 0,-489.6 47.67,-47.7 0,585 z m 298.9,0 -47.7,-47.7 0,-82.7 47.7,47.7 0,82.7 z M -0.5,132.5 -0.5,0 l 47.72,47.7 0,37.1 -47.72,47.7 z" id="polygon6957" inkscape:connector-curvature="0" />
    <path class="layer3" style="fill:#2e3436;display:inline" d="m 153.8,669.8 47.7,-47.7 150.4,0 47.7,47.7 -245.8,0 z m 245.8,-82.7 -47.7,-47.7 144.7,0 -47.7,47.7 -49.3,0 z m -245.8,-224.6 47.7,-47.7 116.6,0 -47.8,47.7 -116.5,0 z M 47.22,47.7 -0.5,0 257,0 209.3,47.7 47.22,47.7 z" id="polygon6961" inkscape:connector-curvature="0" />
    <path class="layer1" style="fill:#fcaf3e;display:inline" d="m 496.6,758.3 -47.7,-47.7 0,-123.5 47.7,-47.7 0,218.9 z m -342.8,-88.5 0,-269.3 47.7,47.7 0,173.9 -47.7,47.7 z m 164.3,-221.6 -47.8,-47.7 0,-38 47.8,-47.7 0,133.4 z m -164.3,-85.7 0,-277.7 47.7,47.7 0,182.3 -47.7,47.7 z M 257,132.5 209.3,84.8 209.3,47.7 257,0 l 0,132.5 z" id="polygon6965" inkscape:connector-curvature="0" />
    <path class="layer2" style="fill:#fce94f;display:inline" d="m -0.5,758.3 47.72,-47.7 401.68,0 47.7,47.7 -497.1,0 z m 202,-310.1 -47.7,-47.7 116.5,0 47.8,47.7 -116.6,0 z m -202,-315.7 47.72,-47.7 53.48,0 -47.67,47.7 -53.53,0 z m 202,0 -47.7,-47.7 55.5,0 47.7,47.7 -55.5,0 z" id="polygon6969" inkscape:connector-curvature="0" />
    <path class="plateau" style="fill:#ad7fa8;display:inline" d="m 153.8,669.8 0,-269.3 116.5,0 0,-38 -116.5,0 0,-277.7 55.5,0 0,-37.1 -162.09,0 0,37.1 53.59,0 0,585 -53.59,0 0,40.8 401.69,0 0,-123.5 -49.3,0 0,82.7 z" id="polygon6989" inkscape:connector-curvature="0" />
  </g>
  <g display="none" inkscape:groupmode="layer" transform="matrix(1,0,0,-1,0,1024)" inkscape:label="E" id="E" style="display:inline">
    <rect class="charwidth" y="-256" style="fill:#ffc0ff" width="96" height="1280" x="512" id="rect1106" />
    <path class="base" style="fill:#ef2929;display:inline" d="m -2.219,758.3 0,-134.4 57.309,0 0,-491.4 -53.559,0 0,-132.5 494.269,0 0,233 -143.8,0 0,-100.5 -148.4,0 0,182.3 113.7,0 0,133.4 -113.7,0 0,175.7 148.4,0 0,-82.7 143.8,0 0,217.1 -498.019,0 z" id="path6845" inkscape:connector-curvature="0" />
    <path class="layer3" style="fill:#2e3436;display:inline" d="m 155.8,671.7 47.8,-47.8 148.4,0 47.8,47.8 -244,0 z m 244,-82.7 -47.8,-47.8 143.8,0 -47.7,47.8 -48.3,0 z m -244,-226.5 47.8,-47.7 113.7,0 -47.7,47.7 -113.8,0 z M 49.25,47.7 1.531,0 495.8,0 448.1,47.7 49.25,47.7 z" id="polygon6861" inkscape:connector-curvature="0" />
    <path class="layer1" style="fill:#fcaf3e;display:inline" d="m 495.8,758.3 -47.7,-47.7 0,-121.6 47.7,-47.8 0,217.1 z m -340,-86.6 0,-271.2 47.8,47.7 0,175.7 -47.8,47.8 z m 161.5,-223.5 -47.7,-47.7 0,-38 47.7,-47.7 0,133.4 z m -161.5,-85.7 0,-277.7 47.8,47.7 0,182.3 -47.8,47.7 z m 340,-129.5 -47.7,-47.7 0,-137.6 47.7,-47.7 0,233 z" id="polygon6865" inkscape:connector-curvature="0" />
    <path class="layer2" style="fill:#fce94f;display:inline" d="m -2.219,758.3 47.719,-47.7 402.6,0 47.7,47.7 -498.019,0 z M 203.6,448.2 l -47.8,-47.7 113.8,0 47.7,47.7 -113.7,0 z M 352,233 l 47.8,-47.7 48.3,0 47.7,47.7 -143.8,0 z M 1.531,132.5 49.25,84.8 l 53.55,0 -47.71,47.7 -53.559,0 z m 202.069,0 -47.8,-47.7 244,0 -47.8,47.7 -148.4,0 z" id="polygon6869" inkscape:connector-curvature="0" />
    <path class="layer4" style="fill:#8ae234;display:inline" d="m -2.219,758.3 0,-134.4 47.719,47.8 0,38.9 -47.719,47.7 z M 102.8,671.7 55.09,623.9 l 0,-491.4 47.71,-47.7 0,586.9 z m 297,0 -47.8,-47.8 0,-82.7 47.8,47.8 0,82.7 z M 352,233 l 0,-100.5 47.8,-47.7 0,100.5 L 352,233 z M 1.531,132.5 1.531,0 49.25,47.7 l 0,37.1 -47.719,47.7 z" id="polygon6889" inkscape:connector-curvature="0" />
    <path class="plateau" style="fill:#ad7fa8;display:inline" d="m 448.1,710.6 0,-121.6 -48.4,0 0,82.7 -243.8,0 0,-271.2 113.7,0 0,-38 -113.7,0 0,-277.7 243.8,0 0,100.5 48.4,0 0,-137.6 -398.86,0 0,37.1 53.56,0 0,586.9 -57.29,0 0,38.9 z" id="polygon6893" inkscape:connector-curvature="0" />
  </g>
  <g display="none" inkscape:groupmode="layer" transform="matrix(1,0,0,-1,0,1024)" inkscape:label="D" id="D" style="display:inline">
    <path class="base" style="fill:#ef2929;display:inline" d="m 1.156,758.3 0,-136.2 56.404,0 0,-490.5 -56.404,0 L 2.125,0 420.3,0 l 85.5,75.9 0,609.3 -83.7,73.1 -420.944,0 z M 206,622.1 l 141,0 0,-490.5 -141,0 0,490.5 z M 49.22,83.8 l 56.08,0 0,0 -56.05,0 0.25,-36.1 -0.28,36.1 z" id="path6777" inkscape:connector-curvature="0" />
    <path class="layer1" style="fill:#fcaf3e;display:inline" d="m 422.1,758.3 -17.9,-47.7 53.9,-47.1 0,-566.2 47.7,-21.4 0,609.3 -83.7,73.1 z m -263.8,-88.5 0,-586 47.7,47.8 0,490.5 -47.7,47.7 z" id="polygon6785" inkscape:connector-curvature="0" />
    <path class="layer3" style="fill:#2e3436;display:inline" d="m 48.88,669.8 -47.724,-47.7 56.404,0 47.74,47.7 -56.42,0 z m 109.42,0 47.7,-47.7 141,0 47.7,47.7 -236.4,0 z M 458.1,97.3 402.2,47.7 49.5,47.7 2.125,0 420.3,0 505.8,75.9 458.1,97.3 z" id="polygon6789" inkscape:connector-curvature="0" />
    <path class="layer4" style="fill:#8ae234;display:inline" d="m 1.156,758.3 0,-136.2 47.724,47.7 0,40.8 -47.724,47.7 z M 105.3,669.8 57.56,622.1 l 0,-490.5 47.74,-47.8 0,586 z m 289.4,0 -47.7,-47.7 0,-490.5 47.7,-47.8 0,586 z M 1.156,131.6 2.125,0 49.5,47.7 49.22,83.8 1.156,131.6 z" id="polygon6797" inkscape:connector-curvature="0" />
    <path class="layer2" style="fill:#fce94f;display:inline" d="m 1.156,758.3 47.724,-47.7 355.32,0 17.9,47.7 -420.944,0 z m 0,-626.7 48.064,-47.8 56.08,0 -47.74,47.8 -56.404,0 z m 204.844,0 -47.7,-47.8 236.4,0 -47.7,47.8 -141,0 z" id="polygon6801" inkscape:connector-curvature="0" />
    <path id="path6825" d="m 404.2,710.6 53.9,-47.1 V 97.4 L 402.2,47.7 H 49.5 l -0.26,36.1 h 56.06 v 586 H 48.89 v 40.8 H 404.2 z M 394.7,83.8 v 586 H 158.3 v -586 h 236.4" class="plateau" style="fill:#ad7fa8;display:inline" inkscape:connector-curvature="0" />
    <rect class="charwidth" y="-257" style="fill:#ffc0ff;display:inline" width="96" height="1280" x="511" id="rect1226-5" />
  </g>
  <g display="none" inkscape:groupmode="layer" transform="matrix(1,0,0,-1,0,1024)" inkscape:label="C" id="C" style="display:inline">
    <path class="base" style="fill:#ef2929;display:inline" d="m 61.25,758.3 -62.969,-61 0,-626 L 69.69,0 395.8,0 l 68.6,68.6 0,197.3 -148.5,0 0,-133.4 -171,0 0,489.6 171,0 0,-77.1 148.5,0 0,146 -68.6,67.3 -334.55,0 z" id="path6701" inkscape:connector-curvature="0" />
    <path class="layer1" style="fill:#fcaf3e;display:inline" d="m 395.8,758.3 -19.5,-47.7 40.4,-39.7 0,-78.2 47.7,-47.7 0,146 -68.6,67.3 z m -298.64,-88.5 0,-585 47.74,47.7 0,489.6 -47.74,47.7 z m 367.24,-403.9 -47.7,-47.7 0,-129.9 47.7,-19.7 0,197.3 z" id="polygon6709" inkscape:connector-curvature="0" />
    <path class="layer3" style="fill:#2e3436;display:inline" d="m 97.16,669.8 47.74,-47.7 171,0 47.7,47.7 -266.44,0 z M 363.6,592.7 315.9,545 l 148.5,0 -47.7,47.7 -53.1,0 z M 416.7,88.3 376,47.7 89.44,47.7 69.69,0 395.8,0 464.4,68.6 416.7,88.3 z" id="polygon6713" inkscape:connector-curvature="0" />
    <path class="layer4" style="fill:#8ae234;display:inline" d="m -1.719,697.3 0,-626 L 69.69,0 89.44,47.7 46,91.1 l 0,586 -47.719,20.2 z m 365.319,-27.5 -47.7,-47.7 0,-77.1 47.7,47.7 0,77.1 z m -47.7,-403.9 0,-133.4 47.7,-47.7 0,133.4 -47.7,47.7 z" id="polygon6717" inkscape:connector-curvature="0" />
    <path class="layer2" style="fill:#fce94f;display:inline" d="M 61.25,758.3 -1.719,697.3 46,677.1 l 34.56,33.5 295.74,0 19.5,47.7 -334.55,0 z m 254.65,-492.4 47.7,-47.7 53.1,0 47.7,47.7 -148.5,0 z m -171,-133.4 -47.74,-47.7 266.44,0 -47.7,47.7 -171,0 z" id="polygon6729" inkscape:connector-curvature="0" />
    <path class="plateau" style="fill:#ad7fa8;display:inline" d="m 363.6,218.2 53.1,0 0,-129.8 -40.7,-40.7 -286.55,0 -43.46,43.4 0,586 34.58,33.5 295.73,0 40.4,-39.7 0,-78.2 -53.1,0 0,77.1 -266.43,0 0,-585 266.43,0 z" id="polygon6737" inkscape:connector-curvature="0" />
    <rect class="charwidth" y="-378.6" style="fill:#ffc0ff;display:inline" width="96" height="1280" x="464.4" id="rect1115-3" />
  </g>
  <g display="none" inkscape:groupmode="layer" transform="matrix(1,0,0,-1,0,1024)" inkscape:label="B" id="B" style="display:inline">
    <rect class="charwidth" y="-256" style="fill:#ffc0ff" width="96" height="1280" x="512" id="rect1115" />
    <path class="base" style="fill:#ef2929" d="m -2.281,766 0,-136.3 57.311,0 -0.9,-493.3 -54.505,0 0,-132.4 437.875,0 76.1,82.5 0,257.2 -54.5,56.3 54.5,64.7 0,233.7 -76.1,67.6 -439.781,0 z M 203.5,626 l 152.2,0 0,-167.2 -152.2,0 0,167.2 z m 0,-303.5 152.2,0 0,-186.1 -152.2,0 0,186.1 z" id="path6597-3" inkscape:connector-curvature="0" />
    <path class="layer1" style="fill:#fcaf3e;display:inline" d="m 437.5,766 -18.1,-47.7 46.5,-41.3 0,-194.9 47.7,-17.4 0,233.7 -76.1,67.6 z m -281.7,-92.3 0,-262.7 47.7,47.8 0,167.2 -47.7,47.7 z M 459.1,400 l -64.3,-2.2 71.1,-73.5 0,-219.1 47.7,-18.7 0,257.2 -54.5,56.3 z m -303.3,-29.8 0,-281.5 47.7,47.7 0,186.1 -47.7,47.7 z" id="polygon6613-5" inkscape:connector-curvature="0" />
    <path class="layer3" style="fill:#2e3436;display:inline" d="m 45.44,677.5 -47.721,-47.8 57.311,0 47.77,47.8 -57.36,0 z m 110.36,-3.8 47.7,-47.7 152.2,0 47.7,47.7 -247.6,0 z m 310.1,-191.6 -71.1,-84.3 64.3,2.2 54.5,64.7 -47.7,17.4 z m -310.1,-111.9 47.7,-47.7 152.2,0 47.7,47.7 -247.6,0 z m 310.1,-265 -49.3,-53.5 -369.29,0 -47.685,-47.8 437.875,0 76.1,82.6 -47.7,18.7 z" id="polygon6617-1" inkscape:connector-curvature="0" />
    <path class="layer4" style="fill:#8ae234;display:inline" d="m -2.281,766 0,-136.3 47.721,47.8 0,40.8 L -2.281,766 z M 102.8,677.5 55.03,629.7 54.13,136.4 101.7,88.7 l 1.1,588.8 z m 300.6,-3.8 -47.7,-47.7 0,-167.2 47.7,-47.8 0,262.7 z m 0,-303.5 -47.7,-47.7 0,-186.1 47.7,-47.7 0,281.5 z M -0.375,136.4 l 0,-132.5 47.685,47.8 0,37 -47.685,47.7 z" id="polygon6625-4" inkscape:connector-curvature="0" />
    <path class="layer2" style="fill:#fce94f;display:inline" d="m -2.281,766 47.721,-47.7 373.96,0 18.1,47.7 -439.781,0 z M 203.5,458.8 155.8,411 l 247.6,0 -47.7,47.8 -152.2,0 z M -0.375,136.4 47.31,88.7 l 54.39,0 -47.57,47.7 -54.505,0 z m 203.875,0 -47.7,-47.7 247.6,0 -47.7,47.7 -152.2,0 z" id="polygon6629-6" inkscape:connector-curvature="0" />
    <path id="path6681-1" d="M 465.9,677 V 482.1 l -71,-84.4 71,-73.4 V 105.2 L 416.6,51.7 H 47.33 v 37 h 54.37 l 1.1,588.8 H 45.44 v 40.8 H 419.4 L 465.9,677 z M 403.5,88.7 V 370.2 H 155.8 V 88.7 h 247.7 m 0,322.3 V 673.7 H 155.8 V 411 h 247.7" class="plateau" style="fill:#ad7fa8;display:inline" inkscape:connector-curvature="0" />
  </g>
  <g display="none" inkscape:groupmode="layer" transform="matrix(1,0,0,-1,0,1024)" inkscape:label="A" id="A" style="display:inline">
    <path class="base" style="fill:#ef2929;display:inline" d="m 110.3,762.3 0.9,-134.4 32.9,0 -113.69,-493.3 -27.254,0 0,-130.7 197.344,0 0,130.7 -32.9,0 11.3,43.2 106.2,0 10.3,-43.2 -34.8,0 0,-130.7 202.1,0 0,130.7 -27.3,0 -125,493.3 25.4,0 0,134.4 -225.5,0 z m 120.3,-365.6 29.1,-117.4 -59.2,0 30.1,117.4 z" id="path6477-4" inkscape:connector-curvature="0" />
    <rect class="charwidth" y="-257.8" style="fill:#ffc0ff" width="96" height="1280" x="461.9" id="rect1118" />
    <path class="layer4" style="fill:#8ae234" d="m 110.3,762.3 0.9,-134.4 47.4,47.7 -0.3,39 -48,47.7 z m 93.8,-86.7 -60,-47.7 L 30.41,134.6 68.37,86.8 204.1,675.6 z m 27.2,-83.6 -0.7,-195.3 29.1,-117.4 61,-47.8 -89.4,360.5 z m 91.4,-366.5 -37.6,-47.7 10.3,-43.2 60.5,-47.8 -33.2,138.7 z M 3.156,134.6 3.156,4 50.88,51.7 l 0,35.1 -47.724,47.8 z m 257.444,0 0,-130.6 47.7,47.7 0,35.1 -47.7,47.8 z" id="polygon6501" inkscape:connector-curvature="0" />
    <path class="layer3" style="fill:#2e3436" d="m 158.6,675.6 -47.4,-47.7 32.9,0 60,47.7 -45.5,0 z m 90.5,0 61.3,-47.7 25.4,0 -47.7,47.7 -39,0 z m -107,-450.1 36.8,-47.7 106.2,0 37.6,47.7 -180.6,0 z M 50.88,51.7 3.156,4 200.5,4 152.8,51.7 50.88,51.7 z M 308.3,51.7 260.6,4 462.7,4 415,51.7 l -106.7,0 z" id="polygon6505" inkscape:connector-curvature="0" />
    <path class="layer1" style="fill:#fcaf3e" d="m 335.8,762.3 -47.7,-47.7 0,-39 47.7,-47.7 0,134.4 z m -86.7,-86.7 149.2,-588.8 37.1,47.8 -125,493.3 -61.3,47.7 z M 231.3,592 139,231.5 l 61.5,47.8 30.1,117.4 0.7,195.3 z M 142.1,225.5 105.8,86.8 l 61.8,47.8 11.3,43.2 -36.8,47.7 z m 58.4,-90.9 -47.7,-47.8 0,-35.1 47.7,-47.7 0,130.6 z m 262.2,0 L 415,86.8 415,51.7 462.7,4 l 0,130.6 z" id="polygon6509" inkscape:connector-curvature="0" />
    <path class="layer2" style="fill:#fce94f" d="m 110.3,762.3 48,-47.7 129.8,0 47.7,47.7 -225.5,0 z m 90.2,-483 -61.5,-47.8 181.7,0 -61,47.8 -59.2,0 z M 3.156,134.6 50.88,86.8 l 17.49,0 -37.96,47.8 -27.254,0 z m 164.444,0 -61.8,-47.8 47,0 47.7,47.8 -32.9,0 z m 93,0 47.7,-47.8 47.6,0 -60.5,47.8 -34.8,0 z m 174.8,0 -37.1,-47.8 16.7,0 47.7,47.8 -27.3,0 z" id="polygon6513" inkscape:connector-curvature="0" />
    <path id="path6549" d="M 398.3,86.8 H 415 V 51.7 H 308.3 v 35.1 h 47.6 L 322.7,225.5 H 142.1 L 105.8,86.8 h 47 V 51.7 H 50.87 V 86.8 H 68.38 L 204.1,675.6 h -45.5 l -0.3,38.9 h 129.8 v -38.9 h -39 L 398.3,86.8 z M 139,231.5 H 320.7 L 231.3,592 139,231.5" class="plateau" style="fill:#ad7fa8" inkscape:connector-curvature="0" />
  </g>
  <g display="none" inkscape:groupmode="layer" transform="matrix(1,0,0,-1,0,1024)" inkscape:label="9" id="9" style="display:inline">
    <rect class="charwidth" y="-254.9" style="fill:#ffc0ff" width="96" height="1280" x="456.6" id="rect1199" />
    <path class="base" style="fill:#ef2929;display:inline" d="m 79.62,758.5 -78.9325,-77.1 0,-292.2 71.4025,-74.3 241.51,0 0,-178.5 -166.3,0 0,84.6 -146.6125,0 0,-143.8 L 72.09,0 395.3,0 l 62.1,69.7 0,615.5 -77.1,73.3 -300.68,0 z m 67.68,-136.3 169.1,0 0,-154.1 -169.1,0 0,154.1 z" id="path9773" inkscape:connector-curvature="0" />
    <path class="layer3" style="fill:#2e3436;display:inline" d="m 99.56,669.9 47.74,-47.7 169.1,0 47.7,47.7 -264.54,0 z m -7.15,-307.2 -20.32,-47.8 241.51,0 47.7,47.8 -268.89,0 z M 409.7,87.9 374,47.9 92.94,47.9 72.09,0 395.3,0 457.4,69.7 409.7,87.9 z" id="polygon9785" inkscape:connector-curvature="0" />
    <path class="layer4" style="fill:#8ae234;display:inline" d="m 0.6875,681.4 0,-292.2 71.4025,-74.3 20.32,47.8 -44,45.7 0,252.9 -47.7225,20.1 z M 364.1,669.9 l -47.7,-47.7 0,-154.1 47.7,-47.7 0,249.5 z m -2.8,-307.2 -47.7,-47.8 0,-178.5 47.7,-47.7 0,274 z M 0.6875,221 0.6875,77.2 72.09,0 l 20.85,47.9 -44.53,48 0,77.4 L 0.6875,221 z" id="polygon9793" inkscape:connector-curvature="0" />
    <path class="layer2" style="fill:#fce94f;display:inline" d="M 79.62,758.5 0.6875,681.4 48.41,661.3 l 50.65,49.4 262.24,0 19,47.8 -300.68,0 z m 67.68,-290.4 -47.74,-47.7 264.54,0 -47.7,47.7 -169.1,0 z M 0.6875,221 48.41,173.3 99.56,173.3 147.3,221 0.6875,221 z M 147.3,136.4 99.56,88.7 l 261.74,0 -47.7,47.7 -166.3,0 z" id="polygon9801" inkscape:connector-curvature="0" />
    <path class="layer1" style="fill:#fcaf3e;display:inline" d="m 380.3,758.5 -19,-47.8 48.4,-46 0,-576.8 47.7,-18.2 0,615.5 -77.1,73.3 z m -280.74,-88.6 0,-249.5 47.74,47.7 0,154.1 -47.74,47.7 z M 147.3,221 99.56,173.3 l 0,-84.6 47.74,47.7 0,84.6 z" id="polygon9805" inkscape:connector-curvature="0" />
    <path id="path9833" d="m 361.2,710.8 48.5,-46.1 V 87.9 L 374,47.9 H 92.92 l -44.51,48 v 77.3 H 99.56 V 88.7 H 361.3 v 274 H 92.4 l -43.99,45.7 v 252.9 l 50.64,49.5 H 361.2 z m 2.9,-290.4 V 669.9 H 99.56 V 420.4 H 364.1" class="plateau" style="fill:#ad7fa8;display:inline" inkscape:connector-curvature="0" />
  </g>
  <g display="none" inkscape:groupmode="layer" transform="matrix(1,0,0,-1,0,1024)" inkscape:label="8" id="8" style="display:inline">
    <rect class="charwidth" y="-256" style="fill:#ffc0ff" width="96" height="1280" x="512" id="rect1202" />
    <path class="base" style="fill:#ef2929;display:inline" d="M 72.97,758.5 1.531,690.1 1.531,479.2 56.97,414.5 1.531,348.8 1.531,75.3 73.87,0 378.3,0 l 71.5,75.3 0,273 -53.6,65.7 56.4,64.8 0,211.2 -73.3,68.5 -306.33,0 z m 71.43,-136.3 163.5,0 0,-143.8 -163.5,0 0,143.8 z M 404.8,496.7 333.8,415 402,331.3 333.8,415 l 71,81.7 z m -260.4,-169.5 163.5,0 0,-190.8 -163.5,0 0,190.8 z" id="path9665" inkscape:connector-curvature="0" />
    <path class="layer1" style="fill:#fcaf3e;display:inline" d="m 379.3,758.5 -18.8,-47.8 44.3,-41.5 0,-172.5 47.8,-17.9 0,211.2 -73.3,68.5 z m -272.6,-98.6 0,-219.2 37.7,37.7 0,143.8 -37.7,37.7 z M 333.8,415 402,331.3 l 0,-237 47.8,-19 0,273 -53.6,65.7 -62.4,1 z m -227.1,-50.1 0,-266.2 37.7,37.7 0,190.8 -37.7,37.7 z" id="polygon9681" inkscape:connector-curvature="0" />
    <path class="layer3" style="fill:#2e3436;display:inline" d="m 106.7,659.9 37.7,-37.7 163.5,0 37.7,37.7 -238.9,0 z m 298.1,-163.2 -71,-81.7 62.4,-1 56.4,64.8 -47.8,17.9 z m -298.1,-131.8 37.7,-37.7 163.5,0 37.7,37.7 -238.9,0 z M 402,94.3 357.9,47.9 94.19,47.9 73.87,0.2 l 304.43,0 71.5,75.1 -47.8,19 z" id="polygon9685" inkscape:connector-curvature="0" />
    <path class="layer4" style="fill:#8ae234;display:inline" d="m 1.531,690.1 0,-210.9 55.439,-64.7 62.63,0.3 -70.35,82 0,172.9 -47.719,20.4 z m 344.069,-30.2 -37.7,-37.7 0,-143.8 37.7,-37.7 0,219.2 z m 0,-295 -37.7,-37.7 0,-190.8 37.7,-37.7 0,266.2 z M 1.531,348.8 1.531,75.3 73.87,0.2 94.19,47.9 49.25,94.5 l 0,236.8 -47.719,17.5 z" id="polygon9693" inkscape:connector-curvature="0" />
    <path class="layer2" style="fill:#fce94f;display:inline" d="M 72.97,758.5 1.531,690.1 49.25,669.7 l 42.87,41 268.38,0 18.8,47.8 -306.33,0 z m 71.43,-280.1 -37.7,-37.7 238.9,0 -37.7,37.7 -163.5,0 z M 119.6,414.8 56.97,414.5 1.531,348.8 49.25,331.3 119.6,414.8 z m 24.8,-278.4 -37.7,-37.7 238.9,0 -37.7,37.7 -163.5,0 z" id="polygon9701" inkscape:connector-curvature="0" />
    <path id="path9753" d="m 404.9,669.3 0,-172.6 -71.1,-81.7 68.2,-83.6 0,-237.1 -44.1,-46.4 -263.72,0 -44.92,46.6 0,236.8 70.34,83.5 -70.34,82.1 0,172.8 42.87,41.1 268.37,0 z m -59.3,-304.4 -238.9,0 0,-266.2 238.9,0 m 0,561.2 -238.9,0 0,-219.2 238.9,0" class="plateau" style="fill:#ad7fa8;display:inline" inkscape:connector-curvature="0" sodipodi:nodetypes="ccccccccccccccccccccccc" />
  </g>
  <g display="none" inkscape:groupmode="layer" transform="matrix(1,0,0,-1,0,1024)" inkscape:label="7" id="7" style="display:inline">
    <rect class="charwidth" y="-254.9" style="fill:#ffc0ff" width="96" height="1280" x="424.4" id="rect1205" />
    <path class="base" style="fill:#ef2929;display:inline" d="m 0.2187,758.5 0,-227.4 152.1813,0 0,78.9 102.4,0 -152.1,-477.3 -48.92,0 0,-132.7 254.62,0 0,132.7 -42.2,0 156.9,526.2 -41.3,99.6 -381.5813,0 z" id="path9597" inkscape:connector-curvature="0" />
    <path class="layer2" style="fill:#fce94f;display:inline" d="m 202.1,84.9 64.1,47.8 42.2,0 -47.7,-47.8 z" id="polygon9609" inkscape:connector-curvature="0" />
    <path class="layer1" style="fill:#fcaf3e;display:inline" d="m 381.8,758.5 -31.9,-47.8 22.6,-54.5 -170.4,-571.3 64.1,47.8 156.9,526.2 -41.3,99.6 z m -73.4,-625.8 -47.7,-47.8 0,-37 47.7,-47.9 0,132.7 z" id="polygon9613" inkscape:connector-curvature="0" />
    <path class="layer3" style="fill:#2e3436;display:inline" d="m 104.7,657.7 47.7,-47.7 102.4,0 65.4,47.7 -215.5,0 z M 47.94,578.8 0.2187,531.1 l 152.1813,0 -47.7,47.7 -56.76,0 z M 101.5,47.9 53.78,0 308.4,0 l -47.7,47.9 -159.2,0 z" id="polygon9617" inkscape:connector-curvature="0" />
    <path class="layer4" style="fill:#8ae234;display:inline" d="m 0.2187,758.5 0,-227.4 47.7213,47.7 0,131.9 -47.7213,47.8 z M 320.2,657.7 254.8,610 102.7,132.7 137.5,84.9 320.2,657.7 z m -266.42,-525 0,-132.7 47.72,47.9 0,37 -47.72,47.8 z" id="polygon9621" inkscape:connector-curvature="0" />
    <path class="layer2" style="fill:#fce94f;display:inline" d="m 101.5,84.9 -47.73,47.8 48.93,0 34.8,-47.8 z" id="polygon9625" inkscape:connector-curvature="0" />
    <path class="plateau" style="fill:#ad7fa8;display:inline" d="M 372.5,656.3 202.1,84.9 l 58.6,0 0,-37 -159.2,0 0,37 36,0 182.7,572.8 -215.5,0 0,-78.9 -56.76,0 0,132 301.96,0 z" id="polygon9629" inkscape:connector-curvature="0" />
    <path class="layer2" style="fill:#fce94f;display:inline" d="M 47.94,710.8 0.2205,758.5 381.7,758.5 349.9,710.8 z" id="polygon9649" inkscape:connector-curvature="0" />
  </g>
  <g display="none" inkscape:groupmode="layer" transform="matrix(1,0,0,-1,0,1024)" inkscape:label="6" id="6" style="display:inline">
    <rect class="charwidth" y="-253.8" style="fill:#ffc0ff" width="96" height="1280" x="458.7" id="rect1208" />
    <path class="base" style="fill:#ef2929;display:inline" d="M 63.06,760.3 1.062,690.8 1.062,75.3 78.09,2 378.8,2 l 79,77.1 0,333.6 -71.5,74.2 -240.5,0 0,137.2 165.4,0 0,-85.5 146.6,0 0,144.7 -71.5,77 -323.24,0 z m 302.44,-47.7 0,0 44.5,-48 -44.5,48 z M 142,333.8 l 169.2,0 0,-195.5 -169.2,0 0,195.5 z" id="path9505" inkscape:connector-curvature="0" />
    <path class="layer3" style="fill:#2e3436;display:inline" d="m 98.03,671.8 47.77,-47.7 165.4,0 47.7,47.7 -260.87,0 z m 260.87,-85.5 -47.7,-47.7 146.6,0 -47.8,47.7 -51.1,0 z M 94.31,381.5 142,333.8 l 169.2,0 47.7,47.7 -264.59,0 z M 410,99.2 359.4,49.8 97.19,49.8 78.09,2 378.8,2 457.8,79.1 410,99.2 z" id="polygon9517" inkscape:connector-curvature="0" />
    <path class="layer1" style="fill:#fcaf3e;display:inline" d="m 386.3,760.3 -20.8,-47.7 44.5,-48 0,-78.3 47.8,-47.7 0,144.7 -71.5,77 z m -288.27,-88.5 0,-232.6 47.77,47.7 0,137.2 -47.77,47.7 z M 386.3,486.9 366,439.2 l 44,-45.8 0,-294.2 47.8,-20.1 0,333.6 -71.5,74.2 z M 94.31,381.5 l 0,-290.9 47.69,47.7 0,195.5 -47.69,47.7 z" id="polygon9521" inkscape:connector-curvature="0" />
    <path class="layer2" style="fill:#fce94f;display:inline" d="M 63.06,760.3 1.062,690.8 48.78,672.6 l 35.66,40 281.06,0 20.8,47.7 -323.24,0 z m 82.74,-273.4 -47.77,-47.7 267.97,0 20.3,47.7 -240.5,0 z M 142,138.3 94.31,90.6 l 264.59,0 -47.7,47.7 -169.2,0 z" id="polygon9525" inkscape:connector-curvature="0" />
    <path class="layer4" style="fill:#8ae234;display:inline" d="M 1.062,690.8 1.062,75.3 78.09,2 l 19.1,47.8 -48.41,46 0,576.8 -47.718,18.2 z m 357.838,-19 -47.7,-47.7 0,-85.5 47.7,47.7 0,85.5 z m 0,-290.3 -47.7,-47.7 0,-195.5 47.7,-47.7 0,290.9 z" id="polygon9545" inkscape:connector-curvature="0" />
    <path id="path9565" d="m 410,586.3 h -51.1 v 85.5 H 98.04 V 439.2 H 366 l 44,-45.8 V 99.2 L 359.4,49.8 H 97.17 l -48.39,46 v 576.8 l 35.66,40 H 365.5 l 44.5,-48 V 586.3 z M 358.9,381.5 H 94.31 V 90.6 H 358.9 v 290.9" class="plateau" style="fill:#ad7fa8;display:inline" inkscape:connector-curvature="0" />
  </g>
  <g display="none" inkscape:groupmode="layer" transform="matrix(1,0,0,-1,0,1024)" inkscape:label="5" id="5" style="display:inline">
    <rect class="charwidth" y="-255" style="fill:#ffc0ff" width="96" height="1280" x="457" id="rect1211" />
    <path class="base" style="fill:#ef2929;display:inline" d="m -1.969,758.5 0,-360.1 76.129,-93.8 237.74,0 0,-168.2 -173.8,0 0,77.1 -140.069,0 0,-134.4 L 77,0 l 313.8,0 67.7,65.9 0,312 -78.9,77 -234.9,0 0,163.5 156.9,0 0,-63.8 154.1,0 0,203.9 -457.669,0 z" id="path9405" inkscape:connector-curvature="0" />
    <path class="layer3" style="fill:#2e3436;display:inline" d="m 96.94,666.2 47.76,-47.8 156.9,0 47.7,47.8 -252.36,0 z m 252.36,-63.9 -47.7,-47.7 154.1,0 -47.7,47.7 -58.7,0 z m -252.43,-250 -22.71,-47.7 237.74,0 47.7,47.7 -262.73,0 z M 410.8,86.1 371.5,47.9 96.75,47.9 77,0 390.8,0 458.5,65.9 410.8,86.1 z" id="polygon9421" inkscape:connector-curvature="0" />
    <path class="layer1" style="fill:#fcaf3e;display:inline" d="m 455.7,758.5 -47.7,-47.8 0,-108.4 47.7,-47.7 0,203.9 z m -358.76,-92.3 0,-259 47.76,47.7 0,163.5 -47.76,47.8 z m 282.66,-211.3 -19.4,-47.7 50.6,-49.4 0,-271.7 47.7,-20.2 0,312 -78.9,77 z M 138.1,213.5 90.34,165.8 l 0,-77.1 47.76,47.7 0,77.1 z" id="polygon9425" inkscape:connector-curvature="0" />
    <path class="layer2" style="fill:#fce94f;display:inline" d="m -1.969,758.5 47.719,-47.8 362.25,0 47.7,47.8 -457.669,0 z M 144.7,454.9 96.94,407.2 l 263.26,0 19.4,47.7 -234.9,0 z M -1.969,213.5 45.75,165.8 l 44.59,0 47.76,47.7 -140.069,0 z M 138.1,136.4 90.34,88.7 l 269.26,0 -47.7,47.7 -173.8,0 z" id="polygon9429" inkscape:connector-curvature="0" />
    <path class="layer4" style="fill:#8ae234;display:inline" d="m -1.969,758.5 0,-360.1 76.129,-93.8 22.71,47.7 -51.12,63 0,295.4 -47.719,47.8 z m 351.269,-92.3 -47.7,-47.8 0,-63.8 47.7,47.7 0,63.9 z m 10.3,-313.9 -47.7,-47.7 0,-168.2 47.7,-47.7 0,263.6 z M -1.969,213.5 -1.969,79.1 77,0 l 19.75,47.9 -51,50.9 0,67 -47.719,47.7 z" id="polygon9449" inkscape:connector-curvature="0" />
    <path class="plateau" style="fill:#ad7fa8;display:inline" d="m 408,710.8 0,-108.5 -58.7,0 0,63.9 -252.36,0 0,-259 263.16,0 50.7,-49.4 0,-271.7 -39.3,-38.2 -274.74,0 -51,50.9 0,66.9 44.57,0 0,-77 269.27,0 0,263.6 -262.71,0 -51.13,63 0,295.5 z" id="polygon9453" inkscape:connector-curvature="0" />
  </g>
  <g display="none" inkscape:groupmode="layer" transform="matrix(1,0,0,-1,0,1024)" inkscape:label="4" id="4" style="display:inline">
    <rect class="charwidth" y="-258.2" style="fill:#ffc0ff" width="96" height="1280" x="448.8" id="rect1214" />
    <path class="base" style="fill:#ef2929;display:inline" d="M 256.9,755.6 1.281,363.8 50.13,233.2 l 193.57,0 0,-100.5 -49.8,0 0,-132.7 254.6,0 0,132.7 -45.1,0 0,100.5 45.1,0 0,126.8 -48.8,0 0,395.6 -142.8,0 z m 12.2,-204.8 0,-190.8 -125,0 125,190.8 z" id="path9309" inkscape:connector-curvature="0" />
    <path class="layer3" style="fill:#2e3436;display:inline" d="m 83.22,280.9 -33.09,-47.7 193.57,0 47.7,47.7 -208.18,0 z m 272.48,0 47.7,-47.7 45.1,0 -47.7,47.7 -45.1,0 z M 241.6,47.9 193.9,0 l 254.6,0 -47.7,47.9 -159.2,0 z" id="polygon9329" inkscape:connector-curvature="0" />
    <path class="layer4" style="fill:#8ae234;display:inline" d="M 256.9,755.6 1.281,363.8 50.13,233.2 l 33.09,47.7 -28.81,77 228.29,350 -25.8,47.7 z m 59.9,-44.9 -47.7,-159.9 0,-190.8 47.7,-47.7 0,398.4 z m -25.4,-429.8 -47.7,-47.7 0,-100.5 47.7,-47.8 0,196 z m -97.5,-148.2 0,-132.7 47.7,47.9 0,37 -47.7,47.8 z" id="polygon9333" inkscape:connector-curvature="0" />
    <path class="layer2" style="fill:#fce94f;display:inline" d="m 256.9,755.6 25.8,-47.7 69.3,0 47.7,47.7 -142.8,0 z M 144.1,360 69.09,319.6 316.8,312.3 269.1,360 l -125,0 z m 255.6,0 -47.7,-47.7 48.8,0 47.7,47.7 -48.8,0 z m -205.8,-227.3 47.7,-47.8 49.8,0 -47.7,47.8 -49.8,0 z m 209.5,0 -47.7,-47.8 45.1,0 47.7,47.8 -45.1,0 z" id="polygon9337" inkscape:connector-curvature="0" />
    <path class="layer1" style="fill:#fcaf3e;display:inline" d="M 316.8,710.7 269.1,550.8 144.1,360 68.92,319.3 z" id="polygon9349" inkscape:connector-curvature="0" sodipodi:nodetypes="ccccc" />
    <path id="path9369" d="m 400.8,280.9 -45.1,0 0,-196 45.1,0 0,-37 -159.2,0 0,37 49.8,0 0,196 -208.17,0 -28.81,77 228.28,350 69.3,0 0,-395.6 48.8,0 0,-31.4 z m -84,31.4 0,398.4 L 69.29,319.6 316.8,312.3" class="plateau" style="fill:#ad7fa8;display:inline" inkscape:connector-curvature="0" sodipodi:nodetypes="ccccccccccccccccccccc" />
    <path class="layer1" style="fill:#fcaf3e;display:inline" d="m 352,707.9 47.7,47.7 0,-395.6 -47.7,-47.7 z" id="polygon9373" inkscape:connector-curvature="0" />
    <path class="layer1" style="fill:#fcaf3e;display:inline" d="m 400.8,312.3 47.7,47.7 0,-126.8 -47.7,47.7 z" id="polygon9381" inkscape:connector-curvature="0" />
    <path class="layer1" style="fill:#fcaf3e;display:inline" d="m 355.7,280.9 47.7,-47.7 0,-100.5 -47.7,-47.8 z" id="polygon9393" inkscape:connector-curvature="0" />
    <path class="layer1" style="fill:#fcaf3e;display:inline" d="m 400.8,84.9 47.7,47.8 0,-132.6 -47.7,47.8 z" id="polygon9401" inkscape:connector-curvature="0" />
  </g>
  <g display="none" inkscape:groupmode="layer" transform="matrix(1,0,0,-1,0,1024)" inkscape:label="3" id="3" style="display:inline">
    <rect class="charwidth" y="-257.3" style="fill:#ffc0ff" width="96" height="1280" x="452.1" id="rect1217" />
    <path class="base" style="fill:#ef2929;display:inline" d="m 70.16,758.5 -70.4725,-73 0,-129.1 142.8125,0 0,62 164.5,0 0,-132.8 -160.7,0 0,-150.9 164.5,0 0,-200.2 -168.3,0 0,76.2 -142.8125,0 0,-150.4 L 72.06,0 374.6,0 l 73.3,73.5 0,288.4 -56.4,59.2 60.2,54.4 0,219.2 -63,63.8 -318.54,0 z" id="path9197" inkscape:connector-curvature="0" />
    <path class="layer3" style="fill:#2e3436;display:inline" d="m 94.81,666.2 47.69,-47.8 164.5,0 47.7,47.8 -259.89,0 z m -47.4,-62 -47.7225,-47.8 142.8125,0 -47.69,47.8 -47.4,0 z m 356.49,-107.5 -80.7,-73 68.3,-2.6 60.2,54.4 -47.8,21.2 z M 194,382.4 l -47.7,-47.7 164.5,0 47.7,47.7 -164.5,0 z M 400.2,93.2 354.8,47.9 89.28,47.9 72.06,0 374.6,0 447.9,73.5 400.2,93.2 z" id="polygon9221" inkscape:connector-curvature="0" />
    <path class="layer4" style="fill:#8ae234;display:inline" d="m -0.3125,685.5 0,-129.1 47.7225,47.8 0,62 z M 354.7,666.2 307,618.4 l 0,-132.8 47.7,-47.7 z m -208.4,-180.6 0,-150.9 47.7,47.7 0,55.5 z m 212.2,-103.2 -47.7,-47.7 0,-200.2 47.7,-47.7 z M -0.3125,210.7 -0.3125,60.3 72.06,0 89.28,47.9 47.41,82.7 l 0,80.2 z" id="polygon9229" inkscape:connector-curvature="0" sodipodi:nodetypes="ccccccccccccccccccccccccccc" />
    <path class="layer2" style="fill:#fce94f;display:inline" d="m 70.16,758.5 -70.4725,-73 47.7225,-19.3 43.03,44.5 278.36,0 19.9,47.8 -318.54,0 z m 76.14,-272.9 47.7,-47.7 160.7,0 -47.7,47.7 -160.7,0 z M -0.3125,210.7 47.41,162.9 l 47.4,0 47.69,47.8 -142.8125,0 z M 142.5,134.5 94.81,86.8 l 263.69,0 -47.7,47.7 -168.3,0 z" id="polygon9237" inkscape:connector-curvature="0" />
    <path class="plateau" style="fill:#ad7fa8;display:inline" d="m 354.7,666.2 -259.9,0 0,-62 -47.41,0 0,62 43.03,44.6 278.38,0 35.1,-35.6 0,-178.5 -80.7,-73 77,-80.9 0,-249.6 -45.3,-45.3 -265.61,0 -41.9,34.8 0,80.2 47.41,0 0,-76.1 263.7,0 0,295.6 -164.5,0 0,55.5 160.7,0 z" id="polygon9261" inkscape:connector-curvature="0" />
  </g>
  <g display="none" inkscape:groupmode="layer" transform="matrix(1,0,0,-1,0,1024)" inkscape:label="2" id="2" style="display:inline">
    <rect class="charwidth" y="-259.3" style="fill:#ffc0ff" width="96" height="1280" x="462.1" id="rect1220" />
    <path class="base" style="fill:#ef2929;display:inline" d="m 79.72,758.3 -78.8137,-76.4 0,-148.2 136.2937,0 0,70.5 180.4,0 0,-122.1 -226.48,0 L 0.9063,393.6 0.9063,0 461.4,0 l 0,208.6 -134.4,0 0,-72.3 -189.8,0 0,199.2 250.2,0 74,77.6 0,272.2 -76.9,73 -304.78,0 z" id="path9097" inkscape:connector-curvature="0" />
    <path class="layer3" style="fill:#2e3436;display:inline" d="m 89.47,651.9 47.73,-47.7 180.4,0 47.7,47.7 -275.83,0 z M 48.63,581.4 0.9063,533.7 l 136.2937,0 -47.73,47.7 -40.84,0 z m 365.07,-149.2 -46.8,-49 -277.43,0 47.73,-47.7 250.2,0 74,77.6 -47.7,19.1 z M 48.63,47.7 0.9063,0 461.4,0 413.7,47.7 48.63,47.7 z" id="polygon9113" inkscape:connector-curvature="0" />
    <path class="layer1" style="fill:#fcaf3e;display:inline" d="m 384.5,758.3 -19.1,-47.7 48.3,-45.8 0,-232.6 47.7,-19.1 0,272.2 -76.9,73 z M 89.47,383.2 l 0,-294.7 47.73,47.8 0,199.2 -47.73,47.7 z M 461.4,208.6 413.7,160.9 413.7,47.7 461.4,0 l 0,208.6 z" id="polygon9117" inkscape:connector-curvature="0" />
    <path class="layer2" style="fill:#fce94f;display:inline" d="M 79.72,758.3 0.9063,681.9 48.63,661.7 l 50.4,48.9 266.37,0 19.1,47.7 -304.78,0 z M 91.12,482.1 0.9063,393.6 48.63,373.5 l 61.97,60.8 254.7,0 -47.7,47.8 -226.48,0 z M 327,208.6 l 47.7,-47.7 39,0 47.7,47.7 -134.4,0 z M 137.2,136.3 89.47,88.5 l 285.23,0 -47.7,47.8 -189.8,0 z" id="polygon9121" inkscape:connector-curvature="0" />
    <path class="layer4" style="fill:#8ae234;display:inline" d="m 0.9063,681.9 0,-148.2 47.7237,47.7 0,80.3 -47.7237,20.2 z m 364.3937,-30 -47.7,-47.7 0,-122.1 47.7,-47.8 0,217.6 z M 0.9063,393.6 0.9063,0 48.63,47.7 l 0,325.8 -47.7237,20.1 z M 327,208.6 l 0,-72.3 47.7,-47.8 0,72.4 -47.7,47.7 z" id="polygon9125" inkscape:connector-curvature="0" />
    <path class="plateau" style="fill:#ad7fa8;display:inline" d="m 365.4,710.6 48.2,-45.7 0,-232.7 -46.7,-49 -277.43,0 0,-294.7 285.23,0 0,72.4 38.9,0 0,-113.2 -364.97,0 0,325.8 61.97,60.8 254.7,0 0,217.6 -275.83,0 0,-70.5 -40.84,0 0,80.3 50.41,48.9 z" id="polygon9145" inkscape:connector-curvature="0" />
  </g>
  <g display="none" inkscape:groupmode="layer" transform="matrix(1,0,0,-1,0,1024)" inkscape:label="1" id="1" style="display:inline">
    <rect class="charwidth" y="-252.7" style="fill:#ffc0ff" width="96" height="1280" x="265.9" id="rect1223" />
    <path class="base" style="fill:#ef2929;display:inline" d="M 116.2,758.5 4.406,653.7 l 0,-93.5 53.564,0 0,-427.5 -57.3138,0 L 1.594,0 264.7,0 l 0,132.7 -55.4,0 0,242.7 0,194.8 0,188.3 -93.1,0 z" id="path9033" inkscape:connector-curvature="0" />
    <path class="layer1" style="fill:#fcaf3e;display:inline" d="m 209.3,758.5 -47.8,-47.8 0,-140.5 0,-194.8 0,-290.5 47.8,47.8 0,242.7 0,194.8 0,188.3 z M 264.7,132.7 217,84.9 l 0,-37 47.7,-47.9 0,132.7 z" id="rect9041" inkscape:connector-curvature="0" />
    <path class="layer2" style="fill:#fce94f;display:inline" d="M 116.2,758.5 4.406,653.7 52.13,633 l 82.97,77.7 26.4,0 47.8,47.8 -93.1,0 z M 0.6562,132.7 48.72,84.9 l 56.98,0 -47.73,47.8 -57.3138,0 z m 208.6438,0 -47.8,-47.8 55.5,0 47.7,47.8 -55.4,0 z" id="polygon9049" inkscape:connector-curvature="0" />
    <path class="layer3" style="fill:#2e3436;display:inline" d="m 52.13,607.9 -47.724,-47.7 53.564,0 47.73,47.7 -53.57,0 z M 48.97,47.9 1.594,0 264.7,0 217,47.9 48.97,47.9 z" id="polygon9057" inkscape:connector-curvature="0" />
    <path class="layer4" style="fill:#8ae234;display:inline" d="m 4.406,653.7 0,-93.5 47.724,47.7 0,25.1 -47.724,20.7 z M 105.7,607.9 57.97,560.2 l 0,-427.5 47.73,-47.8 0,523 z M 0.6562,132.7 1.594,0 48.97,47.9 48.72,84.9 0.6562,132.7 z" id="polygon9061" inkscape:connector-curvature="0" />
    <path class="plateau" style="fill:#ad7fa8;display:inline" d="m 161.5,570.2 0,-194.8 0,-290.5 55.5,0 0,-37 -168.03,0 -0.26,37 56.99,0 0,523 -53.58,0 0,25.1 82.98,77.8 26.4,0 z" id="polygon9065" inkscape:connector-curvature="0" />
  </g>
  <g display="none" inkscape:groupmode="layer" transform="matrix(1,0,0,-1,0,1024)" inkscape:label="0" id="0" style="display:inline">
    <rect class="charwidth" y="-256" style="fill:#ffc0ff" width="96" height="1280" x="512" id="rect1226" />
    <path class="base" style="fill:#ef2929;display:inline" d="M 74.5,758.5 1.187,685.3 1.187,61.2 63.19,0 387.4,0 l 69.5,70.6 0,617.5 -71.4,70.4 -311,0 z m 75.1,-136.3 160.7,0 0,-490.5 -160.7,0 0,490.5 z" id="path9865" inkscape:connector-curvature="0" />
    <path class="layer1" style="fill:#fcaf3e;display:inline" d="m 385.5,758.5 -19.6,-47.8 43.3,-42.6 0,-578 47.7,-19.5 0,617.5 -71.4,70.4 z m -283.6,-88.6 0,-585.9 47.7,47.7 0,490.5 -47.7,47.7 z" id="polygon9869" inkscape:connector-curvature="0" />
    <path class="layer3" style="fill:#2e3436;display:inline" d="m 101.9,669.9 47.7,-47.7 160.7,0 47.7,47.7 -256.1,0 z M 409.2,90.1 367.4,47.9 82.72,47.9 63.19,0 387.4,0 456.9,70.6 409.2,90.1 z" id="polygon9877" inkscape:connector-curvature="0" />
    <path class="layer4" style="fill:#8ae234;display:inline" d="M 1.187,685.3 1.187,61.2 63.19,0 82.72,47.9 48.91,81.2 l 0,584.3 -47.723,19.8 z M 358,669.9 310.3,622.2 310.3,131.7 358,84 l 0,585.9 z" id="polygon9885" inkscape:connector-curvature="0" />
    <path class="layer2" style="fill:#fce94f;display:inline" d="M 74.5,758.5 1.187,685.3 48.91,665.5 l 45.34,45.2 271.65,0 19.6,47.8 -311,0 z M 149.6,131.7 101.9,84 358,84 l -47.7,47.7 -160.7,0 z" id="polygon9905" inkscape:connector-curvature="0" />
    <path id="path9909" d="m 365.9,710.8 43.3,-42.7 V 90.1 L 367.5,47.9 H 82.73 L 48.9,81.2 v 584.3 l 45.34,45.3 H 365.9 z M 358,84 V 669.9 H 101.9 V 84 H 358" class="plateau" style="fill:#ad7fa8;display:inline" inkscape:connector-curvature="0" />
  </g>
</svg>
