<?xml version="1.0" standalone="no"?>
<!DOCTYPE svg PUBLIC "-//W3C//DTD SVG 1.1//EN" "http://www.w3.org/Graphics/SVG/1.1/DTD/svg11.dtd" >
<svg xmlns="http://www.w3.org/2000/svg">
	<defs> 
		<font id="webfontNNieUWMy" horiz-adv-x="1302" >
			<font-face units-per-em="2048" ascent="1556" descent="-492" />
			<missing-glyph horiz-adv-x="649" />
			
			<glyph unicode="&#xa1;" horiz-adv-x="819" d="M309 0v655l21 357h162l20 -357v-655h-203zM309 1239v254h203v-254h-203z" />

			<glyph horiz-adv-x="1714"   unicode="&lt;">
				<path d="M217,559v166l1282,465v-182l-1032-367,1032-365v-182z"/>
			</glyph>

			<glyph  unicode="0" >
				<path d="M135,745.5q0,374.5,133,575.5,131,199,383,199t383-199q133-201,133-575.5t-133-575.5q-131-199-383-199t-383,199q-133,201-133,575.5zm203,0q0-311.5,78-460.5,80-154,235.5-154t235.5,154q78,150,78,461t-78,460q-80,154-235.5,154t-235.5-154q-78-149-78-460.5z"/>
			</glyph>
			<glyph  unicode="1" >
				<path d="M225,1237v184l357,72h202v-1323h330v-170h-860v170h330v1139z"/>
				<path d="M500,1237v184l357,72h202v-1323h330v-170h-860v170h330v1139z"/>
				<path d="M1000,1237v184l357,72h202v-1323h330v-170h-860v170h330v1139z"/>
			</glyph>
			<glyph  unicode="2" >
				<path d="M150,0v170l313,319q180,180,250,259,92,100,135,184,39,76,39,149,0,121-84,195-82,74-217,74-100,0-201-33-111-37-225-100v204q127,51,227,74,109,25,195,25,236,0,370-115,137-117,138-311,0-88-35-174-35-88-125-195l-160-168-377-387h705v-170h-948z"/>
			</glyph>
			<glyph  unicode="3" >
				<path d="M156,45v195q83-49,184-74t209-25q190,0,289,74,100,76,100,219,0,133-92,207t-258,74h-174v166h182q145,0,227,59,80,59,80,172,0,115-82,176-83,61-233,62-83,0-178.5-18.5t-208.5-55.5v180q123,33,215,47,109,16,190,17,229,0,365-105,133-102,133-282,0-121-72-209-70-86-201-119,141-31,226-129,82-96,82-242,0-221-151.5-342t-432.5-121q-94,0-193,19-100,18-206,55z"/>
			</glyph>
			<glyph  unicode="4" >
				<path d="M100,352v195l621,946h254v-973h213v-168h-213v-352h-201v352h-674zm164,168h510v797z"/>
			</glyph>
			<glyph  unicode="5" >
				<path d="M158,35v203q80-45,186-72,95-25,203-25,176,0,274,90,100,92,101,248,0,154-100.5,246t-274.5,92q-82,0-162-18-82-18-164-56v750h793v-170h-608v-367q47,16,88,23,57,8,88,8,252,0,397-137t145-371q0-244-149-375-152-133-424-133-86,0-191,17-89,14-202,47z"/>
			</glyph>
			<glyph  unicode="6" >
				<path d="M143,745q0,352,168,563.5t451,211.5q82,0,153-15,88-18,162-45v-184q-77,37-153.5,55.5t-153.5,18.5q-201,0-305-136-106-137-121-407,59,88,148,133,90,47,196,47,225,0,356-137,129-135,130-371,0-230-136-368-135-139-362-140-258,0-395.5,198.5t-137.5,575.5zm238-266q0-162,80-254,82-94,215-94t215,94q80,92,80,254t-80,254q-82,94-215,94t-215-94q-80-92-80-254z"/>
			</glyph>
			<glyph  unicode="7" >
				<path d="M168,1323v170h960v-86l-542-1407h-211l510,1323h-717z"/>
			</glyph>
			<glyph  unicode="8" >
				<path d="M139,420q0,145,82,242,84,100,228,133-127,31-203,120-72,86-72,218,0,180,127,282,129,104,350,105,224,0,350-105,127-104,127-282,0-129-73-218-76-90-201-120,143-33,227-133,82-96,82-242,0-217-133-334-129-115-379-115t-379,115q-133,117-133,334zm203,0q0-135,82-211,84-78,227.5-78t227.5,78q82,76,82,211,0,137-82,213t-227.5,76-227.5-76-82-213zm33,694q0-115,74-180,76-66,202.5-66t202.5,66q74,66,74,180.5t-74,179.5q-76,66-203,66t-202-66q-74-65-74-180z"/>
			</glyph>
			<glyph  unicode="9" >
				<path d="M129,1012q0,230,135,368,135,139,363,140,260,0,395-199,137-203,137-576,0-352-168-563t-450-211q-82,0-154,15-88,18-162,45v184q77-37,154-55,76-18,153-19,201,0,306,135,106,137,120,408-57-84-147-131t-197-47q-225,0-354,135-131,138-131,371zm203,0q0-162,80-254,82-94,215-94t215,94q80,92,80,254t-80,254q-82,94-215,94t-215-94q-80-92-80-254z"/>
			</glyph>
			<glyph horiz-adv-x="688"   unicode=":">
				<path d="M240,0v254h211v-254h-211zm0,805v254h211v-254h-211z"/>
			</glyph>
			<glyph horiz-adv-x="688"   unicode=";">
				<path d="M158-238l82,320v172h211v-172l-164-320h-129zm82,1043v254h211v-254h-211z"/>
			</glyph>
			<glyph horiz-adv-x="1714"   unicode="=">
				<path d="M217,352v170h1282v-170h-1282zm0,410v168h1282v-168h-1282z"/>
			</glyph>
			<glyph horiz-adv-x="1714"   unicode="&gt;">
				<path d="M217,94v182l1030,365-1030,367v182l1282-465v-166z"/>
			</glyph>
			<glyph horiz-adv-x="1085"   unicode="?">
				<path d="M147,1219v188q95,58,191,86,92,27,199,27,186,0,294-97,113-100,113-256,0-78-37-145-39-70-125-154l-88-86q-55-55-67-73-16-25-27-52-4-16-8-51-4-41-4-82v-123h-191v154q0,98,29,166,29,66,117,151l90,89q55,49,82,100,27,49,26,96,0,88-65.5,143.5t-173.5,55.5q-76,0-168-35-85-30-187-102zm244-1219v254h203v-254h-203z"/>
			</glyph>
			<glyph horiz-adv-x="2048"   unicode="@">
				<path d="M135,543q0,182,68,348,66,160,194,289,131,129,297,194,170,68,359,68,212,0,393-86,180-86,305-248,76-100,115-213,39-111,39-238,0-266-158-415-162-152-440-158v154q-61-76-137-113t-181-37q-174,0-280.5,125t-106.5,323.5,109,325.5q106,125,278,125,104,0,180-37,78-37,138-114v131h143v-736q145,20,229,134,82,109,82,288,0,98-32,201-31,96-95,174-102,129-254,201-147,70-325,69-125,0-236-32-119-35-209-97-156-100-245-268-88-164-89-358,0-162,58-297,58-138,166-246,100-100,243-158,138-55,295-55,129,0,254,43,115,39,228,125l90-111q-125-96-273-149-145-51-299-51-184,0-350,65-162,63-291,191-127,123-194,290-68,167-68,353zm627-6.5q0-139.5,72-223.5,70-82,194-82,123,0,193,82,72,84,71.5,223.5t-71.5,223.5q-70,82-195,82-123,0-192-82-72-84-72-223.5z"/>
			</glyph>
			<glyph horiz-adv-x="1400"  unicode="A">
				<path  d="m586,1493,229,0l569-1493h-210l-136,383zm160-942-275,743z"/>
				<path  d="m16,0,570,1493,229,0l-450-1110-136-383zm410,551,274,743z"/>
				<path  d="m177.8,435.8,1042,0-56.57,129.3-937.4,0z"/>
			</glyph>
			<glyph horiz-adv-x="1404"   unicode="B">
				<path d="M201,0v1493h516q229,0,356-96,125-94,125-273,0-141-63.5-219t-188.5-100q147-31,232-133,82-100,82-254,0-201-136-309-137-109-387-109h-536zm202,166h324q162,0,242,67,78,66,78,207.5t-78,207-242,65.5h-324v-547zm0,711h299q145,0,219,55t74,170-73.5,170-219.5,55h-299v-450z"/>
			</glyph>
			<glyph horiz-adv-x="1429"   unicode="C">
				<path d="M115,745.5q0,356.5,194,567.5,193,207,535,207,139,0,252-35,121-37,223-107v-213q-102,96-217,142-119,47-246,47-256,0-391-156-137-160-137-452.5t137-452.5q135-156,391-156,127,0,246,47,115,45,217,142v-211q-113-74-225.5-109t-249.5-35q-342,0-535,207-194,211-194,567.5z"/>
			</glyph>
			<glyph horiz-adv-x="1576"   unicode="D">
				<path d="M201,0v1493h415q436,0,637-180,203-181,203-565,0-385-205-568-201-180-635-180h-415zm202,166h244q311,0,453,139,143,141,143,443,0,303-143,440-145,139-453,139h-244v-1161z"/>
			</glyph>
			<glyph horiz-adv-x="1292"   unicode="E">
				<path d="M201,0v1493h944v-170h-742v-442h711v-170h-711v-541h760v-170h-962z"/>
			</glyph>
			<glyph horiz-adv-x="1177"   unicode="F">
				<path d="M201,0v1493h858v-170h-656v-440h592v-170h-592v-713h-202z"/>
			</glyph>
			<glyph horiz-adv-x="1585"   unicode="G">
				<path d="M115,745.5q0,360.5,198,569.5,197,205,547,205,152,0,277-35,137-39,243-107v-215q-109,92-237,144-121,47-266,47-273,0-412-154-137-152-137-455t137-454q138-154,412-154,108,0,190,19,88,18,152,57v401h-330v166h530v-641q-115-82-258-125-141-43-301-43-350,0-547,205-198,209-198,569.5z"/>
			</glyph>
			<glyph horiz-adv-x="1538"   unicode="H">
				<path d="M201,0v1493h202v-612h734v612h202v-1493h-202v711h-734v-711h-202z"/>
			</glyph>
			<glyph horiz-adv-x="602"   unicode="I">
				<path d="M201,0v1493h202v-1493h-202z"/>
			</glyph>
			<glyph horiz-adv-x="602"   unicode="J">
				<path d="M-106-240h63q133,0,188.5,74t55.5,270v1389h202v-1389q0-268-102-393-100-121-330-121h-77v170z"/>
			</glyph>
			<glyph horiz-adv-x="1341"   unicode="K">
				<path d="M201,0v1493h202v-631l670,631h260l-741-696,794-797h-266l-717,719v-719h-202z"/>
			</glyph>
			<glyph horiz-adv-x="1140"   unicode="L">
				<path d="M201,0v1493h202v-1323h727v-170h-929z"/>
			</glyph>
			<glyph horiz-adv-x="1765"   unicode="M">
				<path d="M201,0v1493h301l381-1016,383,1016h301v-1493h-197v1311l-385-1024h-203l-385,1024v-1311h-196z"/>
			</glyph>
			<glyph horiz-adv-x="1531"   unicode="N">
				<path d="M201,0v1493h272l662-1249v1249h196v-1493h-272l-662,1249v-1249h-196z"/>
			</glyph>
			<glyph horiz-adv-x="1611"   unicode="O">
				<path d="M115,745q0,350,188,564,186,211,504,211,315,0,502-211,188-213,188-563.5t-188-563.5q-186-211-502-211t-504,209q-188,211-188,565zm213,0.5q0-282.5,129-446.5t350-164q219,0,348,164t129,446.5-129,446.5-348,164q-221,0-350-164t-129-446.5z"/>
			</glyph>
			<glyph horiz-adv-x="1234"   unicode="P">
				<path d="M201,0v1493h456q252,0,379-113,129-115,129-334t-129-333q-127-113-379-113h-254v-600h-202zm202,766h254q141,0,217,74,78,74,78,207t-78,206q-76,74-217,74h-254v-561z"/>
			</glyph>
			<glyph horiz-adv-x="1611"  unicode="Q">
				<path  d="m115,745.5q0,350.5,188,563.5,186,211,504,211,315,0,502-211,188-213,188-564,0-262-104-446-102-182-303-272l266-291h-244l-221,239q-16,0-28.5-2t-22.5-2h-33q-317,0-504,211-188,213-188,563.5zm213,0q0-282.5,129-446.5t350-164q219,0,348,164t129,446.5-129,446.5-348,164q-221,0-350-164t-129-446.5z"/>
			</glyph>
			<glyph horiz-adv-x="1421"   unicode="R">
				<path d="M201,0v1493h456q256,0,381-107,127-109,127-323,0-139-65-234-65-92-191-129,63-20,127-94,59-68,123-198l205-408h-217l-191,383q-74,150-143,199-71,49-190,49h-220v-631h-202zm202,797h254q145,0,220,67,76,70,75,199,0,127-75,197-74,68-220,67h-254v-530z"/>
			</glyph>
			<glyph horiz-adv-x="1298"  unicode="S">
				<path  d="m135,1094q0,199,139,313,137,113,385,113,106,0,213-19,98-16,224-57v-197q-106,51-217,82-98,27-197,27-166,0-254-64-90-66-90-182,0-100,59-149,61-51,226-82l122-25q225-43,334-152,106-106,107-290,0-217-146-328-147-113-426-113-106,0-225,25-125,25-248,70v208q133-74,242-104,121-35,231-35,172,0,266.5,67.5t94.5,194.5q0,111-67.5,172.5t-221.5,92.5l-123,24q-225,45-327,141-101,95-101,267z"/>
			</glyph>
			<glyph horiz-adv-x="1249"   unicode="T">
				<path d="M-6,1323v170h1263v-170h-530v-1323h-203v1323h-530z"/>
			</glyph>
			<glyph horiz-adv-x="1497"   unicode="U">
				<path d="M178,561v932h203v-907q0-240,88-346,86-104,280.5-104.5t280.5,104.5q88,106,88,346v907h203v-932q0-289-145-440-143-150-426-150-285,0-428.5,149.5t-143.5,440.5z"/>
			</glyph>
			<glyph horiz-adv-x="1400"   unicode="V">
				<path d="M16,1493h211l473-1257,474,1257h210l-569-1493h-229z"/>
			</glyph>
			<glyph horiz-adv-x="2023"  unicode="W">
				<path  d="M68,1493h204l314-1262,313,1262h227l314-1262,313,1262h205l-375-1493h-254l-315,1296-318-1296h-254z"/>
			</glyph>
			<glyph horiz-adv-x="1402"  unicode="X">
				<path  d="m61,0,533,797-465,696h217l371-555,373,555h217l-480-717,512-776h-217l-420,635-423-635h-218z"/>
			</glyph>
			<glyph horiz-adv-x="1249"   unicode="Y">
				<path d="M-4,1493h217l414-614,411,614h217l-528-782v-711h-203v711z"/>
			</glyph>
			<glyph horiz-adv-x="1402"   unicode="Z">
				<path d="M92,0v154l944,1169h-921v170h1173v-154l-944-1169h967v-170h-1219z"/>
			</glyph>
			<glyph horiz-adv-x="798"   unicode="[">
				<path d="M176-270v1826h424v-143h-240v-1540h240v-143h-424z"/>
			</glyph>
			<glyph horiz-adv-x="688"   unicode="\">
				<path d="M0,1493h170l520-1683h-170z"/>
			</glyph>
			<glyph horiz-adv-x="798"   unicode="]">
				<path d="M199-127h239v1540h-239v143h424v-1826h-424v143z"/>
			</glyph>
			<glyph horiz-adv-x="1714"   unicode="^">
				<path d="M217,936l543,557h196l543-557h-201l-440,395-440-395h-201z"/>
			</glyph>
			<glyph horiz-adv-x="1024"   unicode="_">
				<path d="M-20-340h1064v-143h-1064v143z"/>
			</glyph>
			<glyph horiz-adv-x="1024"  unicode="`">
				<path  d="M170,1638h197l282-374h-153z"/>
			</glyph>
			<glyph horiz-adv-x="1500"   unicode="a">
				<path   d="M1355,582.6c0-319-258-577.6-577.1-577.6-319,0-577.6,258.6-577.6,577.6h1155z"   />
				<path   d="m200.2,561.6c0,319,258.6,577.6,577.6,577.6s577.6-258.6,577.6-577.6h-1155z"   />
				<path   d="M1352-0.00003c-319,0-577.5,258.6-577.5,577.6s258.6,577.6,577.6,577.6v-1155z"   />
			</glyph>
			<glyph horiz-adv-x="1500"  unicode="b">
				<path   d="M1355,577.6c0-319-258-577.6-577.1-577.6s-577.7,258.6-577.7,577.6h1155z"   />
				<path   d="m200.2,567.6c0,319,258.6,577.6,577.6,577.6s577.6-258.6,577.6-577.6h-1155z"   />
				<path   d="m200.2,400.8c319,0,577.6,258.6,577.6,577.6,0.1,318.6-258.6,577.6-577.6,577.6v-1155z"   />
			</glyph>
			<glyph horiz-adv-x="1500"   unicode="c">
				<path   d="m1186,169.2c-225.6-225.6-591.3-225.6-816.9,0s-225.6,591.3,0,816.9c272.6-272.3,544.9-544.6,816.9-816.9z"     />
				<path   d="m369.4,169.2c-225.6,225.6-225.6,591.3,0,816.9s591.3,225.6,816.9,0.00001c-272-272.3-544.3-544.6-816.6-816.9z"     />
			</glyph>
			<glyph horiz-adv-x="1500"   unicode="d">
				<path   d="M1355,577.6c0-319-258-577.6-577.1-577.6s-577.7,258.6-577.7,577.6h1155z"   />
				<path   d="m200.2,567.6c0,319,258.6,577.6,577.6,577.6s577.6-258.6,577.6-577.6h-1155z"   />
				<path   d="m1352,400.5c-319,0-577.6,258.6-577.6,577.6s258.6,577.6,577.6,577.6v-1155z"   />
			</glyph>
			<glyph horiz-adv-x="1500"   unicode="e">
				<path   d="m1186,169.2c-225.6-225.6-591.3-225.6-816.9,0s-225.6,591.3,0,816.9c272.6-272.3,544.9-544.6,816.9-816.9z"     />
				<path   d="m200.2,577.6c0,319,258.6,577.6,577.6,577.6s577.6-258.6,577.6-577.6h-1155z"   />
			</glyph>
			<glyph horiz-adv-x="1500"   unicode="f">
				<path   d="m200.2,577.6c0,319,258.6,577.6,577.6,577.6s577.6-258.6,577.6-577.6h-1155z"   />
				<path   d="m200.2,978.4c0,319,258.6,577.6,577.6,577.6s577.6-258.6,577.6-577.6h-1155z"   />
				<path   d="m200.2,0c319,0,577.6,258.6,577.6,577.6s-258.6,577.6-577.6,577.6v-1155z"   />
			</glyph>
			<glyph horiz-adv-x="1500"   unicode="g">
				<path   d="m1182,984.4c225.6-225.6,225.6-591.3,0-816.9s-591.3-225.6-816.9,0c272.7,272.4,545,544.6,816.9,816.9z"   />
				<path   d="m373.3,159.8c-225.6,225.6-225.6,591.3,0,816.9s591.3,225.6,816.9,0.00001c-272.1-272.3-544.4-544.6-816.7-816.9z"   />
				<path   d="m1159,402.3c225.6-225.6,225.6-591.3,0-816.9s-591.3-225.6-816.9,0.00002l816.9,816.9z"     />
			</glyph>
			<glyph horiz-adv-x="1500"   unicode="h">
				<path   d="m369.4-0.8206c-225.6,225.6-225.6,591.3,0,816.9s591.3,225.6,816.9,0c-272-272.3-544.3-544.6-816.6-816.9z"     />
				<path   d="m362.3,809c225.6,225.6,591.3,225.6,816.9,0s225.6-591.3,0-816.9c-272.1,272.3-544.4,544.6-816.7,816.9z"   />
				<path   d="m204.1,1556c319,0,577.6-258.6,577.6-577.6s-258.6-577.6-577.6-577.6v1155z"   />
			</glyph>
			<glyph horiz-adv-x="750"   unicode="i">
				<path   d="m205.2,1150c319,0,577.6-258.6,577.6-577.6s-258.6-577.6-577.6-577.6v1155z"   />
				<path   d="m782.9-5c-319,0-577.6,258.6-577.6,577.6s258.6,577.6,577.6,577.6v-1155z"   />
			</glyph>
			<glyph horiz-adv-x="1500"   unicode="j">
				<path   d="M1355,577.6c0-319-258-577.6-577.1-577.6s-577.7,258.6-577.7,577.6h1155z"   />
				<path   d="m777.9,1145c319,0,577.6-258.6,577.6-577.6s-258.6-577.6-577.6-577.6v1155z"    />
			</glyph>
			<glyph horiz-adv-x="1500"   unicode="k">
				<path   d="m1167,164.2c-225.6-225.6-591.3-225.6-816.9,0s-225.6,591.3,0,816.9c272.4-272.3,544.7-544.6,816.9-816.9z"     />
				<path   d="m357.3,157.1c-225.6,225.6-225.6,591.3,0,816.9s591.3,225.6,816.9,0c-272.1-272.3-544.4-544.6-816.7-816.9z"     />
				<path   d="m200.2,1155c319,0,577.6-258.6,577.6-577.6,0.1-318.8-258.6-577.4-577.6-577.4v1155z"   />
			</glyph>
			<glyph horiz-adv-x="1500"   unicode="l">
				<path   d="m1355,0.0001c0,319-258.6,577.6-577.6,577.6s-577.6-258.6-577.6-577.6h1155z"   />
				<path   d="m200.2,1155c319,0,577.6-258.6,577.6-577.6,0.1-318.8-258.6-577.4-577.6-577.4v1155z"    />
			</glyph>
			<glyph horiz-adv-x="2000"   unicode="m">
				<path   d="m1340,577.6c0,319-258.6,577.6-577.6,577.6s-577.6-258.6-577.6-577.6h1155z"   />
				<path   d="m766.3,1155c319,0,577.6-258.6,577.6-577.6,0-318.8-259-577.4-577.7-577.4v1155z"   />
				<path   d="m191.2,0c319,0,577.6,258.6,577.6,577.6s-258.6,577.6-577.6,577.6v-1155z"   />
				<path   d="m1925,577.6c0,319-258.6,577.6-577.6,577.6s-577.6-258.6-577.6-577.6h1155z"   />
				<path   d="m1352,1155c319,0,577.6-258.6,577.6-577.6-1-318.8-259-577.4-578-577.4v1155z"   />
			</glyph>
			<glyph horiz-adv-x="1500"   unicode="n">
				<path   d="m1340,577.6c0,319-258.6,577.6-577.6,577.6s-577.6-258.6-577.6-577.6h1155z"   />
				<path   d="m766.3,1155c319,0,577.6-258.6,577.6-577.6,0-318.8-259-577.4-577.7-577.4v1155z"   />
				<path   d="m191.2,0c319,0,577.6,258.6,577.6,577.6s-258.6,577.6-577.6,577.6v-1155z"   />
			</glyph>
			<glyph horiz-adv-x="1500"   unicode="o">
				<path   d="m1172,980.8c-225.6,225.6-591.3,225.6-816.9-0.0001s-225.6-591.3,0-816.9l816.9,816.9z"   />
				<path   d="m1172,986c225.6-225.6,225.6-591.3,0-816.9s-591.3-225.6-816.9,0.00004l816.9,816.9z"     />
			</glyph>
			<glyph horiz-adv-x="1500"   unicode="p">
				<path   d="m1172,983.3c-225.6,225.6-591.3,225.6-816.9-0.0001s-225.6-591.3,0-816.9l816.9,816.9z"   />
				<path   d="m1175,986c225.6-225.6,225.6-591.3,0-816.9s-591.3-225.6-816.9,0.00004l816.9,816.9z"     />
				<path   d="m200.2-252c319,0,577.6,258.6,577.6,577.6s-258.6,577.6-577.6,577.6v-1155z"   />
			</glyph>
			<glyph horiz-adv-x="1500"   unicode="q">
				<path   d="m355.1,986c-225.6-225.6-225.6-591.3,0-816.9s591.3-225.6,816.9,0c-272.3,272.3-544.6,544.6-816.9,816.9z"     />
				<path   d="m357.9,983.3c225.6,225.6,591.3,225.6,816.9-0.0001s225.6-591.3,0-816.9c-272.3,272.3-544.6,544.6-816.9,816.9z"   />
				<path   d="m1330-252c-319,0-577.6,258.6-577.6,577.6s258.6,577.6,577.6,577.6v-1155z"   />
			</glyph>
			<glyph horiz-adv-x="1500"   unicode="r">
				<path   d="M777.9,1163c-319.1,0-577.7-258.7-577.7-577.7s258.6-577.6,577.7-577.6c0.00006,385.1,0,770.2,0.00003,1155z"     />
				<path   d="m180.9,583.6c-0.00003,319,258.6,577.6,577.6,577.6,319,0.0001,577.6-258.6,577.6-577.6-385.1,0.00001-770.2,0.00002-1155-0.00004z"     />
				<path   d="m200.2,0c319,0,577.6,258.6,577.6,577.6s-258.6,577.6-577.6,577.6v-1155z"   />
			</glyph>
			<glyph horiz-adv-x="1500"   unicode="s">
				<path   d="m1328,986c-225.6,225.6-591.3,225.6-816.9,0s-225.6-591.3,0-816.9l816.9,816.9z"     />
				<path   d="m1017,983.3c225.6-225.6,225.6-591.3-0.0001-816.9s-591.3-225.6-816.9,0l816.9,816.9z"   />
			</glyph>
			<glyph horiz-adv-x="1250"   unicode="t">
				<path   d="m1045,1447c-319,0-577.6-258.6-577.6-577.6-0.00003-319,258.6-577.6,577.6-577.6v1155z"     />
				<path   d="m180.9,1161c-0.00003-319,258.6-577.6,577.6-577.6,319-0.0001,577.6,258.6,577.6,577.6-385.1,0-770.2,0-1155,0.0001z"     />
				<path   d="m467.1,0c319,0,577.6,258.6,577.6,577.6s-258.6,577.6-577.6,577.6v-1155z"   />
			</glyph>
			<glyph horiz-adv-x="1500"   unicode="u">
				<path   d="m1186,978.1c225.6-225.6,225.6-591.3,0-816.9s-591.3-225.6-816.9,0c272.2,272.3,544.5,544.6,816.9,816.9z"     />
				<path   d="m1186,161.2c-225.6-225.6-591.3-225.6-816.9,0s-225.6,591.3,0,816.9c272.3-272.3,544.6-544.6,816.9-816.9z"     />
			</glyph>
			<glyph horiz-adv-x="1500"   unicode="v">
				<path   d="M499.2-25.28c308.2,82.57,491,399.3,408.5,707.5-82.6,308.1-399.3,490.8-707.5,408.8,99.7-372.4,199.4-744.3,299-1116z"     />
				<path   d="M1183,1094c-307.7,83-624.4-99.9-707-408-82.5-308.1,100.3-624.9,408.5-707.4,99.6,371.9,199.5,743.9,298.5,1115z"     />
			</glyph>
			<glyph horiz-adv-x="1750"   unicode="w">
				<path   d="M499.2-25.28c308.2,82.57,491,399.3,408.5,707.5-82.6,308.1-399.3,490.8-707.5,408.8,99.7-372.4,199.4-744.3,299-1116z"     />
				<path   d="M1183,1094c-307.7,83-624.4-99.9-707-408-82.5-308.1,100.3-624.9,408.5-707.4,99.6,371.9,199.5,743.9,298.5,1115z"     />
				<path   d="m1208-25.28c308.1,82.57,491,399.3,408.4,707.4-82.57,308.1-399.3,491-707.4,408.4,99.66-372,199.3-743.9,299-1116z"     />
				<path   d="m1892,1094c-308.1,82.57-624.9-100.3-707.4-408.4-82.57-308.1,100.3-624.9,408.4-707.4,99.66,372,199.3,743.9,299,1116z"     />
			</glyph>
			<glyph horiz-adv-x="1500"   unicode="x">
				<path   d="m1202,1155c225.6-225.6,225.6-591.3,0-816.9s-591.3-225.6-816.9,0l816.9,816.9z"     />
				<path   d="m1202,338.4c-225.6-225.6-591.3-225.6-816.9,0s-225.6,591.3,0,816.9c272-272.1,544.3-544.4,816.9-816.6z"     />
				<path   d="m1193-37.56c225.6,225.6,225.6,591.3,0,816.9s-591.3,225.6-816.9,0c272.3-272.3,544.6-544.6,816.9-816.9z"     />
				<path   d="m1193,779.3c-225.6,225.6-591.3,225.6-816.9,0s-225.6-591.3,0-816.9l816.9,816.9z"     />
			</glyph>
			<glyph horiz-adv-x="1500"   unicode="y">
				<path   d="m1179,978.2c225.6-225.6,225.6-591.3,0-816.9s-591.3-225.6-816.9,0l816.9,816.9z"     />
				<path   d="m1179,161.4c-225.6-225.6-591.3-225.6-816.9,0s-225.6,591.3,0,816.9c272.3-272.3,544.6-544.6,816.9-816.9z"     />
				<path   d="m1179,416c225.6-225.6,225.6-591.3,0-816.9s-591.3-225.6-816.9,0l816.9,816.9z"     />
			</glyph>
			<glyph horiz-adv-x="1500"   unicode="z">
				<path   d="m1140,1155c225.6-225.6,225.6-591.3,0-816.9s-591.3-225.6-816.9,0l816.9,816.9z"     />
				<path   d="m200.2-15.98c0.00002,319,258.6,577.6,577.6,577.6s577.6-258.6,577.6-577.6c-385.1,0.00007-770.2,0.0001-1155,0z"     />
				<path   d="m200.2,1155c0.00002-319,258.6-577.6,577.6-577.6s577.6,258.6,577.6,577.6c-385.1-0.0001-770.2-0.0001-1155,0z"     />
				<path   d="m430.1-7.702c-225.6,225.6-225.6,591.3,0,816.9s591.3,225.6,816.9,0l-816.9-816.9z"     />
			</glyph>

		</font>
</defs>
</svg>
