<?xml version="1.0" encoding="UTF-8" standalone="no"?>
<svg id="svg3387" xmlns:rdf="http://www.w3.org/1999/02/22-rdf-syntax-ns#" xmlns="http://www.w3.org/2000/svg" height="2048" width="2048" version="1.1" xmlns:cc="http://creativecommons.org/ns#" xmlns:dc="http://purl.org/dc/elements/1.1/">
	<metadata id="metadata949">
		<rdf:RDF>
			<cc:Work rdf:about="">
				<dc:format>image/svg+xml</dc:format>
				<dc:type rdf:resource="http://purl.org/dc/dcmitype/StillImage"/>
				<dc:title/>
			</cc:Work>
		</rdf:RDF>
	</metadata>
	<g id="g69" transform="scale(1,-1) translate(0,-2048)" display="none">
		<path id="path71" d="M135,745.5q0,374.5,133,575.5,131,199,383,199t383-199q133-201,133-575.5t-133-575.5q-131-199-383-199t-383,199q-133,201-133,575.5zm203,0q0-311.5,78-460.5,80-154,235.5-154t235.5,154q78,150,78,461t-78,460q-80,154-235.5,154t-235.5-154q-78-149-78-460.5z"/>
	</g>
	<g id="g73" transform="scale(1,-1) translate(0,-2048)" display="none">
		<path id="path75" d="M225,1237v184l357,72h202v-1323h330v-170h-860v170h330v1139z"/>
		<path id="path77" d="M500,1237v184l357,72h202v-1323h330v-170h-860v170h330v1139z"/>
		<path id="path79" d="M1000,1237v184l357,72h202v-1323h330v-170h-860v170h330v1139z"/>
	</g>
	<g id="g81" transform="scale(1,-1) translate(0,-2048)" display="none">
		<path id="path83" d="M150,0v170l313,319q180,180,250,259,92,100,135,184,39,76,39,149,0,121-84,195-82,74-217,74-100,0-201-33-111-37-225-100v204q127,51,227,74,109,25,195,25,236,0,370-115,137-117,138-311,0-88-35-174-35-88-125-195l-160-168-377-387h705v-170h-948z"/>
	</g>
	<g id="g85" transform="scale(1,-1) translate(0,-2048)" display="none">
		<path id="path87" d="M156,45v195q83-49,184-74t209-25q190,0,289,74,100,76,100,219,0,133-92,207t-258,74h-174v166h182q145,0,227,59,80,59,80,172,0,115-82,176-83,61-233,62-83,0-178.5-18.5t-208.5-55.5v180q123,33,215,47,109,16,190,17,229,0,365-105,133-102,133-282,0-121-72-209-70-86-201-119,141-31,226-129,82-96,82-242,0-221-151.5-342t-432.5-121q-94,0-193,19-100,18-206,55z"/>
	</g>
	<g id="g89" transform="scale(1,-1) translate(0,-2048)" display="none">
		<path id="path91" d="M100,352v195l621,946h254v-973h213v-168h-213v-352h-201v352h-674zm164,168h510v797z"/>
	</g>
	<g id="g93" transform="scale(1,-1) translate(0,-2048)" display="none">
		<path id="path95" d="M158,35v203q80-45,186-72,95-25,203-25,176,0,274,90,100,92,101,248,0,154-100.5,246t-274.5,92q-82,0-162-18-82-18-164-56v750h793v-170h-608v-367q47,16,88,23,57,8,88,8,252,0,397-137t145-371q0-244-149-375-152-133-424-133-86,0-191,17-89,14-202,47z"/>
	</g>
	<g id="g97" transform="scale(1,-1) translate(0,-2048)" display="none">
		<path id="path99" d="M143,745q0,352,168,563.5t451,211.5q82,0,153-15,88-18,162-45v-184q-77,37-153.5,55.5t-153.5,18.5q-201,0-305-136-106-137-121-407,59,88,148,133,90,47,196,47,225,0,356-137,129-135,130-371,0-230-136-368-135-139-362-140-258,0-395.5,198.5t-137.5,575.5zm238-266q0-162,80-254,82-94,215-94t215,94q80,92,80,254t-80,254q-82,94-215,94t-215-94q-80-92-80-254z"/>
	</g>
	<g id="g101" transform="scale(1,-1) translate(0,-2048)" display="none">
		<path id="path103" d="M168,1323v170h960v-86l-542-1407h-211l510,1323h-717z"/>
	</g>
	<g id="g105" transform="scale(1,-1) translate(0,-2048)" display="none">
		<path id="path107" d="M139,420q0,145,82,242,84,100,228,133-127,31-203,120-72,86-72,218,0,180,127,282,129,104,350,105,224,0,350-105,127-104,127-282,0-129-73-218-76-90-201-120,143-33,227-133,82-96,82-242,0-217-133-334-129-115-379-115t-379,115q-133,117-133,334zm203,0q0-135,82-211,84-78,227.5-78t227.5,78q82,76,82,211,0,137-82,213t-227.5,76-227.5-76-82-213zm33,694q0-115,74-180,76-66,202.5-66t202.5,66q74,66,74,180.5t-74,179.5q-76,66-203,66t-202-66q-74-65-74-180z"/>
	</g>
	<g id="g109" transform="scale(1,-1) translate(0,-2048)" display="none">
		<path id="path111" d="M129,1012q0,230,135,368,135,139,363,140,260,0,395-199,137-203,137-576,0-352-168-563t-450-211q-82,0-154,15-88,18-162,45v184q77-37,154-55,76-18,153-19,201,0,306,135,106,137,120,408-57-84-147-131t-197-47q-225,0-354,135-131,138-131,371zm203,0q0-162,80-254,82-94,215-94t215,94q80,92,80,254t-80,254q-82,94-215,94t-215-94q-80-92-80-254z"/>
	</g>
	<g id="g113" horiz-adv-x="688" transform="scale(1,-1) translate(0,-2048)" display="none">
		<path id="path115" d="M240,0v254h211v-254h-211zm0,805v254h211v-254h-211z"/>
	</g>
	<g id="g117" horiz-adv-x="688" transform="scale(1,-1) translate(0,-2048)" display="none">
		<path id="path119" d="M158-238l82,320v172h211v-172l-164-320h-129zm82,1043v254h211v-254h-211z"/>
	</g>
	<g id="g121" horiz-adv-x="1714" transform="scale(1,-1) translate(0,-2048)" display="none">
		<path id="path123" d="M217,559v166l1282,465v-182l-1032-367,1032-365v-182z"/>
	</g>
	<g id="g125" horiz-adv-x="1714" transform="scale(1,-1) translate(0,-2048)" display="none">
		<path id="path127" d="M217,352v170h1282v-170h-1282zm0,410v168h1282v-168h-1282z"/>
	</g>
	<g id="g129" horiz-adv-x="1714" transform="scale(1,-1) translate(0,-2048)" display="none">
		<path id="path131" d="M217,94v182l1030,365-1030,367v182l1282-465v-166z"/>
	</g>
	<g id="g133" horiz-adv-x="1085" transform="scale(1,-1) translate(0,-2048)" display="none">
		<path id="path135" d="M147,1219v188q95,58,191,86,92,27,199,27,186,0,294-97,113-100,113-256,0-78-37-145-39-70-125-154l-88-86q-55-55-67-73-16-25-27-52-4-16-8-51-4-41-4-82v-123h-191v154q0,98,29,166,29,66,117,151l90,89q55,49,82,100,27,49,26,96,0,88-65.5,143.5t-173.5,55.5q-76,0-168-35-85-30-187-102zm244-1219v254h203v-254h-203z"/>
	</g>
	<g id="g137" horiz-adv-x="2048" transform="scale(1,-1) translate(0,-2048)" display="none">
		<path id="path139" d="M135,543q0,182,68,348,66,160,194,289,131,129,297,194,170,68,359,68,212,0,393-86,180-86,305-248,76-100,115-213,39-111,39-238,0-266-158-415-162-152-440-158v154q-61-76-137-113t-181-37q-174,0-280.5,125t-106.5,323.5,109,325.5q106,125,278,125,104,0,180-37,78-37,138-114v131h143v-736q145,20,229,134,82,109,82,288,0,98-32,201-31,96-95,174-102,129-254,201-147,70-325,69-125,0-236-32-119-35-209-97-156-100-245-268-88-164-89-358,0-162,58-297,58-138,166-246,100-100,243-158,138-55,295-55,129,0,254,43,115,39,228,125l90-111q-125-96-273-149-145-51-299-51-184,0-350,65-162,63-291,191-127,123-194,290-68,167-68,353zm627-6.5q0-139.5,72-223.5,70-82,194-82,123,0,193,82,72,84,71.5,223.5t-71.5,223.5q-70,82-195,82-123,0-192-82-72-84-72-223.5z"/>
	</g>
	<g id="g141" horiz-adv-x="1400" transform="matrix(1,0,0,-1,0,2048)" display="none">
		<path id="path143" d="m586,1493,229,0l569-1493h-210l-136,383zm160-942-275,743z"/>
		<path id="path145" d="m16,0,570,1493,229,0l-450-1110-136-383zm410,551,274,743z"/>
		<path id="path147" d="m177.79,435.8,1042.5,0-56.569,129.3-937.42,0z"/>
	</g>
	<g id="g149" horiz-adv-x="1404" transform="scale(1,-1) translate(0,-2048)" display="none">
		<path id="path151" d="M201,0v1493h516q229,0,356-96,125-94,125-273,0-141-63.5-219t-188.5-100q147-31,232-133,82-100,82-254,0-201-136-309-137-109-387-109h-536zm202,166h324q162,0,242,67,78,66,78,207.5t-78,207-242,65.5h-324v-547zm0,711h299q145,0,219,55t74,170-73.5,170-219.5,55h-299v-450z"/>
	</g>
	<g id="g153" horiz-adv-x="1429" transform="scale(1,-1) translate(0,-2048)" display="none">
		<path id="path155" d="M115,745.5q0,356.5,194,567.5,193,207,535,207,139,0,252-35,121-37,223-107v-213q-102,96-217,142-119,47-246,47-256,0-391-156-137-160-137-452.5t137-452.5q135-156,391-156,127,0,246,47,115,45,217,142v-211q-113-74-225.5-109t-249.5-35q-342,0-535,207-194,211-194,567.5z"/>
	</g>
	<g id="g157" horiz-adv-x="1576" transform="scale(1,-1) translate(0,-2048)" display="none">
		<path id="path159" d="M201,0v1493h415q436,0,637-180,203-181,203-565,0-385-205-568-201-180-635-180h-415zm202,166h244q311,0,453,139,143,141,143,443,0,303-143,440-145,139-453,139h-244v-1161z"/>
	</g>
	<g id="g161" horiz-adv-x="1292" transform="scale(1,-1) translate(0,-2048)" display="none">
		<path id="path163" d="M201,0v1493h944v-170h-742v-442h711v-170h-711v-541h760v-170h-962z"/>
	</g>
	<g id="g165" horiz-adv-x="1177" transform="scale(1,-1) translate(0,-2048)" display="none">
		<path id="path167" d="M201,0v1493h858v-170h-656v-440h592v-170h-592v-713h-202z"/>
	</g>
	<g id="g169" horiz-adv-x="1585" transform="scale(1,-1) translate(0,-2048)" display="none">
		<path id="path171" d="M115,745.5q0,360.5,198,569.5,197,205,547,205,152,0,277-35,137-39,243-107v-215q-109,92-237,144-121,47-266,47-273,0-412-154-137-152-137-455t137-454q138-154,412-154,108,0,190,19,88,18,152,57v401h-330v166h530v-641q-115-82-258-125-141-43-301-43-350,0-547,205-198,209-198,569.5z"/>
	</g>
	<g id="g173" horiz-adv-x="1538" transform="scale(1,-1) translate(0,-2048)" display="none">
		<path id="path175" d="M201,0v1493h202v-612h734v612h202v-1493h-202v711h-734v-711h-202z"/>
	</g>
	<g id="g177" horiz-adv-x="602" transform="scale(1,-1) translate(0,-2048)" display="none">
		<path id="path179" d="M201,0v1493h202v-1493h-202z"/>
	</g>
	<g id="g181" horiz-adv-x="602" transform="scale(1,-1) translate(0,-2048)" display="none">
		<path id="path183" d="M-106-240h63q133,0,188.5,74t55.5,270v1389h202v-1389q0-268-102-393-100-121-330-121h-77v170z"/>
	</g>
	<g id="g185" horiz-adv-x="1341" transform="scale(1,-1) translate(0,-2048)" display="none">
		<path id="path187" d="M201,0v1493h202v-631l670,631h260l-741-696,794-797h-266l-717,719v-719h-202z"/>
	</g>
	<g id="g189" horiz-adv-x="1140" transform="scale(1,-1) translate(0,-2048)" display="none">
		<path id="path191" d="M201,0v1493h202v-1323h727v-170h-929z"/>
	</g>
	<g id="g193" horiz-adv-x="1765" transform="scale(1,-1) translate(0,-2048)" display="none">
		<path id="path195" d="M201,0v1493h301l381-1016,383,1016h301v-1493h-197v1311l-385-1024h-203l-385,1024v-1311h-196z"/>
	</g>
	<g id="g197" horiz-adv-x="1531" transform="scale(1,-1) translate(0,-2048)" display="none">
		<path id="path199" d="M201,0v1493h272l662-1249v1249h196v-1493h-272l-662,1249v-1249h-196z"/>
	</g>
	<g id="g201" horiz-adv-x="1611" transform="scale(1,-1) translate(0,-2048)" display="none">
		<path id="path203" d="M115,745q0,350,188,564,186,211,504,211,315,0,502-211,188-213,188-563.5t-188-563.5q-186-211-502-211t-504,209q-188,211-188,565zm213,0.5q0-282.5,129-446.5t350-164q219,0,348,164t129,446.5-129,446.5-348,164q-221,0-350-164t-129-446.5z"/>
	</g>
	<g id="g205" horiz-adv-x="1234" transform="scale(1,-1) translate(0,-2048)" display="none">
		<path id="path207" d="M201,0v1493h456q252,0,379-113,129-115,129-334t-129-333q-127-113-379-113h-254v-600h-202zm202,766h254q141,0,217,74,78,74,78,207t-78,206q-76,74-217,74h-254v-561z"/>
	</g>
	<g id="g209" horiz-adv-x="1611" transform="matrix(1,0,0,-1,0,2048)" display="none">
		<path id="path211" d="m115,745.5q0,350.5,188,563.5,186,211,504,211,315,0,502-211,188-213,188-564,0-262-104-446-102-182-303-272l266-291h-244l-221,239q-16,0-28.5-2t-22.5-2h-33q-317,0-504,211-188,213-188,563.5zm213,0q0-282.5,129-446.5t350-164q219,0,348,164t129,446.5-129,446.5-348,164q-221,0-350-164t-129-446.5z"/>
	</g>
	<g id="g213" horiz-adv-x="1421" transform="scale(1,-1) translate(0,-2048)" display="none">
		<path id="path215" d="M201,0v1493h456q256,0,381-107,127-109,127-323,0-139-65-234-65-92-191-129,63-20,127-94,59-68,123-198l205-408h-217l-191,383q-74,150-143,199-71,49-190,49h-220v-631h-202zm202,797h254q145,0,220,67,76,70,75,199,0,127-75,197-74,68-220,67h-254v-530z"/>
	</g>
	<g id="g217" horiz-adv-x="1298" transform="matrix(1,0,0,-1,0,2048)" display="none">
		<path id="path219" d="m135,1094q0,199,139,313,137,113,385,113,106,0,213-19,98-16,224-57v-197q-106,51-217,82-98,27-197,27-166,0-254-64-90-66-90-182,0-100,59-149,61-51,226-82l122-25q225-43,334-152,106-106,107-290,0-217-146-328-147-113-426-113-106,0-225,25-125,25-248,70v208q133-74,242-104,121-35,231-35,172,0,266.5,67.5t94.5,194.5q0,111-67.5,172.5t-221.5,92.5l-123,24q-225,45-327,141-101,95-101,267z"/>
	</g>
	<g id="g221" horiz-adv-x="1249" transform="scale(1,-1) translate(0,-2048)" display="none">
		<path id="path223" d="M-6,1323v170h1263v-170h-530v-1323h-203v1323h-530z"/>
	</g>
	<g id="g225" horiz-adv-x="1497" transform="scale(1,-1) translate(0,-2048)" display="none">
		<path id="path227" d="M178,561v932h203v-907q0-240,88-346,86-104,280.5-104.5t280.5,104.5q88,106,88,346v907h203v-932q0-289-145-440-143-150-426-150-285,0-428.5,149.5t-143.5,440.5z"/>
	</g>
	<g id="g229" horiz-adv-x="1400" transform="scale(1,-1) translate(0,-2048)" display="none">
		<path id="path231" d="M16,1493h211l473-1257,474,1257h210l-569-1493h-229z"/>
	</g>
	<g id="g233" horiz-adv-x="2023" transform="matrix(1,0,0,-1,0,2048)" display="none">
		<path id="path235" d="M68,1493h204l314-1262,313,1262h227l314-1262,313,1262h205l-375-1493h-254l-315,1296-318-1296h-254z"/>
	</g>
	<g id="g237" horiz-adv-x="1402" transform="matrix(1,0,0,-1,0,2048)" display="none">
		<path id="path239" d="m61,0,533,797-465,696h217l371-555,373,555h217l-480-717,512-776h-217l-420,635-423-635h-218z"/>
	</g>
	<g id="g241" horiz-adv-x="1249" transform="scale(1,-1) translate(0,-2048)" display="none">
		<path id="path243" d="M-4,1493h217l414-614,411,614h217l-528-782v-711h-203v711z"/>
	</g>
	<g id="g245" horiz-adv-x="1402" transform="scale(1,-1) translate(0,-2048)" display="none">
		<path id="path247" d="M92,0v154l944,1169h-921v170h1173v-154l-944-1169h967v-170h-1219z"/>
	</g>
	<g id="g249" horiz-adv-x="798" transform="scale(1,-1) translate(0,-2048)" display="none">
		<path id="path251" d="M176-270v1826h424v-143h-240v-1540h240v-143h-424z"/>
	</g>
	<g id="g253" horiz-adv-x="688" transform="scale(1,-1) translate(0,-2048)" display="none">
		<path id="path255" d="M0,1493h170l520-1683h-170z"/>
	</g>
	<g id="g257" horiz-adv-x="798" transform="scale(1,-1) translate(0,-2048)" display="none">
		<path id="path259" d="M199-127h239v1540h-239v143h424v-1826h-424v143z"/>
	</g>
	<g id="g261" horiz-adv-x="1714" transform="scale(1,-1) translate(0,-2048)" display="none">
		<path id="path263" d="M217,936l543,557h196l543-557h-201l-440,395-440-395h-201z"/>
	</g>
	<g id="g265" horiz-adv-x="1024" transform="scale(1,-1) translate(0,-2048)" display="none">
		<path id="path267" d="M-20-340h1064v-143h-1064v143z"/>
	</g>
	<g id="g269" horiz-adv-x="1024" transform="matrix(1,0,0,-1,0,2048)" display="none">
		<path id="path271" d="M170,1638h197l282-374h-153z"/>
	</g>
	<g id="g273" horiz-adv-x="1253" fill-rule="nonzero" transform="matrix(1,0,0,-1,0,2048)" display="none">
		<path id="path5515" opacity="0.6" style="enable-background:accumulate;color:#000000;" d="M1355.5,577.61c0-319-258.6-577.61-577.65-577.61-319,0-577.61,258.61-577.61,577.61h1155.2z" fill="#0091cc"/>
		<path id="path5515-2" opacity="0.6" style="enable-background:accumulate;color:#000000;" d="m200.24,566.61c0,319.01,258.61,577.61,577.61,577.61,319.01,0,577.61-258.61,577.61-577.61h-1155.2z" fill="#ed2e38"/>
		<path id="path5540" opacity="0.6" style="enable-background:accumulate;color:#000000;" d="m1351.6-0.00003c-319.01,0-577.61,258.61-577.61,577.61,0,319.01,258.61,577.61,577.61,577.61v-1155.2z" fill="#e60094"/>
	</g>
	<g id="g277" horiz-adv-x="1298" fill-rule="nonzero" transform="matrix(1,0,0,-1,0,2048)" display="none">
		<path id="path5515-24" opacity="0.6" style="enable-background:accumulate;color:#000000;" d="M1355.5,577.61c0-319-258.6-577.61-577.65-577.61-319,0-577.61,258.61-577.61,577.61h1155.2z" fill="#0091cc"/>
		<path id="path5515-2-4" opacity="0.6" style="enable-background:accumulate;color:#000000;" d="m200.24,567.61c0,319.01,258.61,577.61,577.61,577.61,319.01,0,577.61-258.61,577.61-577.61h-1155.2z" fill="#ed2e38"/>
		<path id="path5540-1" opacity="0.6" style="enable-background:accumulate;color:#000000;" d="m200.24,400.77c319.01,0,577.61,258.61,577.61,577.61,0,319.01-258.61,577.61-577.61,577.61v-1155.2z" fill="#e60094"/>
	</g>
	<g id="g281" horiz-adv-x="1124" fill-rule="nonzero" transform="matrix(1,0,0,-1,0,2048)" display="none">
		<path id="path5515-4" opacity="0.6" style="enable-background:accumulate;color:#000000;" d="m1186.3,169.18c-225.57-225.57-591.3-225.57-816.87,0s-225.57,591.3,0,816.87c272.28-272.29,544.57-544.58,816.87-816.87z" fill="#0091cc"/>
		<path id="path5515-2-0" opacity="0.6" style="enable-background:accumulate;color:#000000;" d="m369.42,169.18c-225.57,225.57-225.57,591.3,0,816.87s591.3,225.57,816.87,0.00001c-272.3-272.29-544.59-544.58-816.88-816.87z" fill="#ed2e38"/>
	</g>
	<g id="g285" horiz-adv-x="1298" fill-rule="nonzero" transform="matrix(1,0,0,-1,0,2048)" display="none">
		<path id="path5515-23" opacity="0.6" style="enable-background:accumulate;color:#000000;" d="M1355.5,577.61c0-319-258.6-577.61-577.65-577.61-319,0-577.61,258.61-577.61,577.61h1155.2z" fill="#0091cc"/>
		<path id="path5515-2-3" opacity="0.6" style="enable-background:accumulate;color:#000000;" d="m200.24,567.61c0,319.01,258.61,577.61,577.61,577.61,319.01,0,577.61-258.61,577.61-577.61h-1155.2z" fill="#ed2e38"/>
		<path id="path5540-2" opacity="0.6" style="enable-background:accumulate;color:#000000;" d="m1351.6,400.48c-319.01,0-577.61,258.61-577.61,577.61,0,319.01,258.61,577.61,577.61,577.61v-1155.2z" fill="#e60094"/>
	</g>
	<g id="g289" horiz-adv-x="1259" fill-rule="nonzero" transform="matrix(1,0,0,-1,0,2048)" display="none">
		<path id="path5515-6" opacity="0.6" style="enable-background:accumulate;color:#000000;" d="m1186.3,169.18c-225.57-225.57-591.3-225.57-816.87,0s-225.57,591.3,0,816.87c272.28-272.29,544.57-544.58,816.87-816.87z" fill="#0091cc"/>
		<path id="path5515-2-2" opacity="0.6" style="enable-background:accumulate;color:#000000;" d="m200.24,577.61c0,319.01,258.61,577.61,577.61,577.61,319.01,0,577.61-258.61,577.61-577.61h-1155.2z" fill="#ed2e38"/>
	</g>
	<g id="g293" horiz-adv-x="720" fill-rule="nonzero" transform="matrix(1,0,0,-1,0,2048)" display="none">
		<path id="path5515-8" opacity="0.6" style="enable-background:accumulate;color:#000000;" d="m200.24,577.61c0,319.01,258.61,577.61,577.61,577.61,319.01,0,577.61-258.61,577.61-577.61h-1155.2z" fill="#0091cc"/>
		<path id="path5515-2-08" opacity="0.6" style="enable-background:accumulate;color:#000000;" d="m200.24,978.39c0,319.01,258.61,577.61,577.61,577.61,319.01,0,577.61-258.61,577.61-577.61h-1155.2z" fill="#ed2e38"/>
		<path id="path5540-11" opacity="0.6" style="enable-background:accumulate;color:#000000;" d="m200.24,0c319.01,0,577.61,258.61,577.61,577.61,0,319.01-258.61,577.61-577.61,577.61v-1155.2z" fill="#e60094"/>
	</g>
	<g id="g297" horiz-adv-x="1298" fill-rule="nonzero" transform="matrix(1,0,0,-1,0,2048)" display="none">
		<path id="path5515-89" opacity="0.6" style="enable-background:accumulate;color:#000000;" d="m1182.4,984.44c225.57-225.57,225.57-591.3,0-816.87s-591.3-225.57-816.87,0l816.87,816.87z" fill="#0091cc"/>
		<path id="path5515-2-7" opacity="0.6" style="enable-background:accumulate;color:#000000;" d="m373.31,159.79c-225.57,225.57-225.57,591.3,0,816.87s591.3,225.57,816.87,0.00001c-272.31-272.29-544.6-544.58-816.89-816.87z" fill="#ed2e38"/>
		<path id="path5540-4" opacity="0.6" style="enable-background:accumulate;color:#000000;" d="m1159.3,402.29c225.57-225.57,225.57-591.3,0-816.87s-591.3-225.57-816.87,0.00002l816.87,816.87z" fill="#e60094"/>
	</g>
	<g id="g301" horiz-adv-x="1296" fill-rule="nonzero" transform="matrix(1,0,0,-1,0,2048)" display="none">
		<path id="path5515-23-8" opacity="0.6" style="enable-background:accumulate;color:#000000;" d="m369.42-0.82062c-225.57,225.57-225.57,591.3,0,816.87s591.3,225.57,816.87,0c-272.3-272.29-544.59-544.58-816.88-816.87z" fill="#0091cc"/>
		<path id="path5515-2-3-0" opacity="0.6" style="enable-background:accumulate;color:#000000;" d="m362.35,808.98c225.57,225.57,591.3,225.57,816.87,0s225.57-591.3,0-816.87c-272.27,272.29-544.56,544.58-816.85,816.87z" fill="#ed2e38"/>
		<path id="path5540-2-8" opacity="0.6" style="enable-background:accumulate;color:#000000;" d="m204.09,1555.7c319.01,0,577.61-258.61,577.61-577.61,0-319.01-258.61-577.61-577.61-577.61v1155.2z" fill="#e60094"/>
	</g>
	<g id="g305" horiz-adv-x="567" fill-rule="nonzero" transform="matrix(1,0,0,-1,0,2048)" display="none">
		<path id="path5515-23-4" opacity="0.6" style="enable-background:accumulate;color:#000000;" d="m205.24,1150.2c319.01,0,577.61-258.61,577.61-577.61,0-319.01-258.61-577.61-577.61-577.61v1155.2z" fill="#0091cc"/>
		<path id="path5515-2-3-7" opacity="0.6" style="enable-background:accumulate;color:#000000;" d="m782.85-5c-319.01,0-577.61,258.61-577.61,577.61,0,319.01,258.61,577.61,577.61,577.61v-1155.2z" fill="#ed2e38"/>
	</g>
	<g id="g309" horiz-adv-x="567" fill-rule="nonzero" transform="matrix(1,0,0,-1,0,2048)" display="none">
		<path id="path5515-23-9" opacity="0.6" style="enable-background:accumulate;color:#000000;" d="M1355.5,577.61c0-319-258.6-577.61-577.65-577.61-319,0-577.61,258.61-577.61,577.61h1155.2z" fill="#0091cc"/>
		<path id="path5515-2-3-02" opacity="0.6" style="enable-background:accumulate;color:#000000;" d="m777.85,1145.2c319.01,0,577.61-258.61,577.61-577.61,0-319.01-258.61-577.61-577.61-577.61v1155.2z" fill="#ed2e38"/>
	</g>
	<g id="g313" horiz-adv-x="1185" fill-rule="nonzero" transform="matrix(1,0,0,-1,0,2048)" display="none">
		<path id="path5515-23-8-5" opacity="0.6" style="enable-background:accumulate;color:#000000;" d="m1167.1,164.19c-225.57-225.57-591.3-225.57-816.87,0s-225.57,591.3,0,816.87c272.29-272.29,544.58-544.58,816.87-816.87z" fill="#0091cc"/>
		<path id="path5515-2-3-0-9" opacity="0.6" style="enable-background:accumulate;color:#000000;" d="m357.3,157.12c-225.57,225.57-225.57,591.3,0,816.87s591.3,225.57,816.87,0c-272.32-272.29-544.61-544.58-816.9-816.87z" fill="#ed2e38"/>
		<path id="path5540-2-8-5" opacity="0.6" style="enable-background:accumulate;color:#000000;" d="m200.24,1155.2c319.01,0,577.61-258.61,577.61-577.61,0-318.98-258.6-577.59-577.61-577.59v1155.2z" fill="#e60094"/>
	</g>
	<g id="g317" horiz-adv-x="567" fill-rule="nonzero" transform="matrix(1,0,0,-1,0,2048)" display="none">
		<path id="path5515-23-9-1" opacity="0.6" style="enable-background:accumulate;color:#000000;" d="m1355.5,0.0001c0,319.01-258.61,577.61-577.61,577.61-319.01,0-577.61-258.61-577.61-577.61h1155.2z" fill="#0091cc"/>
		<path id="path5515-2-3-02-3" opacity="0.6" style="enable-background:accumulate;color:#000000;" d="m200.24,1155.2c319.01,0,577.61-258.61,577.61-577.61,0-318.98-258.6-577.59-577.61-577.59v1155.2z" fill="#ed2e38"/>
	</g>
	<g id="g321" horiz-adv-x="1994" fill-rule="nonzero" transform="matrix(1,0,0,-1,0,2048)" display="none">
		<path id="path5515-5" opacity="0.6" style="enable-background:accumulate;color:#000000;" d="m1340.1,577.61c0,319.01-258.61,577.61-577.61,577.61-319.01,0-577.61-258.61-577.61-577.61h1155.2z" fill="#0091cc"/>
		<path id="path5515-2-75" opacity="0.6" style="enable-background:accumulate;color:#000000;" d="m766.3,1155.2c319.01,0,577.61-258.61,577.61-577.61,0-318.98-258.6-577.59-577.6-577.59v1155.2z" fill="#ed2e38"/>
		<path id="path5540-0" opacity="0.6" style="enable-background:accumulate;color:#000000;" d="m191.19,0c319.01,0,577.61,258.61,577.61,577.61,0,319.01-258.61,577.61-577.61,577.61v-1155.2z" fill="#e60094"/>
		<path id="path3254" opacity="0.6" style="enable-background:accumulate;color:#000000;" d="m1925.4,577.61c0,319.01-258.61,577.61-577.61,577.61-319.01,0-577.61-258.61-577.61-577.61h1155.2z" fill="#0091cc"/>
		<path id="path3256" opacity="0.6" style="enable-background:accumulate;color:#000000;" d="m1351.6,1155.2c319.01,0,577.61-258.61,577.61-577.61,0-318.98-258.6-577.59-577.6-577.59v1155.2z" fill="#ed2e38"/>
	</g>
	<g id="g325" horiz-adv-x="1296" fill-rule="nonzero" transform="matrix(1,0,0,-1,0,2048)" display="none">
		<path id="path5515-5-4" opacity="0.6" style="enable-background:accumulate;color:#000000;" d="m1340.1,577.61c0,319.01-258.61,577.61-577.61,577.61-319.01,0-577.61-258.61-577.61-577.61h1155.2z" fill="#0091cc"/>
		<path id="path5515-2-75-9" opacity="0.6" style="enable-background:accumulate;color:#000000;" d="m766.3,1155.2c319.01,0,577.61-258.61,577.61-577.61,0-318.98-258.6-577.59-577.6-577.59v1155.2z" fill="#ed2e38"/>
		<path id="path5540-0-7" opacity="0.6" style="enable-background:accumulate;color:#000000;" d="m191.19,0c319.01,0,577.61,258.61,577.61,577.61,0,319.01-258.61,577.61-577.61,577.61v-1155.2z" fill="#e60094"/>
	</g>
	<g id="g329" horiz-adv-x="1251" fill-rule="nonzero" transform="matrix(1,0,0,-1,0,2048)" display="none">
		<path id="path5515-5-0" opacity="0.6" style="enable-background:accumulate;color:#000000;" d="m1172,980.83c-225.57,225.57-591.3,225.57-816.87-0.0001s-225.57-591.3,0-816.87l816.87,816.87z" fill="#0091cc"/>
		<path id="path5515-2-75-4" opacity="0.6" style="enable-background:accumulate;color:#000000;" d="m1171.7,986.05c225.57-225.57,225.57-591.3,0-816.87s-591.3-225.57-816.87,0.00004l816.87,816.87z" fill="#ed2e38"/>
	</g>
	<g id="g333" horiz-adv-x="1298" fill-rule="nonzero" transform="matrix(1,0,0,-1,0,2048)" display="none">
		<path id="path5515-5-9" opacity="0.6" style="enable-background:accumulate;color:#000000;" d="m1172,983.33c-225.57,225.57-591.3,225.57-816.87-0.0001s-225.57-591.3,0-816.87l816.87,816.87z" fill="#0091cc"/>
		<path id="path5515-2-75-5" opacity="0.6" style="enable-background:accumulate;color:#000000;" d="m1174.7,986.05c225.57-225.57,225.57-591.3,0-816.87s-591.3-225.57-816.87,0.00004l816.87,816.87z" fill="#ed2e38"/>
		<path id="path5540-0-3" opacity="0.6" style="enable-background:accumulate;color:#000000;" d="m200.24-252c319.01,0,577.61,258.61,577.61,577.61,0,319.01-258.61,577.61-577.61,577.61v-1155.2z" fill="#e60094"/>
	</g>
	<g id="g337" horiz-adv-x="1298" fill-rule="nonzero" transform="matrix(1,0,0,-1,0,2048)" display="none">
		<path id="path5515-2-75-5-3" opacity="0.6" style="enable-background:accumulate;color:#000000;" d="m355.14,986.05c-225.57-225.57-225.57-591.3,0-816.87s591.3-225.57,816.87,0c-272.29,272.29-544.58,544.58-816.87,816.87z" fill="#ed2e38"/>
		<path id="path5515-5-9-5" opacity="0.6" style="enable-background:accumulate;color:#000000;" d="m357.87,983.33c225.57,225.57,591.3,225.57,816.87-0.0001s225.57-591.3,0-816.87c-272.29,272.29-544.58,544.58-816.87,816.87z" fill="#0091cc"/>
		<path id="path5540-0-3-3" opacity="0.6" style="enable-background:accumulate;color:#000000;" d="m1329.6-252c-319.01,0-577.61,258.61-577.61,577.61,0,319.01,258.61,577.61,577.61,577.61v-1155.2z" fill="#e60094"/>
	</g>
	<g id="g341" horiz-adv-x="841" fill-rule="nonzero" transform="matrix(1,0,0,-1,0,2048)" display="none">
		<path id="path5515-2-75-5-3-3" opacity="0.6" style="enable-background:accumulate;color:#000000;" d="M777.85,1162.9c-319,0-577.61-258.58-577.61-577.58,0-319.01,258.61-577.62,577.61-577.62,0.00006,385.08,0,770.15,0.00003,1155.2z" fill="#ed2e38"/>
		<path id="path5515-5-9-5-6" opacity="0.6" style="enable-background:accumulate;color:#000000;" d="m180.91,583.58c-0.00003,319.01,258.61,577.61,577.61,577.61,319.01,0.0001,577.61-258.61,577.61-577.61-385.08,0.00001-770.15,0.00002-1155.2-0.00004z" fill="#0091cc"/>
		<path id="path5540-0-3-3-0" opacity="0.6" style="enable-background:accumulate;color:#000000;" d="m200.24,0c319.01,0,577.61,258.61,577.61,577.61,0,319.01-258.61,577.61-577.61,577.61v-1155.2z" fill="#e60094"/>
	</g>
	<g id="g345" horiz-adv-x="1064" fill-rule="nonzero" transform="matrix(1,0,0,-1,0,2048)" display="none">
		<path id="path5515-2-75-5-3-0" opacity="0.6" style="enable-background:accumulate;color:#000000;" d="m1327.9,986.05c-225.57,225.57-591.3,225.57-816.87,0s-225.57-591.3,0-816.87l816.87,816.87z" fill="#ed2e38"/>
		<path id="path5515-5-9-5-3" opacity="0.6" style="enable-background:accumulate;color:#000000;" d="m1017.1,983.33c225.57-225.57,225.57-591.3-0.0001-816.87s-591.3-225.57-816.87,0l816.87,816.87z" fill="#0091cc"/>
	</g>
	<g id="g349" horiz-adv-x="802" fill-rule="nonzero" transform="matrix(1,0,0,-1,0,2048)" display="none">
		<path id="path5515-2-75-5-3-3-5" opacity="0.6" style="enable-background:accumulate;color:#000000;" d="m1044.7,1446.9c-319.01,0-577.61-258.61-577.61-577.61-0.00003-319.01,258.61-577.61,577.61-577.61v1155.2z" fill="#ed2e38"/>
		<path id="path5515-5-9-5-6-2" opacity="0.6" style="enable-background:accumulate;color:#000000;" d="m180.91,1161.2c-0.00003-319.01,258.61-577.61,577.61-577.61,319.01-0.0001,577.61,258.61,577.61,577.61-385.08,0-770.15,0-1155.2,0.0001z" fill="#0091cc"/>
		<path id="path5540-0-3-3-0-3" opacity="0.6" style="enable-background:accumulate;color:#000000;" d="m467.09,0c319.01,0,577.61,258.61,577.61,577.61,0,319.01-258.61,577.61-577.61,577.61v-1155.2z" fill="#e60094"/>
	</g>
	<g id="g353" horiz-adv-x="1296" fill-rule="nonzero" transform="matrix(1,0,0,-1,0,2048)" display="none">
		<path id="path5515-4-5" opacity="0.6" style="enable-background:accumulate;color:#000000;" d="m1185.9,978.09c225.57-225.57,225.57-591.3,0-816.87s-591.3-225.57-816.87,0c272.3,272.29,544.59,544.58,816.87,816.87z" fill="#0091cc"/>
		<path id="path5515-2-0-1" opacity="0.6" style="enable-background:accumulate;color:#000000;" d="m1185.9,161.22c-225.57-225.57-591.3-225.57-816.87,0s-225.57,591.3,0,816.87c272.29-272.29,544.58-544.58,816.87-816.87z" fill="#ed2e38"/>
	</g>
	<g id="g357" horiz-adv-x="1210" fill-rule="nonzero" transform="matrix(1,0,0,-1,0,2048)" display="none">
		<path id="path5515-4-5-1" opacity="0.6" style="enable-background:accumulate;color:#000000;" d="M499.23-25.275c308.14,82.565,491,399.3,408.44,707.42-82.57,308.14-399.29,491.05-707.43,408.45,99.66-371.97,199.33-743.92,298.99-1115.9z" fill="#0091cc"/>
		<path id="path5515-2-0-1-9" opacity="0.6" style="enable-background:accumulate;color:#000000;" d="M1183.5,1094.4c-308.19,82.6-624.91-100.26-707.48-408.39-82.56-308.14,100.3-624.87,408.44-707.44,99.66,371.96,199.34,743.92,299.04,1115.8z" fill="#ed2e38"/>
	</g>
	<g id="g361" horiz-adv-x="1673" fill-rule="nonzero" transform="matrix(1,0,0,-1,0,2048)" display="none">
		<path id="path5515-4-5-1-6" opacity="0.6" style="enable-background:accumulate;color:#000000;" d="M499.23-25.276c308.14,82.566,491,399.3,408.44,707.43-82.57,308.14-399.29,491.05-707.43,408.45,99.66-371.97,199.33-743.92,298.99-1115.9z" fill="#0091cc"/>
		<path id="path5515-2-0-1-9-0" opacity="0.6" style="enable-background:accumulate;color:#000000;" d="M1183.5,1094.4c-308.19,82.6-624.91-100.26-707.48-408.39-82.56-308.14,100.3-624.87,408.44-707.44,99.66,371.96,199.34,743.92,299.04,1115.8z" fill="#ed2e38"/>
		<path id="path5515-4-5-1-7" opacity="0.6" style="enable-background:accumulate;color:#000000;" d="m1207.8-25.276c308.14,82.565,491,399.29,408.43,707.43-82.565,308.14-399.29,491-707.43,408.43,99.665-371.95,199.33-743.91,299-1115.9z" fill="#0091cc"/>
		<path id="path5515-2-0-1-9-2" opacity="0.6" style="enable-background:accumulate;color:#000000;" d="m1892,1094.4c-308.14,82.565-624.86-100.3-707.43-408.43-82.565-308.14,100.3-624.86,408.44-707.43,99.665,371.95,199.33,743.91,299,1115.9z" fill="#ed2e38"/>
	</g>
	<g id="g365" horiz-adv-x="1210" fill-rule="nonzero" transform="matrix(1,0,0,-1,0,2048)" display="none">
		<path id="path5515-4-5-13" opacity="0.6" style="enable-background:accumulate;color:#000000;" d="m1201.7,1155.2c225.57-225.57,225.57-591.3,0-816.87s-591.3-225.57-816.87,0l816.87,816.87z" fill="#0091cc"/>
		<path id="path5515-2-0-1-4" opacity="0.6" style="enable-background:accumulate;color:#000000;" d="m1201.7,338.36c-225.57-225.57-591.3-225.57-816.87,0s-225.57,591.3,0,816.87c272.28-272.26,544.57-544.55,816.87-816.84z" fill="#ed2e38"/>
		<path id="path5515-4-5-8" opacity="0.6" style="enable-background:accumulate;color:#000000;" d="m1193.1-37.56c225.57,225.57,225.57,591.3,0,816.87s-591.3,225.57-816.87,0c272.29-272.29,544.58-544.58,816.87-816.87z" fill="#0091cc"/>
		<path id="path5515-2-0-1-6" opacity="0.6" style="enable-background:accumulate;color:#000000;" d="m1193.1,779.31c-225.57,225.57-591.3,225.57-816.87,0s-225.57-591.3,0-816.87l816.87,816.87z" fill="#ed2e38"/>
	</g>
	<g id="g369" horiz-adv-x="1210" fill-rule="nonzero" transform="matrix(1,0,0,-1,0,2048)" display="none">
		<path id="path5515-4-5-6" opacity="0.6" style="enable-background:accumulate;color:#000000;" d="m1178.6,978.22c225.57-225.57,225.57-591.3,0-816.87s-591.3-225.57-816.87,0l816.87,816.87z" fill="#0091cc"/>
		<path id="path5515-2-0-1-67" opacity="0.6" style="enable-background:accumulate;color:#000000;" d="m1178.6,161.35c-225.57-225.57-591.3-225.57-816.87,0s-225.57,591.3,0,816.87c272.29-272.29,544.58-544.58,816.87-816.87z" fill="#ed2e38"/>
		<path id="path3538" opacity="0.6" d="m1178.6,416.01c225.57-225.57,225.57-591.3,0-816.87s-591.3-225.57-816.87,0l816.87,816.87z" style="enable-background:accumulate;color:#000000;" fill="#0091cc"/>
	</g>
	<g id="g373" horiz-adv-x="1073" fill-rule="nonzero" transform="matrix(1,0,0,-1,0,2048)">
		<path id="path5515-4-5-84" opacity="0.6" style="enable-background:accumulate;color:#000000;" d="m1139.7,1155.2c225.57-225.57,225.57-591.3,0-816.87s-591.3-225.57-816.87,0l816.87,816.87z" fill="#0091cc"/>
		<path id="path5515-2-0-1-5" opacity="0.6" style="enable-background:accumulate;color:#000000;" d="m200.24-15.978c0.00002,319.01,258.61,577.61,577.61,577.61,319.01,0,577.61-258.61,577.61-577.61-385.08,0.00007-770.15,0.0001-1155.2,0z" fill="#ed2e38"/>
		<path id="path3549" opacity="0.6" d="m200.24,1155.2c0.00002-319.01,258.61-577.61,577.61-577.61,319.01,0,577.61,258.61,577.61,577.61-385.08-0.0001-770.15-0.0001-1155.2,0z" style="enable-background:accumulate;color:#000000;" fill="#ed2e38"/>
		<path id="path3551" opacity="0.6" d="m430.14-7.7016c-225.57,225.57-225.57,591.3,0,816.87s591.3,225.57,816.87,0c-272.28-272.29-544.57-544.58-816.86-816.87z" style="enable-background:accumulate;color:#000000;" fill="#0091cc"/>
	</g>
</svg>
