<?xml version="1.0" encoding="UTF-8" standalone="no"?>
<!-- Generator: Adobe Illustrator 15.0.0, SVG Export Plug-In . SVG Version: 6.00 Build 0)  -->

<svg
   xmlns:dc="http://purl.org/dc/elements/1.1/"
   xmlns:cc="http://creativecommons.org/ns#"
   xmlns:rdf="http://www.w3.org/1999/02/22-rdf-syntax-ns#"
   xmlns:svg="http://www.w3.org/2000/svg"
   xmlns="http://www.w3.org/2000/svg"
   xmlns:sodipodi="http://sodipodi.sourceforge.net/DTD/sodipodi-0.dtd"
   xmlns:inkscape="http://www.inkscape.org/namespaces/inkscape"
   version="1.1"
   id="svg27068"
   inkscape:version="0.48.2 r9819"
   sodipodi:docname="multicolore2.inkscape-font-template.svg"
   sodipodi:dummy2="dummy"
   inkscape:dummy1="dummy"
   x="0px"
   y="0px"
   width="264px"
   height="380px"
   viewBox="0 0 264 380"
   enable-background="new 0 0 264 380"
   xml:space="preserve">
   <metadata
   id="metadata3269">
   <rdf:RDF>
      <cc:Work
   rdf:about="">
         <dc:format>image/svg+xml</dc:format>
         <dc:type
   rdf:resource="http://purl.org/dc/dcmitype/StillImage" />
         <dc:title />
      </cc:Work>
   </rdf:RDF>
</metadata>
<defs
   id="defs3267" />
<sodipodi:namedview
   pagecolor="#ffffff"
   bordercolor="#666666"
   borderopacity="1"
   objecttolerance="10"
   gridtolerance="10"
   guidetolerance="10"
   inkscape:pageopacity="0"
   inkscape:pageshadow="2"
   inkscape:window-width="1920"
   inkscape:window-height="1058"
   id="namedview3265"
   showgrid="false"
   inkscape:zoom="2.2736842"
   inkscape:cx="106.93056"
   inkscape:cy="287.5285"
   inkscape:window-x="0"
   inkscape:window-y="0"
   inkscape:window-maximized="0"
   inkscape:current-layer="R" />
<g
   id="A"
   inkscape:groupmode="layer"
   inkscape:label="A"
   display="none"
   transform="matrix(1,0,0,-1,0,380)"
   style="display:none">  <rect
   x="0"
   y="0"
   width="270.15741"
   height="364"
   style="opacity:0.2;fill:#ff88ff"
   id="rect3941" />
   <path
   id="path206"
   inkscape:connector-curvature="0"
   d="m 24.967031,0.049706 c -3.809,0 -7.672,0.873 -11.301,2.715 -12.3099998,6.254 -17.2209998,21.302 -10.9669998,33.611004 l 110.4719988,217.5 c 6.251,12.309 21.298,17.221 33.611,10.969 12.311,-6.252 17.222,-21.301 10.969,-33.611 L 47.278031,13.733706 c -4.411,-8.682 -13.197,-13.684 -22.311,-13.684"
   style="fill:#3580cb" />
   <path
   id="path222"
   inkscape:connector-curvature="0"
   d="m 245.28215,0.35353838 c -9.115,0 -17.9,5.00200002 -22.311,13.68399962 l -110.472,217.500002 c -6.254,12.31 -1.343,27.359 10.967,33.611 12.311,6.25 27.36,1.341 33.612,-10.969 l 110.473,-217.499998 c 6.253,-12.310004 1.342,-27.3570036 -10.969,-33.6110036 -3.626,-1.842 -7.492,-2.71500002 -11.3,-2.71500002"
   style="fill:#66c430" />
   <path
   id="path238"
   inkscape:connector-curvature="0"
   d="M 221.44603,48.24871 H 49.507031 c -13.808,0 -25,11.191 -25,25 0,13.807 11.192,25 25,25 H 221.44603 c 13.807,0 25,-11.193 25,-25 0,-13.808 -11.194,-25 -25,-25"
   style="fill:#ec0d5d" />

</g>
<g
   id="B"
   inkscape:groupmode="layer"
   inkscape:label="B"
   transform="matrix(1,0,0,-1,0,380)"
   display="none"
   style="display:none">
   
   <rect
   x="0"
   y="0"
   width="227.93518"
   height="364"
   style="fill:none;stroke:#ff00ff;stroke-width:0.2;stroke-miterlimit:4"
   id="rect3976" />
   <path
   id="path22"
   inkscape:connector-curvature="0"
   display="inline"
   d="m 24.831688,-0.0402141 c -13.808,0 -24.9999993,11.1920001 -24.9999993,25.0000001 V 242.45979 c 0,13.808 11.1919993,25 24.9999993,25 13.808,0 25,-11.192 25,-25 V 24.959786 c 0,-13.807 -11.193,-25.0000001 -25,-25.0000001"
   style="fill:#4081cb;display:inline" />
   <path
   id="path38"
   inkscape:connector-curvature="0"
   display="inline"
   d="M 133.33469,217.45979 H 24.830688 c -13.807,0 -24.9999993,11.192 -24.9999993,25 0,13.808 11.1929993,25 24.9999993,25 H 133.33469 c 13.807,0 25,-11.192 25,-25 0,-13.808 -11.193,-25 -25,-25"
   style="fill:#ec0d5d;display:inline" />
   <path
   id="path54"
   inkscape:connector-curvature="0"
   display="inline"
   d="M 145.77369,-0.0402141 H 24.831688 c -13.808,0 -24.9999993,11.1920001 -24.9999993,25.0000001 0,13.808 11.1919993,25 24.9999993,25 H 145.77369 c 13.808,0 25,-11.192 25,-25 0,-13.808 -11.192,-25.0000001 -25,-25.0000001"
   style="fill:#66c430;display:inline" />
   <path
   id="path70"
   inkscape:connector-curvature="0"
   display="inline"
   d="m 133.33469,114.73479 c -13.808,0 -25,11.192 -25,25 0,13.808 11.192,25 25,25 14.617,0 26.51,11.892 26.51,26.51 0,14.616 -11.893,26.509 -26.51,26.509 -13.808,0 -25,11.192 -25,25 0,13.808 11.192,25 25,25 42.188,0 76.51,-34.321 76.51,-76.509 0,-42.188 -34.322,-76.51 -76.51,-76.51"
   style="fill:#8a3ea4;display:inline" />
   <path
   id="path86"
   inkscape:connector-curvature="0"
   display="inline"
   d="m 145.77369,-0.0402141 c -13.808,0 -25,11.1920001 -25,25.0000001 0,13.808 11.192,25 25,25 17.86,0 32.39,14.529 32.39,32.391 0,17.858004 -14.529,32.389004 -32.39,32.389004 l -12.417,-0.01 h -0.01 c -13.803,0 -24.995,11.188 -25,24.992 -0.005,13.806 11.182,25.003 24.99,25.008 l 12.428,0.01 c 45.44,0 82.399,-36.959 82.399,-82.389004 0,-45.431 -36.959,-82.3910001 -82.39,-82.3910001"
   style="fill:#f89c0e;display:inline" />
   <path
   id="path102"
   inkscape:connector-curvature="0"
   display="inline"
   d="M 133.34669,114.73479 H 24.831688 c -13.808,0 -24.9999993,11.192 -24.9999993,25 0,13.808 11.1919993,25 24.9999993,25 H 133.34769 c 13.807,0 25,-11.192 25,-25 0,-13.808 -11.194,-25 -25.001,-25"
   style="fill:#f25c19;display:inline" />

</g>
<g
   id="C"
   inkscape:groupmode="layer"
   inkscape:label="C"
   transform="matrix(1,0,0,-1,0,380)"
   display="none"
   style="display:none"> <rect
   x="0"
   y="0"
   width="239.81018"
   height="364"
   style="opacity:0.2;fill:#ff88ff"
   id="rect3954" />
   <path
   id="path338"
   inkscape:connector-curvature="0"
   display="inline"
   d="m 24.343,111.906 c -13.808,0 -25,11.191 -25,25 0,76.072 61.891,137.963 137.965,137.963 13.806,0 25,-11.192 25,-25 0,-13.808 -11.194,-25 -25,-25 -48.505,0 -87.965,-39.459 -87.965,-87.963 0,-13.808 -11.193,-25 -25,-25"
   style="fill:#4081cb;display:inline" />
   <path
   id="path354"
   inkscape:connector-curvature="0"
   display="inline"
   d="m 137.307,-1.057 c -76.073,0 -137.965,61.89 -137.965,137.963 0,13.807 11.194,25 25,25 13.808,0 25,-11.193 25,-25 0,-48.503 39.461,-87.963 87.965,-87.963 13.809,0 25,-11.193 25,-25 0,-13.807 -11.192,-25 -25,-25"
   style="fill:#f89c0e;display:inline" />
   <path
   id="path370"
   inkscape:connector-curvature="0"
   display="inline"
   d="m 137.307,-1.057 c -13.807,0 -25,11.192 -25,25 0,13.807 11.192,25 25,25 22.447,0 43.815,8.452 60.172,23.8 10.067,9.45 25.889,8.944 35.338,-1.122 9.447,-10.069 8.944,-25.891 -1.125,-35.338 -25.66,-24.08 -59.18,-37.34 -94.385,-37.34"
   style="fill:#ec0d5d;display:inline" />
   <path
   id="path386"
   inkscape:connector-curvature="0"
   display="inline"
   d="m 215.624,193.311 c -6.237,0 -12.482,2.319 -17.332,6.986 -16.466,15.847 -38.124,24.573 -60.985,24.573 -13.808,0 -25,11.192 -25,25 0,13.808 11.192,25 25,25 35.855,0 69.826,-13.689 95.656,-38.545 9.949,-9.574 10.252,-25.4 0.679,-35.349 -4.908,-5.099 -11.458,-7.665 -18.018,-7.665"
   style="fill:#66c430;display:inline" />

</g>
<g
   id="D"
   inkscape:groupmode="layer"
   transform="matrix(1,0,0,-1,0,380)"
   inkscape:label="D"
   display="none"
   style="display:none"> <rect
   x="0"
   y="0"
   width="248.16667"
   height="364"
   style="opacity:0.2;fill:#ff88ff"
   id="rect3961" />
   <path
   id="path474"
   inkscape:connector-curvature="0"
   display="inline"
   d="m 23.69,265.684 c -13.808,0 -25,-11.192 -25,-25 v -217.5 c 0,-13.807 11.192,-25 25,-25 13.808,0 25,11.193 25,25 v 217.5 c 0,13.808 -11.192,25 -25,25"
   style="fill:#4081cb;display:inline" />
   <path
   id="path490"
   inkscape:connector-curvature="0"
   display="inline"
   d="M 122.193,48.184 H 23.689 c -13.807,0 -25,-11.192 -25,-25 0,-13.807 11.193,-25 25,-25 h 98.504 c 13.808,0 25,11.193 25,25 0,13.808 -11.192,25 -25,25"
   style="fill:#ec0d5d;display:inline" />
   <path
   id="path506"
   inkscape:connector-curvature="0"
   display="inline"
   d="m 122.149,265.684 h -98.46 c -13.806,0 -25,-11.192 -25,-25 0,-13.807 11.194,-25 25,-25 h 98.46 c 13.808,0 25,11.193 25,25 0,13.808 -11.192,25 -25,25"
   style="fill:#66c430;display:inline" />
   <path
   id="path522"
   inkscape:connector-curvature="0"
   display="inline"
   d="m 222.515,156.934 c -13.808,0 -25,-11.192 -25,-25 0,-48.527 -32.067,-83.75 -76.251,-83.75 -13.808,0 -25,-11.192 -25,-25 0,-13.807 11.192,-25 25,-25 71.975,0 126.251,57.5 126.251,133.75 0,13.808 -11.193,25 -25,25"
   style="fill:#8a3ea4;display:inline" />
   <path
   id="path538"
   inkscape:connector-curvature="0"
   display="inline"
   d="m 121.263,265.684 c -13.808,0 -25,-11.192 -25,-25 0,-13.807 11.192,-25 25,-25 44.184,0 76.251,-35.223 76.251,-83.75 0,-13.807 11.192,-25 25,-25 13.808,0 25,11.193 25,25 10e-4,76.25 -54.276,133.75 -126.251,133.75"
   style="fill:#f89c0e;display:inline" />

</g>
<g
   id="E"
   inkscape:groupmode="layer"
   transform="matrix(1,0,0,-1,0,380)"
   inkscape:label="E"
   display="none"
   style="display:none"> 
   <rect
   x="0"
   y="0"
   width="194.06944"
   height="364"
   style="fill:none;stroke:#ff00ff;stroke-width:0.2;stroke-miterlimit:4;stroke-opacity:1;stroke-dasharray:none"
   id="rect3969" />
   <path
   id="path106"
   inkscape:connector-curvature="0"
   display="inline"
   d="m 24.278,-1.677 c -13.808,0 -25,11.192 -25,25 v 217.5 c 0,13.808 11.192,25 25,25 13.808,0 25,-11.192 25,-25 v -217.5 c 0,-13.807 -11.193,-25 -25,-25"
   style="fill:#4081cb;display:inline" />
   <path
   id="path122"
   inkscape:connector-curvature="0"
   display="inline"
   d="m 169.277,215.823 h -145 c -13.808,0 -25,11.192 -25,25 0,13.808 11.192,25 25,25 h 145 c 13.809,0 25,-11.192 25,-25 0,-13.808 -11.191,-25 -25,-25"
   style="fill:#ec0d5d;display:inline" />
   <path
   id="path138"
   inkscape:connector-curvature="0"
   display="inline"
   d="m 169.277,-1.677 h -145 c -13.808,0 -25,11.192 -25,25 0,13.808 11.192,25 25,25 h 145 c 13.809,0 25,-11.192 25,-25 0,-13.808 -11.191,-25 -25,-25"
   style="fill:#66c430;display:inline" />
   <path
   id="path154"
   inkscape:connector-curvature="0"
   display="inline"
   d="M 148.027,107.073 H 24.278 c -13.808,0 -25,11.192 -25,25 0,13.808 11.192,25 25,25 h 123.75 c 13.809,0 25,-11.192 25,-25 0,-13.808 -11.192,-25 -25.001,-25"
   style="fill:#f89c0e;display:inline" />

</g>
<g
   id="F"
   inkscape:groupmode="layer"
   transform="matrix(1,0,0,-1,0,380)"
   inkscape:label="F"
   display="none"
   style="display:none"> <rect
   x="0"
   y="0"
   width="193.62962"
   height="364"
   style="fill:none;stroke:#ff00ff;stroke-width:0.2;stroke-miterlimit:4"
   id="rect4916" />
   <path
   id="path170-9"
   inkscape:connector-curvature="0"
   display="inline"
   d="m 23.648,-2.816 c -13.807,0 -25,11.193 -25,25 v 217.5 c 0,13.808 11.193,25 25,25 13.808,0 25,-11.192 25,-25 v -217.5 c 0,-13.807 -11.192,-25 -25,-25"
   style="fill:#66c430;display:inline" />
   <path
   id="path186-8"
   inkscape:connector-curvature="0"
   display="inline"
   d="m 168.648,214.684 h -145 c -13.807,0 -25,11.192 -25,25 0,13.808 11.193,25 25,25 h 145 c 13.808,0 25,-11.192 25,-25 0,-13.808 -11.192,-25 -25,-25"
   style="fill:#ec0d5d;display:inline" />
   <path
   id="path202-6"
   inkscape:connector-curvature="0"
   display="inline"
   d="M 147.398,105.934 H 23.648 c -13.807,0 -25,11.193 -25,25 0,13.809 11.193,25 25,25 h 123.75 c 13.808,0 25,-11.191 25,-25 0,-13.807 -11.192,-25 -25,-25"
   style="fill:#f89c0e;display:inline" />

</g>
<g
   id="G"
   inkscape:groupmode="layer"
   inkscape:label="G"
   transform="matrix(1,0,0,-1,0,380)"
   display="none"
   style="display:none"> <rect
   x="0"
   y="0"
   width="237.61111"
   height="364"
   style="fill:none;stroke:#ff00ff;stroke-width:0.2;stroke-miterlimit:4"
   id="rect3982" />
   <path
   id="path1326-1"
   inkscape:connector-curvature="0"
   display="inline"
   d="m 22.847,110.488 c -13.808,0 -25,11.192 -25,25 0,76.073 61.891,137.964 137.963,137.964 13.808,0 25,-11.192 25,-25 0,-13.808 -11.192,-25 -25,-25 -48.503,0 -87.963,-39.46 -87.963,-87.964 0,-13.807 -11.193,-25 -25,-25"
   style="fill:#4081cb;display:inline" />
   <path
   id="path1342-8"
   inkscape:connector-curvature="0"
   display="inline"
   d="m 135.811,-2.475 c -76.072,0 -137.963,61.891 -137.963,137.963 0,13.808 11.192,25 25,25 13.808,0 25,-11.192 25,-25 0,-48.502 39.46,-87.963 87.963,-87.963 13.808,0 25,-11.192 25,-25 0,-13.806 -11.193,-25 -25,-25"
   style="fill:#f89c0e;display:inline" />
   <path
   id="path1358-1"
   inkscape:connector-curvature="0"
   display="inline"
   d="m 135.811,-2.475 c -13.807,0 -25,11.193 -25,25 0,13.808 11.192,25 25,25 22.446,0 43.815,8.453 60.172,23.801 10.068,9.451 25.89,8.943 35.336,-1.123 9.449,-10.068 8.946,-25.89 -1.123,-35.338 -25.661,-24.08 -59.18,-37.34 -94.385,-37.34"
   style="fill:#ec0d5d;display:inline" />
   <path
   id="path1374-6"
   inkscape:connector-curvature="0"
   display="inline"
   d="m 214.129,191.894 c -6.238,0 -12.482,2.318 -17.332,6.986 -16.467,15.846 -38.125,24.572 -60.986,24.572 -13.807,0 -25,11.192 -25,25 0,13.808 11.193,25 25,25 35.854,0 69.826,-13.688 95.656,-38.545 9.948,-9.574 10.252,-25.4 0.678,-35.349 -4.908,-5.098 -11.457,-7.664 -18.016,-7.664"
   style="fill:#66c430;display:inline" />
   <path
   id="path1390-4"
   inkscape:connector-curvature="0"
   display="inline"
   d="m 213.088,28.096 c -13.807,0 -25,11.192 -25,25 v 80.159 c 0,13.808 11.193,25 25,25 13.809,0 25,-11.192 25,-25 V 53.096 c 0,-13.808 -11.192,-25 -25,-25"
   style="fill:#8a3ea4;display:inline" />
   <path
   id="path1406-7"
   inkscape:connector-curvature="0"
   display="inline"
   d="m 213.088,108.254 h -81.525 c -13.808,0 -25,11.193 -25,25 0,13.809 11.192,25 25,25 h 81.525 c 13.809,0 25,-11.191 25,-25 0,-13.807 -11.192,-25 -25,-25"
   style="fill:#f25c19;display:inline" />

</g>
<g
   id="H"
   inkscape:groupmode="layer"
   inkscape:label="H"
   transform="matrix(1,0,0,-1,0,380)"
   display="none"
   style="display:none"> <rect
   x="0"
   y="0"
   width="226.17592"
   height="364"
   style="fill:none;stroke:#ff00ff;stroke-width:0.2;stroke-miterlimit:4"
   id="rect3991" />
   <path
   id="path1138-9"
   inkscape:connector-curvature="0"
   display="inline"
   d="m 26.102,265.684 c -13.808,0 -25,-11.192 -25,-25 v -217.5 c 0,-13.807 11.192,-25 25,-25 13.808,0 25,11.193 25,25 v 217.5 c 0,13.808 -11.192,25 -25,25"
   style="fill:#66c430;display:inline" />
   <path
   id="path1154-5"
   inkscape:connector-curvature="0"
   display="inline"
   d="m 201.457,265.684 c -13.807,0 -25,-11.192 -25,-25 v -217.5 c 0,-13.807 11.193,-25 25,-25 13.808,0 25,11.193 25,25 v 217.5 c 0,13.808 -11.192,25 -25,25"
   style="fill:#4081cb;display:inline" />
   <path
   id="path1170-4"
   inkscape:connector-curvature="0"
   display="inline"
   d="M 201.457,156.934 H 26.102 c -13.807,0 -25,-11.192 -25,-25 0,-13.807 11.193,-25 25,-25 h 175.355 c 13.808,0 25,11.193 25,25 0,13.808 -11.192,25 -25,25"
   style="fill:#ec0d5d;display:inline" />

</g>
<g
   id="I"
   inkscape:groupmode="layer"
   inkscape:label="I"
   transform="matrix(1,0,0,-1,0,380)"
   display="none"
   style="display:none"> <rect
   x="0"
   y="0"
   width="51.129631"
   height="364"
   style="fill:none;stroke:#ff00ff;stroke-width:0.2;stroke-miterlimit:4"
   id="rect3997" />
   <path
   id="path1122"
   inkscape:connector-curvature="0"
   display="inline"
   d="m 25.887,0.112 c -13.807,0 -25,11.192 -25,25 v 217.5 c 0,13.807 11.193,25 25,25 13.808,0 25,-11.193 25,-25 v -217.5 c 0,-13.807 -11.192,-25 -25,-25"
   style="fill:#ec0d5d;display:inline" />

</g>
<g
   id="J"
   inkscape:groupmode="layer"
   transform="matrix(1,0,0,-1,0,380)"
   inkscape:label="J"
   display="none"
   style="display:none"> <rect
   x="0"
   y="0"
   width="184.83333"
   height="364"
   style="fill:none;stroke:#ff00ff;stroke-width:0.2;stroke-miterlimit:4"
   id="rect4001" />
   <path
   id="path1218"
   inkscape:connector-curvature="0"
   display="inline"
   d="m 159.805,70.112 c -13.809,0 -25,11.192 -25,25 V 247.2 c 0,13.807 11.191,25 25,25 13.807,0 25,-11.193 25,-25 V 95.113 c 0,-13.808 -11.194,-25.001 -25,-25.001"
   style="fill:#4081cb;display:inline" />
   <path
   id="path1234"
   inkscape:connector-curvature="0"
   display="inline"
   d="m 82.265,0.529 c -26.724,0 -51.986,12.633 -75.084,37.551 -9.387,10.126 -8.789,25.943 1.338,35.33 10.125,9.386 25.943,8.788 35.33,-1.34 13.438,-14.494 26.004,-21.541 38.417,-21.541 13.808,0 25,-11.192 25,-25 -0.001,-13.806 -11.193,-25 -25.001,-25"
   style="fill:#66c430;display:inline" />
   <path
   id="path1250"
   inkscape:connector-curvature="0"
   display="inline"
   d="m 92.265,0.529 c -13.808,0 -25,11.193 -25,25 0,13.808 11.192,25 25,25 29.42,0 42.539,13.75 42.539,44.583 0,13.808 11.192,25 25,25 13.808,0 25,-11.192 25,-25 0,-58.341 -35.458,-94.583 -92.539,-94.583"
   style="fill:#f89c0e;display:inline" />

</g>
<g
   id="K"
   inkscape:groupmode="layer"
   transform="matrix(1,0,0,-1,0,380)"
   inkscape:label="K"
   display="none"
   style="display:none"> <rect
   x="0"
   y="0"
   width="219.13889"
   height="364"
   style="fill:none;stroke:#ff00ff;stroke-width:0.2;stroke-miterlimit:4"
   id="rect4007" />
   <path
   id="path1278"
   inkscape:connector-curvature="0"
   display="inline"
   d="m 25.943,-0.162 c -13.808,0 -25,11.192 -25,25 v 217.5 c 0,13.808 11.192,25 25,25 13.808,0 25,-11.192 25,-25 v -217.5 c 0,-13.808 -11.193,-25 -25,-25"
   style="fill:#66c430;display:inline" />
   <path
   id="path1294"
   inkscape:connector-curvature="0"
   display="inline"
   d="m 25.94,58.227 c -6.247,0 -12.499,2.325 -17.35,7.005 -9.94,9.584 -10.228,25.41 -0.644,35.349 l 153.429,159.111 c 9.582,9.94 25.408,10.229 35.349,0.643 9.94,-9.583 10.228,-25.411 0.644,-35.35 L 43.938,65.873 C 39.034,60.785 32.491,58.227 25.94,58.227"
   style="fill:#4081cb;display:inline" />
   <path
   id="path1310"
   inkscape:connector-curvature="0"
   display="inline"
   d="m 194.563,-0.163 c -7.228,0 -14.397,3.118 -19.34,9.142 L 71.845,134.953 c -8.76,10.674 -7.208,26.425 3.466,35.186 10.674,8.758 26.426,7.205 35.185,-3.467 L 213.875,40.697 c 8.758,-10.674 7.206,-26.426 -3.467,-35.186 -4.65,-3.816 -10.264,-5.674 -15.845,-5.674"
   style="fill:#f89c0e;display:inline" />

</g>
<g
   id="L"
   inkscape:groupmode="layer"
   transform="matrix(1,0,0,-1,0,380)"
   inkscape:label="L"
   display="none"
   style="display:none"> <rect
   x="0"
   y="0"
   width="179.99538"
   height="364"
   style="fill:none;stroke:#ff00ff;stroke-width:0.2;stroke-miterlimit:4"
   id="rect4013" />
   <path
   id="path1186"
   inkscape:connector-curvature="0"
   display="inline"
   d="m 25.933,-2.611 c -13.808,0 -25,11.193 -25,25 v 217.5 c 0,13.808 11.192,25 25,25 13.808,0 25,-11.192 25,-25 v -217.5 c 0,-13.807 -11.193,-25 -25,-25"
   style="fill:#66c430;display:inline" />
   <path
   id="path1202"
   inkscape:connector-curvature="0"
   display="inline"
   d="M 154.683,-2.611 H 25.933 c -13.808,0 -25,11.193 -25,25 0,13.809 11.192,25 25,25 h 128.75 c 13.808,0 25,-11.191 25,-25 0,-13.807 -11.193,-25 -25,-25"
   style="fill:#ec0d5d;display:inline" />

</g>
<g
   id="M"
   inkscape:groupmode="layer"
   transform="matrix(1,0,0,-1,0,380)"
   inkscape:label="M"
   display="none"
   style="display:none"> <rect
   x="0"
   y="0"
   width="264"
   height="364"
   style="fill:none;stroke:#ff00ff;stroke-width:0.2;stroke-miterlimit:4"
   id="rect4018" />
   <path
   id="path766"
   inkscape:connector-curvature="0"
   display="inline"
   d="m 131.577,74.877 c -7.68,0 -15.256,3.524 -20.156,10.185 L 6.033,228.306 c -8.181,11.123 -5.799,26.771 5.321,34.953 11.124,8.183 26.77,5.801 34.953,-5.321 L 151.694,114.694 c 8.183,-11.122 5.799,-26.771 -5.321,-34.952 -4.461,-3.283 -9.652,-4.865 -14.796,-4.865"
   style="fill:#f89c0e;display:inline" />
   <path
   id="path770"
   inkscape:connector-curvature="0"
   display="inline"
   d="m 131.54,74.877 c -5.283,0 -10.604,1.666 -15.13,5.113 -10.983,8.365 -13.106,24.053 -4.74,35.036 L 220.779,258.27 c 8.364,10.986 24.052,13.106 35.036,4.74 10.982,-8.367 13.105,-24.053 4.738,-35.037 L 151.445,84.73 c -4.918,-6.459 -12.369,-9.853 -19.905,-9.853"
   style="fill:#4081cb;display:inline" />
   <path
   id="path786"
   inkscape:connector-curvature="0"
   display="inline"
   d="m 240.666,0.622 c -13.809,0 -25,11.192 -25,25 v 217.5 c 0,13.808 11.191,25 25,25 13.807,0 25,-11.192 25,-25 v -217.5 c 0,-13.808 -11.193,-25 -25,-25"
   style="fill:#66c430;display:inline" />
   <path
   id="path802"
   inkscape:connector-curvature="0"
   display="inline"
   d="m 26.17,0.622 c -13.807,0 -25,11.192 -25,25 v 217.5 c 0,13.808 11.193,25 25,25 13.808,0 25,-11.192 25,-25 v -217.5 c 0,-13.808 -11.192,-25 -25,-25"
   style="fill:#ec0d5d;display:inline" />

</g>
<g
   id="N"
   inkscape:groupmode="layer"
   transform="matrix(1,0,0,-1,0,380)"
   inkscape:label="N"
   display="none"
   style="display:none"> <rect
   x="0"
   y="0"
   width="236.29167"
   height="364"
   style="fill:none;stroke:#ff00ff;stroke-width:0.2;stroke-miterlimit:4"
   id="rect4025" />
   <path
   id="path818"
   inkscape:connector-curvature="0"
   display="inline"
   d="m 210.955,-2.432 c -7.09,0 -14.132,2.997 -19.077,8.827 L 7.384,223.895 c -8.933,10.53 -7.638,26.305 2.893,35.237 10.53,8.931 26.305,7.636 35.236,-2.894 L 230.008,38.739 c 8.933,-10.529 7.638,-26.305 -2.893,-35.237 -4.699,-3.984 -10.445,-5.934 -16.16,-5.934"
   style="fill:#f89c0e;display:inline" />
   <path
   id="path834"
   inkscape:connector-curvature="0"
   display="inline"
   d="m 210.943,-2.432 c -13.808,0 -25,11.191 -25,25 v 217.5 c 0,13.807 11.192,25 25,25 13.808,0 25,-11.193 25,-25 v -217.5 c 0,-13.808 -11.192,-25 -25,-25"
   style="fill:#66c430;display:inline" />
   <path
   id="path850"
   inkscape:connector-curvature="0"
   display="inline"
   d="m 26.449,-2.432 c -13.808,0 -25,11.191 -25,25 v 217.5 c 0,13.807 11.192,25 25,25 13.807,0 25,-11.193 25,-25 v -217.5 c 0,-13.808 -11.193,-25 -25,-25"
   style="fill:#ec0d5d;display:inline" />

</g>
<g
   id="O"
   inkscape:groupmode="layer"
   transform="matrix(1,0,0,-1,0,380)"
   inkscape:label="O"
   display="none"
   style="display:none"> <rect
   x="0"
   y="0"
   width="284.23148"
   height="364"
   style="fill:none;stroke:#ff00ff;stroke-width:0.2;stroke-miterlimit:4"
   id="rect4031" />
   <path
   id="path638"
   inkscape:connector-curvature="0"
   display="inline"
   d="m 25.739,114.903 c -13.808,0 -25,11.192 -25,25 0,78.1 63.54,141.64 141.641,141.64 13.806,0 25,-11.192 25,-24.999 0,-13.808 -11.194,-25 -25,-25 -50.531,0 -91.641,-41.11 -91.641,-91.642 0,-13.806 -11.193,-24.999 -25,-24.999"
   style="fill:#ec0d5d;display:inline" />
   <path
   id="path654"
   inkscape:connector-curvature="0"
   display="inline"
   d="m 142.379,-1.737 c -78.1,0 -141.641,63.54 -141.641,141.642 0,13.807 11.194,24.998 25,24.998 13.808,0 25,-11.191 25,-24.998 0,-50.531 41.11,-91.642 91.641,-91.642 13.808,0 25,-11.192 25,-25 0,-13.808 -11.192,-25 -25,-25"
   style="fill:#4081cb;display:inline" />
   <path
   id="path670"
   inkscape:connector-curvature="0"
   display="inline"
   d="m 142.379,-1.737 c -13.807,0 -25,11.192 -25,25 0,13.808 11.192,25 25,25 50.533,0 91.643,41.11 91.643,91.642 0,13.807 11.193,24.998 25,24.998 13.808,0 25,-11.191 25,-24.998 C 284.021,61.803 220.48,-1.737 142.379,-1.737"
   style="fill:#f89c0e;display:inline" />
   <path
   id="path686"
   inkscape:connector-curvature="0"
   display="inline"
   d="m 259.022,114.903 c -13.808,0 -25,11.192 -25,25 0,50.531 -41.111,91.642 -91.643,91.642 -13.808,0 -25,11.192 -25,25 0,13.806 11.192,24.999 25,24.999 78.101,0 141.643,-63.54 141.643,-141.64 0,-13.808 -11.192,-25.001 -25,-25.001"
   style="fill:#66c430;display:inline" />

</g>
<g
   id="P"
   inkscape:groupmode="layer"
   inkscape:label="P"
   transform="matrix(1,0,0,-1,0,380)"
   display="none"
   style="display:none"> <rect
   x="0"
   y="0"
   width="209.46297"
   height="364"
   style="fill:none;stroke:#ff00ff;stroke-width:0.2;stroke-miterlimit:4"
   id="rect4038" />
   <path
   id="path878"
   inkscape:connector-curvature="0"
   display="inline"
   d="m 24.626,-0.678 c -13.808,0 -25,11.192 -25,25 v 217.5 c 0,13.808 11.192,25 25,25 13.807,0 25,-11.192 25,-25 v -217.5 c 0,-13.807 -11.192,-25 -25,-25"
   style="fill:#ec0d5d;display:inline" />
   <path
   id="path894"
   inkscape:connector-curvature="0"
   display="inline"
   d="m 114.314,77.158 c -13.808,0 -25,11.191 -25,25 0,13.807 11.192,25 25,25 24.719,0 44.831,20.111 44.831,44.83 0,24.722 -20.111,44.833 -44.831,44.833 -13.808,0 -25,11.194 -25,25 0,13.808 11.192,25 25,25 52.29,0 94.831,-42.541 94.831,-94.833 0,-52.289 -42.541,-94.83 -94.831,-94.83"
   style="fill:#4081cb;display:inline" />
   <path
   id="path910"
   inkscape:connector-curvature="0"
   display="inline"
   d="M 114.314,77.158 H 24.626 c -13.808,0 -25,11.191 -25,25 0,13.807 11.192,25 25,25 h 89.688 c 13.807,0 25,-11.193 25,-25 0,-13.808 -11.193,-25 -25,-25"
   style="fill:#66c430;display:inline" />
   <path
   id="path926"
   inkscape:connector-curvature="0"
   display="inline"
   d="M 114.314,216.822 H 24.626 c -13.808,0 -25,11.193 -25,25 0,13.808 11.192,25 25,25 h 89.688 c 13.807,0 25,-11.192 25,-25 0,-13.807 -11.193,-25 -25,-25"
   style="fill:#f89c0e;display:inline" />

</g>
<g
   id="Q"
   inkscape:groupmode="layer"
   transform="matrix(1,0,0,-1,0,380)"
   inkscape:label="Q"
   display="none"
   style="display:none"> <rect
   x="0"
   y="0"
   width="283.35187"
   height="364"
   style="fill:none;stroke:#ff00ff;stroke-width:0.2;stroke-miterlimit:4"
   id="rect4045" />
   <path
   id="path702"
   inkscape:connector-curvature="0"
   display="inline"
   d="m 243.706,3.694 c -6.398,0 -12.796,2.439 -17.677,7.321 l -85.893,85.891 c -9.763,9.764 -9.763,25.594 0,35.356 9.764,9.764 25.594,9.764 35.355,0 l 85.892,-85.89 c 9.764,-9.764 9.764,-25.594 0,-35.357 -4.881,-4.881 -11.278,-7.321 -17.677,-7.321"
   style="fill:#f89c0e;display:inline" />
   <path
   id="path718"
   inkscape:connector-curvature="0"
   display="inline"
   d="m 223.96,198.938 c -6.399,0 -12.796,2.439 -17.677,7.321 -35.732,35.732 -93.871,35.732 -129.602,0 -9.762,-9.763 -25.591,-9.763 -35.355,0 -9.762,9.764 -9.762,25.594 0,35.357 55.226,55.224 145.085,55.224 200.312,0 9.764,-9.764 9.764,-25.594 0,-35.357 -4.882,-4.881 -11.279,-7.321 -17.678,-7.321"
   style="fill:#ec0d5d;display:inline" />
   <path
   id="path734"
   inkscape:connector-curvature="0"
   display="inline"
   d="m 59.004,33.982 c -6.398,0 -12.796,2.439 -17.677,7.321 C 14.574,68.057 -0.16,103.627 -0.16,141.46 c 0,37.835 14.734,73.403 41.486,100.156 9.762,9.762 25.592,9.764 35.355,0 9.764,-9.763 9.764,-25.592 0,-35.355 -17.309,-17.308 -26.841,-40.321 -26.841,-64.8 0,-24.478 9.532,-47.491 26.841,-64.799 9.764,-9.764 9.764,-25.594 0,-35.357 C 71.8,36.424 65.403,33.983 59.004,33.982"
   style="fill:#4081cb;display:inline" />
   <path
   id="path750"
   inkscape:connector-curvature="0"
   display="inline"
   d="m 141.482,-0.182 c -37.834,0 -73.403,14.733 -100.157,41.484 -9.762,9.764 -9.762,25.594 0,35.358 9.764,9.763 25.593,9.763 35.356,0 35.731,-35.733 93.869,-35.733 129.6,0 35.731,35.729 35.731,93.868 0,129.599 -9.763,9.764 -9.763,25.594 0,35.356 9.764,9.764 25.593,9.764 35.356,0 26.752,-26.752 41.484,-62.323 41.484,-100.157 0,-37.832 -14.732,-73.402 -41.484,-100.156 C 214.885,14.552 179.316,-0.182 141.482,-0.182"
   style="fill:#66c430;display:inline" />

</g>
<g
   id="R"
   inkscape:groupmode="layer"
   transform="matrix(1,0,0,-1,0,380)"
   inkscape:label="R"
   display="none"
   style="display:inline"> 
   <rect
   x="0"
   y="0"
   width="218.25926"
   height="364"
   style="fill:none;stroke:#ff00ff;stroke-width:0.2;stroke-miterlimit:4"
   id="rect4054" />
   <path
   id="path1714"
   inkscape:connector-curvature="0"
   display="inline"
   d="m 25.389,-0.146 c -13.808,0 -25,11.192 -25,25 v 217.5 c 0,13.807 11.192,25 25,25 13.808,0 25,-11.193 25,-25 v -217.5 c 0,-13.808 -11.193,-25 -25,-25"
   style="fill:#ec0d5d;display:inline" />
   <path
   id="path1730"
   inkscape:connector-curvature="0"
   display="inline"
   d="M 123.826,90.189 H 25.389 c -13.808,0 -25,11.192 -25,25 0,13.807 11.192,25 25,25 h 98.438 c 13.808,0 25,-11.193 25,-25 -0.001,-13.807 -11.193,-25 -25.001,-25"
   style="fill:#66c430;display:inline" />
   <path
   id="path1746"
   inkscape:connector-curvature="0"
   display="inline"
   d="M 130.076,217.354 H 25.389 c -13.808,0 -25,11.192 -25,25 0,13.807 11.192,25 25,25 h 104.688 c 13.808,0 25,-11.193 25,-25 -0.001,-13.808 -11.193,-25 -25.001,-25"
   style="fill:#f89c0e;display:inline" />
   <path
   id="path1762"
   inkscape:connector-curvature="0"
   display="inline"
   d="m 193.676,-0.148 c -7.477,0 -14.871,3.34 -19.797,9.713 L 104.046,99.9 c -8.443,10.923 -6.434,26.625 4.49,35.069 10.922,8.445 26.624,6.436 35.069,-4.49 l 69.831,-90.336 c 8.444,-10.923 6.435,-26.624 -4.489,-35.068 -4.551,-3.518 -9.933,-5.223 -15.271,-5.223"
   style="fill:#f25c19;display:inline" />
   <path
   id="path1778"
   inkscape:connector-curvature="0"
   display="inline"
   d="m 130.076,90.189 h -6.25 c -13.808,0 -25,11.192 -25,25 0,13.807 11.192,25 25,25 h 6.25 c 21.273,0 38.581,17.307 38.581,38.581 0,21.275 -17.308,38.582 -38.581,38.582 -13.808,0 -25,11.194 -25,25 0,13.808 11.192,25 25,25 48.844,0 88.581,-39.737 88.581,-88.582 0,-48.843 -39.737,-88.581 -88.581,-88.581"
   style="fill:#4081cb;display:inline" />

</g>
<g
   id="S"
   inkscape:groupmode="layer"
   transform="matrix(1,0,0,-1,0,380)"
   inkscape:label="S"
   display="none"
   style="display:none"> 
   <rect
   x="0"
   y="0"
   width="209.46297"
   height="364"
   style="fill:none;stroke:#ff00ff;stroke-width:0.2;stroke-miterlimit:4"
   id="rect4064" />
   <path
   id="path1514"
   inkscape:connector-curvature="0"
   display="inline"
   d="m 184.006,56.594 c -13.807,0 -25,11.193 -25,25 0,6.547 0,23.938 -62.291,36.938 -13.516,2.819 -22.188,16.063 -19.366,29.579 2.82,13.515 16.065,22.19 29.579,19.365 30.421,-6.348 52.096,-14.358 68.213,-25.212 27.99,-18.846 33.865,-43.395 33.865,-60.67 0,-13.807 -11.192,-25 -25,-25"
   style="fill:#66c430;display:inline" />
   <path
   id="path1530"
   inkscape:connector-curvature="0"
   display="inline"
   d="m 108.561,-0.086 c -0.217,0 -0.435,0 -0.652,0.013 C 68.739,0.932 40.467,16.5 21.759,26.803 18.731,28.471 15.871,30.045 13.314,31.367 1.05,37.711 -3.749,52.797 2.597,65.058 8.941,77.322 24.024,82.123 36.288,75.777 39.422,74.156 42.558,72.429 45.879,70.6 62.9,61.226 82.193,50.602 109.191,49.909 c 13.802,-0.354 24.705,-11.83 24.35,-25.632 -0.348,-13.584 -11.47,-24.359 -24.979,-24.359"
   style="fill:#f89c0e;display:inline" />
   <path
   id="path1546"
   inkscape:connector-curvature="0"
   display="inline"
   d="m 112.123,-0.132 c -1.384,0 -2.789,0.019 -4.215,0.056 -13.804,0.354 -24.705,11.83 -24.351,25.632 0.355,13.803 11.854,24.757 25.632,24.351 18.901,-0.479 33.299,3.583 41.694,11.765 6.715,6.545 8.123,14.446 8.123,19.924 0,13.808 11.193,25 25,25 13.809,0 25,-11.192 25,-25 0,-21.34 -8.248,-41.133 -23.223,-55.729 C 173.48,13.875 150.82,-0.132 112.123,-0.132"
   style="fill:#4081cb;display:inline" />
   <path
   id="path1562"
   inkscape:connector-curvature="0"
   display="inline"
   d="m 101.846,117.998 c -1.755,0 -3.536,0.186 -5.321,0.572 -23.138,5.017 -40.259,11.422 -53.882,20.155 -29.019,18.606 -34.603,43.378 -34.176,60.881 0.619,25.381 8.844,45.436 24.447,59.609 18.135,16.471 45.258,23.543 80.589,20.998 13.772,-0.989 24.135,-12.954 23.145,-26.725 -0.988,-13.771 -12.948,-24.13 -26.726,-23.145 -20.87,1.493 -35.876,-1.316 -43.39,-8.14 -1.897,-1.723 -7.67,-6.965 -8.08,-23.813 -0.121,-5.019 -0.494,-20.296 48.667,-30.954 13.494,-2.925 22.06,-16.234 19.135,-29.729 -2.538,-11.709 -12.897,-19.709 -24.408,-19.709"
   style="fill:#66ccd8;display:inline" />
   <path
   id="path1578"
   inkscape:connector-curvature="0"
   display="inline"
   d="m 171.47,210.457 c -3.868,0 -7.792,0.9 -11.465,2.799 -20.094,10.395 -36.945,16.143 -50.085,17.087 -13.772,0.99 -24.133,12.955 -23.144,26.728 0.989,13.772 12.934,24.142 26.728,23.144 20.227,-1.454 42.952,-8.829 69.473,-22.546 12.264,-6.345 17.063,-21.429 10.719,-33.692 -4.444,-8.593 -13.178,-13.52 -22.226,-13.52"
   style="fill:#ec0d5d;display:inline" />

</g>
<g
   id="T"
   inkscape:groupmode="layer"
   inkscape:label="T"
   transform="matrix(1,0,0,-1,0,380)"
   display="none"
   style="display:none"> <rect
   x="0"
   y="0"
   width="232.33333"
   height="364"
   style="fill:none;stroke:#ff00ff;stroke-width:0.2;stroke-miterlimit:4"
   id="rect4072" />
 
   <path
   id="path1422"
   inkscape:connector-curvature="0"
   display="inline"
   d="m 115.989,-0.825 c -13.808,0 -25,11.192 -25,25 v 217.5 c 0,13.807 11.192,25 25,25 13.807,0 25,-11.193 25,-25 v -217.5 c 0,-13.808 -11.193,-25 -25,-25"
   style="fill:#66c430;display:inline" />
   <path
   id="path1438"
   inkscape:connector-curvature="0"
   display="inline"
   d="m 207.239,216.675 h -182.5 c -13.808,0 -25,11.192 -25,25 0,13.807 11.192,25 25,25 h 182.5 c 13.808,0 25,-11.193 25,-25 0,-13.808 -11.192,-25 -25,-25"
   style="fill:#f89c0e;display:inline" />

</g>
<g
   id="U"
   inkscape:groupmode="layer"
   inkscape:label="U"
   transform="matrix(1,0,0,-1,0,380)"
   display="none"
   style="display:none">
   <rect
   x="0"
   y="0"
   width="232.77315"
   height="364"
   style="fill:none;stroke:#ff00ff;stroke-width:0.2;stroke-miterlimit:4"
   id="rect4077" />
   <path
   id="path1454"
   inkscape:connector-curvature="0"
   display="inline"
   d="m 25.796762,81.216129 c -13.807,0 -24.9999998,11.193 -24.9999998,25.000001 v 140.418 c 0,13.808 11.1929998,25 24.9999998,25 13.808,0 25,-11.192 25,-25 v -140.418 c 0,-13.806001 -11.193,-25.000001 -25,-25.000001"
   style="fill:#ec0d5d;display:inline" />
   <path
   id="path1470"
   inkscape:connector-curvature="0"
   display="inline"
   d="m 208.24576,81.216129 c -13.807,0 -25,11.193 -25,25.000001 v 140.418 c 0,13.808 11.193,25 25,25 13.808,0 25,-11.192 25,-25 v -140.418 c 0,-13.806001 -11.192,-25.000001 -25,-25.000001"
   style="fill:#4081cb;display:inline" />
   <path
   id="path1486"
   inkscape:connector-curvature="0"
   display="inline"
   d="m 116.85576,-0.00787098 c -62.910998,0 -116.0599978,48.64499998 -116.0599978,106.22500098 0,13.808 11.1919998,25 24.9999998,25 13.808,0 25,-11.192 25,-25 0,-29.951001 30.87,-56.225001 66.059998,-56.225001 17.038,0 34.211,6.435 47.117,17.656 12.43,10.807 19.273,24.504 19.273,38.568001 0,13.808 11.192,25 25,25 13.808,0 25,-11.192 25,-25 0,-57.580001 -53.3,-106.22400098 -116.39,-106.22400098"
   style="fill:#66c430;display:inline" />

</g>
<g
   id="V"
   inkscape:groupmode="layer"
   inkscape:label="V"
   display="none"
   transform="matrix(1,0,0,-1,0,380)"
   style="display:none">
   <rect
   x="0"
   y="0"
   width="252.56482"
   height="364"
   style="fill:none;stroke:#ff00ff;stroke-width:0.2;stroke-miterlimit:4"
   id="rect4083" />
   <path
   id="path1606"
   inkscape:connector-curvature="0"
   display="inline"
   d="m 126.383,-1.3785992 c -9.434,0 -18.464,5.367 -22.695,14.4880002 L 2.812,230.6084 c -5.81,12.525 -0.365,27.389 12.16,33.198 12.526,5.805 27.388,0.365 33.199,-12.16 L 149.047,34.146397 c 5.809,-12.525996 0.365,-27.3889962 -12.162,-33.19899615 -3.404,-1.577 -6.981,-2.32600005 -10.502,-2.32600005"
   style="fill:#f89c0e;display:inline" />
   <path
   id="path1622"
   inkscape:connector-curvature="0"
   display="inline"
   d="m 126.351,-1.3785992 c -3.521,0 -7.099,0.74800005 -10.502,2.32600005 C 103.323,6.7584008 97.879,21.620401 103.687,34.146397 L 204.566,251.6464 c 5.809,12.526 20.674,17.973 33.198,12.16 12.524,-5.809 17.97,-20.673 12.16,-33.198 L 149.045,13.108401 C 144.816,3.9884008 135.783,-1.3785992 126.351,-1.3785992"
   style="fill:#4081cb;display:inline" />

</g>
<g
   id="W"
   inkscape:groupmode="layer"
   inkscape:label="W"
   transform="matrix(1,0,0,-1,0,380)"
   display="none"
   style="display:none">
  <rect
   x="0"
   y="0"
   width="383.18982"
   height="364"
   style="fill:none;stroke:#ff00ff;stroke-width:0.2;stroke-miterlimit:4"
   id="rect4088" />
   <path
   id="path1638"
   inkscape:connector-curvature="0"
   display="inline"
   d="m 103.882,0.13401011 c -10.241,0 -19.849,6.34099999 -23.52,16.53099989 l -78.38,217.5 c -4.682,12.989 2.055,27.314 15.045,31.994 12.985,4.682 27.313,-2.054 31.994,-15.043 l 78.379,-217.5 c 4.682,-12.989 -2.054,-27.3139999 -15.044,-31.9959999 -2.797,-1.00699999 -5.661,-1.48699999 -8.474,-1.48599999"
   style="fill:#f89c0e;display:inline" />
   <path
   id="path1654"
   inkscape:connector-curvature="0"
   display="inline"
   d="m 103.869,0.13401011 c -3.331,0 -6.715,0.67 -9.963,2.08299999 -12.66,5.509 -18.457,20.2369999 -12.948,32.8989999 l 94.646,217.5 c 5.51,12.661 20.245,18.454 32.898,12.949 12.66,-5.509 18.458,-20.239 12.948,-32.9 l -94.645,-217.5 C 122.709,5.7530101 113.518,0.13401011 103.869,0.13401011"
   style="fill:#66c430;display:inline" />
   <path
   id="path1670"
   inkscape:connector-curvature="0"
   display="inline"
   d="m 276.924,0.13401011 c -10.24,0 -19.848,6.33999999 -23.52,16.53099989 l -78.396,217.5 c -4.682,12.987 2.053,27.313 15.041,31.995 12.996,4.676 27.315,-2.052 31.998,-15.042 l 78.395,-217.5 c 4.683,-12.989 -2.053,-27.3129999 -15.041,-31.9969999 -2.8,-1.00799999 -5.663,-1.48799999 -8.477,-1.48699999"
   style="fill:#4081cb;display:inline" />
   <path
   id="path1686"
   inkscape:connector-curvature="0"
   display="inline"
   d="m 276.92,0.13401011 c -2.937,0 -5.92,0.521 -8.828,1.61799999 -12.918,4.878 -19.434,19.3029999 -14.558,32.2199999 l 82.129,217.5 c 4.878,12.918 19.304,19.43 32.22,14.558 12.917,-4.879 19.434,-19.304 14.558,-32.221 l -82.128,-217.5 C 296.531,6.3010101 287.02,0.13301011 276.92,0.13401011"
   style="fill:#ec0d5d;display:inline" />

</g>
<g
   id="X"
   inkscape:groupmode="layer"
   inkscape:label="X"
   transform="matrix(1,0,0,-1,0,380)"
   display="none"
   style="display:none">
   <rect
   x="0"
   y="0"
   width="227.05556"
   height="364"
   style="fill:none;stroke:#ff00ff;stroke-width:0.2;stroke-miterlimit:4"
   id="rect4095" />
   <path
   id="path1030"
   inkscape:connector-curvature="0"
   display="inline"
   d="m 202.12924,266.11297 c -7.23,0 -14.4,-3.121 -19.346,-9.148 L 4.4072378,39.464969 c -8.756,-10.675998 -7.199,-26.428998 3.478,-35.184998 10.6750002,-8.755 26.4290002,-7.197 35.1820002,3.478 L 221.44624,225.25797 c 8.755,10.676 7.199,26.429 -3.478,35.186 -4.649,3.812 -10.261,5.669 -15.839,5.669"
   style="fill:#f89c0e;display:inline" />
   <path
   id="path1046"
   inkscape:connector-curvature="0"
   display="inline"
   d="m 23.721238,266.11297 c -5.577,0 -11.188,-1.856 -15.8380002,-5.67 -10.676,-8.757 -12.233,-24.51 -3.478,-35.186 L 182.78524,7.756971 c 8.754,-10.678 24.507,-12.232 35.182,-3.478 10.677,8.756 12.234,24.509 3.479,35.184998 L 43.067238,256.96397 c -4.944,6.028 -12.117,9.149 -19.346,9.149"
   style="fill:#66c430;display:inline" />
</g>
<g
   id="Y"
   inkscape:groupmode="layer"
   inkscape:label="Y"
   transform="matrix(1,0,0,-1,0,380)"
   display="none"
   style="display:none">
   <rect
   x="0"
   y="0"
   width="252.125"
   height="364"
   style="fill:none;stroke:#ff00ff;stroke-width:0.2;stroke-miterlimit:4"
   id="rect4100" />
   <path
   id="path1062"
   inkscape:connector-curvature="0"
   display="inline"
   d="m 126.207,78.523129 c -7.729,0 -15.349,3.569 -20.241,10.3 L 5.087,227.57313 c -8.12,11.167 -5.649,26.802 5.52,34.922 11.166,8.118 26.802,5.647 34.921,-5.52 l 100.878,-138.75 c 8.119,-11.167 5.649,-26.803001 -5.52,-34.923001 -4.438,-3.225 -9.582,-4.779 -14.679,-4.779"
   style="fill:#f89c0e;display:inline" />
   <path
   id="path1078"
   inkscape:connector-curvature="0"
   display="inline"
   d="m 126.165,78.523129 c -5.097,0 -10.241,1.554 -14.68,4.779 -11.169,8.12 -13.639,23.756001 -5.52,34.923001 l 100.876,138.75 c 8.119,11.167 23.754,13.637 34.922,5.52 11.168,-8.12 13.639,-23.755 5.52,-34.922 L 146.406,88.823129 c -4.892,-6.73 -12.511,-10.3 -20.241,-10.3"
   style="fill:#66c430;display:inline" />
   <path
   id="path1094"
   inkscape:connector-curvature="0"
   display="inline"
   d="m 126.186,-0.22587098 c -13.808,0 -25,11.19199998 -25,24.99999998 v 78.750001 c 0,13.808 11.192,25 25,25 13.807,0 25,-11.192 25,-25 V 24.774129 c 0,-13.808 -11.193,-24.99999998 -25,-24.99999998"
   style="fill:#ec0d5d;display:inline" />
</g>
<g
   id="Z"
   inkscape:groupmode="layer"
   inkscape:label="Z"
   display="none"
   transform="matrix(1,0,0,-1,0,380)"
   style="display:none">
   <rect
   x="0"
   y="0"
   width="216.5"
   height="364"
   style="fill:none;stroke:#ff00ff;stroke-width:0.2;stroke-miterlimit:4"
   id="rect4106" />
   <path
   id="path930"
   inkscape:connector-curvature="0"
   display="inline"
   d="m 25.978762,0.1149052 c -5.29,0 -10.624,1.672 -15.152,5.13 C -0.14723782,13.624905 -2.2522378,29.312905 6.1267622,40.286901 L 172.19376,257.7869 c 8.379,10.975 24.07,13.078 35.041,4.699 10.975,-8.378 13.079,-24.067 4.701,-35.041 L 45.867762,9.9449052 c -4.921,-6.445 -12.363,-9.83 -19.889,-9.83"
   style="fill:#4081cb;display:inline" />
   <path
   id="path946"
   inkscape:connector-curvature="0"
   display="inline"
   d="M 192.06476,0.1159052 H 25.996762 c -13.806,0 -24.99999982,11.1919998 -24.99999982,24.9999998 0,13.807996 11.19399982,24.999996 24.99999982,24.999996 H 192.06476 c 13.807,0 25,-11.192 25,-24.999996 0,-13.808 -11.194,-24.9999998 -25,-24.9999998"
   style="fill:#66c430;display:inline" />
   <path
   id="path962"
   inkscape:connector-curvature="0"
   display="inline"
   d="M 192.06476,217.6159 H 25.996762 c -13.806,0 -24.99999982,11.192 -24.99999982,25 0,13.808 11.19399982,25 24.99999982,25 H 192.06476 c 13.807,0 25,-11.192 25,-25 0,-13.808 -11.194,-25 -25,-25"
   style="fill:#ec0d5d;display:inline" />
</g>
</svg>